<?xml version="1.0" encoding="UTF-8" standalone="no"?><svg xmlns="http://www.w3.org/2000/svg" xmlns:xlink="http://www.w3.org/1999/xlink" contentScriptType="application/ecmascript" contentStyleType="text/css" height="211px" preserveAspectRatio="none" style="width:270px;height:211px;background:#FFFFFF;" version="1.1" viewBox="0 0 270 211" width="270px" zoomAndPan="magnify"><defs><filter height="300%" id="f18042gphucdbo" width="300%" x="-1" y="-1"><feGaussianBlur result="blurOut" stdDeviation="2.0"/><feColorMatrix in="blurOut" result="blurOut2" type="matrix" values="0 0 0 0 0 0 0 0 0 0 0 0 0 0 0 0 0 0 .4 0"/><feOffset dx="4.0" dy="4.0" in="blurOut2" result="blurOut3"/><feBlend in="SourceGraphic" in2="blurOut3" mode="normal"/></filter></defs><g><line style="stroke:#A80036;stroke-width:1.0;stroke-dasharray:5.0,5.0;" x1="51" x2="51" y1="40.4883" y2="168.4199"/><line style="stroke:#A80036;stroke-width:1.0;stroke-dasharray:5.0,5.0;" x1="218.5" x2="218.5" y1="40.4883" y2="168.4199"/><rect fill="#FEFECE" filter="url(#f18042gphucdbo)" height="30.4883" style="stroke:#A80036;stroke-width:1.5;" width="56" x="21" y="5"/><text fill="#000000" font-family="sans-serif" font-size="14" lengthAdjust="spacing" textLength="42" x="28" y="25.5352">server</text><rect fill="#FEFECE" filter="url(#f18042gphucdbo)" height="30.4883" style="stroke:#A80036;stroke-width:1.5;" width="56" x="21" y="167.4199"/><text fill="#000000" font-family="sans-serif" font-size="14" lengthAdjust="spacing" textLength="42" x="28" y="187.9551">server</text><rect fill="#FEFECE" filter="url(#f18042gphucdbo)" height="30.4883" style="stroke:#A80036;stroke-width:1.5;" width="51" x="191.5" y="5"/><text fill="#000000" font-family="sans-serif" font-size="14" lengthAdjust="spacing" textLength="37" x="198.5" y="25.5352">client</text><rect fill="#FEFECE" filter="url(#f18042gphucdbo)" height="30.4883" style="stroke:#A80036;stroke-width:1.5;" width="51" x="191.5" y="167.4199"/><text fill="#000000" font-family="sans-serif" font-size="14" lengthAdjust="spacing" textLength="37" x="198.5" y="187.9551">client</text><polygon fill="#A80036" points="207,67.7988,217,71.7988,207,75.7988,211,71.7988" style="stroke:#A80036;stroke-width:1.0;"/><line style="stroke:#A80036;stroke-width:1.0;" x1="51" x2="213" y1="71.7988" y2="71.7988"/><text fill="#000000" font-family="sans-serif" font-size="13" lengthAdjust="spacing" textLength="96" x="58" y="67.0566">[ msg_len, cid ]</text><polygon fill="#A80036" points="62,107.1094,52,111.1094,62,115.1094,58,111.1094" style="stroke:#A80036;stroke-width:1.0;"/><line style="stroke:#A80036;stroke-width:1.0;" x1="56" x2="218" y1="111.1094" y2="111.1094"/><text fill="#000000" font-family="sans-serif" font-size="13" lengthAdjust="spacing" textLength="96" x="68" y="106.3672">[ msg_len, cid ]</text><path d="M224,84.7988 L224,109.7988 L261,109.7988 L261,94.7988 L251,84.7988 L224,84.7988 " fill="#FBFB77" filter="url(#f18042gphucdbo)" style="stroke:#A80036;stroke-width:1.0;"/><path d="M251,84.7988 L251,94.7988 L261,94.7988 L251,84.7988 " fill="#FBFB77" style="stroke:#A80036;stroke-width:1.0;"/><text fill="#000000" font-family="sans-serif" font-size="13" lengthAdjust="spacing" textLength="16" x="230" y="102.3672">T1</text><path d="M5,84.7988 L5,109.7988 L42,109.7988 L42,94.7988 L32,84.7988 L5,84.7988 " fill="#FBFB77" filter="url(#f18042gphucdbo)" style="stroke:#A80036;stroke-width:1.0;"/><path d="M32,84.7988 L32,94.7988 L42,94.7988 L32,84.7988 " fill="#FBFB77" style="stroke:#A80036;stroke-width:1.0;"/><text fill="#000000" font-family="sans-serif" font-size="13" lengthAdjust="spacing" textLength="16" x="11" y="102.3672">T2</text><polygon fill="#A80036" points="207,146.4199,217,150.4199,207,154.4199,211,150.4199" style="stroke:#A80036;stroke-width:1.0;"/><line style="stroke:#A80036;stroke-width:1.0;" x1="51" x2="213" y1="150.4199" y2="150.4199"/><text fill="#000000" font-family="sans-serif" font-size="13" lengthAdjust="spacing" textLength="144" x="58" y="145.6777">[ msg_len, cid, T2, T3 ]</text><path d="M5,124.1094 L5,149.1094 L42,149.1094 L42,134.1094 L32,124.1094 L5,124.1094 " fill="#FBFB77" filter="url(#f18042gphucdbo)" style="stroke:#A80036;stroke-width:1.0;"/><path d="M32,124.1094 L32,134.1094 L42,134.1094 L32,124.1094 " fill="#FBFB77" style="stroke:#A80036;stroke-width:1.0;"/><text fill="#000000" font-family="sans-serif" font-size="13" lengthAdjust="spacing" textLength="16" x="11" y="141.6777">T3</text><path d="M224,124.1094 L224,149.1094 L261,149.1094 L261,134.1094 L251,124.1094 L224,124.1094 " fill="#FBFB77" filter="url(#f18042gphucdbo)" style="stroke:#A80036;stroke-width:1.0;"/><path d="M251,124.1094 L251,134.1094 L261,134.1094 L251,124.1094 " fill="#FBFB77" style="stroke:#A80036;stroke-width:1.0;"/><text fill="#000000" font-family="sans-serif" font-size="13" lengthAdjust="spacing" textLength="16" x="230" y="141.6777">T4</text><!--MD5=[630e599bb2386be7c538135882b01bfe]
@startuml B2_sync_time
server -> client: [ msg_len, cid ]
server <- client: [ msg_len, cid ]
note right: T1
note left: T2
server -> client: [ msg_len, cid, T2, T3 ]
note left: T3
note right: T4
@enduml

PlantUML version 1.2021.12(Tue Oct 05 18:01:58 CEST 2021)
(GPL source distribution)
Java Runtime: OpenJDK Runtime Environment
JVM: OpenJDK 64-Bit Server VM
Default Encoding: UTF-8
Language: da
Country: DK
--></g></svg>