<?xml version="1.0" encoding="UTF-8" standalone="no"?><svg xmlns="http://www.w3.org/2000/svg" xmlns:xlink="http://www.w3.org/1999/xlink" contentScriptType="application/ecmascript" contentStyleType="text/css" height="1221px" preserveAspectRatio="none" style="width:1283px;height:1221px;background:#FFFFFF;" version="1.1" viewBox="0 0 1283 1221" width="1283px" zoomAndPan="magnify"><defs><filter height="300%" id="fnhnbloimdwvl" width="300%" x="-1" y="-1"><feGaussianBlur result="blurOut" stdDeviation="2.0"/><feColorMatrix in="blurOut" result="blurOut2" type="matrix" values="0 0 0 0 0 0 0 0 0 0 0 0 0 0 0 0 0 0 .4 0"/><feOffset dx="4.0" dy="4.0" in="blurOut2" result="blurOut3"/><feBlend in="SourceGraphic" in2="blurOut3" mode="normal"/></filter></defs><g><!--MD5=[6bcd4e2e4339cb18f29cde61031d3191]
cluster SZP--><polygon fill="#FFFFFF" filter="url(#fnhnbloimdwvl)" points="16,6,48,6,55,29.6094,981,29.6094,981,1214,16,1214,16,6" style="stroke:#000000;stroke-width:1.5;"/><line style="stroke:#000000;stroke-width:1.5;" x1="16" x2="55" y1="29.6094" y2="29.6094"/><text fill="#000000" font-family="sans-serif" font-size="14" font-weight="bold" lengthAdjust="spacing" textLength="26" x="20" y="22.5332">SZP</text><!--MD5=[3515607e15a279e3594e3ca07429e5dc]
cluster sound_zone_protocol--><polygon fill="#FFFFFF" filter="url(#fnhnbloimdwvl)" points="48,323,207,323,214,346.6094,949,346.6094,949,1182,48,1182,48,323" style="stroke:#000000;stroke-width:1.5;"/><line style="stroke:#000000;stroke-width:1.5;" x1="48" x2="214" y1="346.6094" y2="346.6094"/><text fill="#000000" font-family="sans-serif" font-size="14" font-weight="bold" lengthAdjust="spacing" textLength="153" x="52" y="339.5332">sound_zone_protocol</text><!--MD5=[9b35566ef05d5cde0f42c237ca30e91b]
cluster szp_custom_types--><polygon fill="#FFFFFF" filter="url(#fnhnbloimdwvl)" points="612,763,747,763,754,786.6094,909,786.6094,909,879,612,879,612,763" style="stroke:#000000;stroke-width:1.5;"/><line style="stroke:#000000;stroke-width:1.5;" x1="612" x2="754" y1="786.6094" y2="786.6094"/><text fill="#000000" font-family="sans-serif" font-size="14" font-weight="bold" lengthAdjust="spacing" textLength="129" x="616" y="779.5332">szp_custom_types</text><!--MD5=[79a26e4ac8bd5100d7277bc5c79d8e58]
cluster DataTransport--><polygon fill="#FFFFFF" filter="url(#fnhnbloimdwvl)" points="1005,456.5,1110,456.5,1117,480.1094,1266,480.1094,1266,556.5,1005,556.5,1005,456.5" style="stroke:#000000;stroke-width:1.5;"/><line style="stroke:#000000;stroke-width:1.5;" x1="1005" x2="1117" y1="480.1094" y2="480.1094"/><text fill="#000000" font-family="sans-serif" font-size="14" font-weight="bold" lengthAdjust="spacing" textLength="99" x="1009" y="473.0332">DataTransport</text><!--MD5=[358141ac238f2a25e6d946b89ad047f2]
class SZP_master--><rect codeLine="143" fill="#FEFECE" filter="url(#fnhnbloimdwvl)" height="166.6875" id="SZP_master" style="stroke:#A80036;stroke-width:1.5;" width="320" x="446" y="71.5"/><ellipse cx="567.25" cy="87.5" fill="#ADD1B2" rx="11" ry="11" style="stroke:#A80036;stroke-width:1.0;"/><path d="M570.0156,83.375 Q570.1719,83.1563 570.3594,83.0469 Q570.5469,82.9375 570.7656,82.9375 Q571.1406,82.9375 571.375,83.1953 Q571.6094,83.4531 571.6094,84.0625 L571.6094,85.5156 Q571.6094,86.125 571.375,86.3906 Q571.1406,86.6563 570.7656,86.6563 Q570.4219,86.6563 570.2188,86.4531 Q570.0156,86.2656 569.9063,85.75 Q569.8594,85.3906 569.6719,85.2031 Q569.3438,84.8281 568.7344,84.6094 Q568.125,84.3906 567.5,84.3906 Q566.7344,84.3906 566.1016,84.7188 Q565.4688,85.0469 564.9766,85.7969 Q564.4844,86.5469 564.4844,87.5781 L564.4844,88.6719 Q564.4844,89.9063 565.375,90.7266 Q566.2656,91.5469 567.8594,91.5469 Q568.7969,91.5469 569.4531,91.2969 Q569.8438,91.1406 570.2656,90.7031 Q570.5313,90.4375 570.6797,90.3594 Q570.8281,90.2813 571.0313,90.2813 Q571.3594,90.2813 571.6172,90.5391 Q571.875,90.7969 571.875,91.1406 Q571.875,91.4844 571.5313,91.8906 Q571.0313,92.4688 570.2344,92.7969 Q569.1563,93.25 567.8594,93.25 Q566.3438,93.25 565.1406,92.625 Q564.1563,92.125 563.4688,91.0547 Q562.7813,89.9844 562.7813,88.7031 L562.7813,87.5469 Q562.7813,86.2188 563.3984,85.0703 Q564.0156,83.9219 565.1094,83.3047 Q566.2031,82.6875 567.4375,82.6875 Q568.1719,82.6875 568.8203,82.8516 Q569.4688,83.0156 570.0156,83.375 Z " fill="#000000"/><text fill="#000000" font-family="sans-serif" font-size="12" lengthAdjust="spacing" textLength="69" x="587.75" y="92.4102">SZP_master</text><line style="stroke:#A80036;stroke-width:1.5;" x1="447" x2="765" y1="103.5" y2="103.5"/><rect fill="none" height="6" style="stroke:#C82930;stroke-width:1.0;" width="6" x="454" y="129.3359"/><text fill="#000000" font-family="sans-serif" font-size="11" lengthAdjust="spacing" textLength="63" x="466" y="136.7549">UDP_client dt</text><rect fill="none" height="6" style="stroke:#C82930;stroke-width:1.0;" width="6" x="454" y="143.1719"/><text fill="#000000" font-family="sans-serif" font-size="11" lengthAdjust="spacing" textLength="105" x="466" y="150.5908">uint8_t comm_buffer[]</text><line style="stroke:#A80036;stroke-width:1.0;" x1="447" x2="589.5" y1="118.418" y2="118.418"/><text fill="#000000" font-family="sans-serif" font-size="11" lengthAdjust="spacing" textLength="33" x="589.5" y="122.4189">Private</text><line style="stroke:#A80036;stroke-width:1.0;" x1="622.5" x2="765" y1="118.418" y2="118.418"/><line style="stroke:#A80036;stroke-width:1.5;" x1="447" x2="765" y1="157.0078" y2="157.0078"/><ellipse cx="457" cy="185.8438" fill="#84BE84" rx="3" ry="3" style="stroke:#038048;stroke-width:1.0;"/><text fill="#000000" font-family="sans-serif" font-size="11" lengthAdjust="spacing" textLength="67" x="466" y="190.2627">SZP_master()</text><ellipse cx="457" cy="199.6797" fill="#84BE84" rx="3" ry="3" style="stroke:#038048;stroke-width:1.0;"/><text fill="#000000" font-family="sans-serif" font-size="11" lengthAdjust="spacing" textLength="168" x="466" y="204.0986">SZP_master(char *host, bool is_ip)</text><ellipse cx="457" cy="213.5156" fill="#84BE84" rx="3" ry="3" style="stroke:#038048;stroke-width:1.0;"/><text fill="#000000" font-family="sans-serif" font-size="11" lengthAdjust="spacing" textLength="110" x="466" y="217.9346">int check_connection()</text><ellipse cx="457" cy="227.3516" fill="#84BE84" rx="3" ry="3" style="stroke:#038048;stroke-width:1.0;"/><text fill="#000000" font-family="sans-serif" font-size="11" lengthAdjust="spacing" textLength="294" x="466" y="231.7705">int send_sound_packet(uint8_t* buffer, uint16_t packet_size)</text><line style="stroke:#A80036;stroke-width:1.0;" x1="447" x2="592" y1="171.9258" y2="171.9258"/><text fill="#000000" font-family="sans-serif" font-size="11" lengthAdjust="spacing" textLength="28" x="592" y="175.9268">Public</text><line style="stroke:#A80036;stroke-width:1.0;" x1="620" x2="765" y1="171.9258" y2="171.9258"/><!--MD5=[f98b2bde8a9293bad7a4d96faca01189]
class SZP_slave--><rect codeLine="155" fill="#FEFECE" filter="url(#fnhnbloimdwvl)" height="226.0313" id="SZP_slave" style="stroke:#A80036;stroke-width:1.5;" width="163" x="801.5" y="42"/><ellipse cx="849.25" cy="58" fill="#ADD1B2" rx="11" ry="11" style="stroke:#A80036;stroke-width:1.0;"/><path d="M852.0156,53.875 Q852.1719,53.6563 852.3594,53.5469 Q852.5469,53.4375 852.7656,53.4375 Q853.1406,53.4375 853.375,53.6953 Q853.6094,53.9531 853.6094,54.5625 L853.6094,56.0156 Q853.6094,56.625 853.375,56.8906 Q853.1406,57.1563 852.7656,57.1563 Q852.4219,57.1563 852.2188,56.9531 Q852.0156,56.7656 851.9063,56.25 Q851.8594,55.8906 851.6719,55.7031 Q851.3438,55.3281 850.7344,55.1094 Q850.125,54.8906 849.5,54.8906 Q848.7344,54.8906 848.1016,55.2188 Q847.4688,55.5469 846.9766,56.2969 Q846.4844,57.0469 846.4844,58.0781 L846.4844,59.1719 Q846.4844,60.4063 847.375,61.2266 Q848.2656,62.0469 849.8594,62.0469 Q850.7969,62.0469 851.4531,61.7969 Q851.8438,61.6406 852.2656,61.2031 Q852.5313,60.9375 852.6797,60.8594 Q852.8281,60.7813 853.0313,60.7813 Q853.3594,60.7813 853.6172,61.0391 Q853.875,61.2969 853.875,61.6406 Q853.875,61.9844 853.5313,62.3906 Q853.0313,62.9688 852.2344,63.2969 Q851.1563,63.75 849.8594,63.75 Q848.3438,63.75 847.1406,63.125 Q846.1563,62.625 845.4688,61.5547 Q844.7813,60.4844 844.7813,59.2031 L844.7813,58.0469 Q844.7813,56.7188 845.3984,55.5703 Q846.0156,54.4219 847.1094,53.8047 Q848.2031,53.1875 849.4375,53.1875 Q850.1719,53.1875 850.8203,53.3516 Q851.4688,53.5156 852.0156,53.875 Z " fill="#000000"/><text fill="#000000" font-family="sans-serif" font-size="12" lengthAdjust="spacing" textLength="59" x="869.75" y="62.9102">SZP_slave</text><line style="stroke:#A80036;stroke-width:1.5;" x1="802.5" x2="963.5" y1="74" y2="74"/><rect fill="none" height="6" style="stroke:#C82930;stroke-width:1.0;" width="6" x="809.5" y="99.8359"/><text fill="#000000" font-family="sans-serif" font-size="11" lengthAdjust="spacing" textLength="70" x="821.5" y="107.2549">UDP_server dt</text><rect fill="none" height="6" style="stroke:#C82930;stroke-width:1.0;" width="6" x="809.5" y="113.6719"/><text fill="#000000" font-family="sans-serif" font-size="11" lengthAdjust="spacing" textLength="77" x="821.5" y="121.0908">char* fifo_name</text><rect fill="none" height="6" style="stroke:#C82930;stroke-width:1.0;" width="6" x="809.5" y="127.5078"/><text fill="#000000" font-family="sans-serif" font-size="11" lengthAdjust="spacing" textLength="105" x="821.5" y="134.9268">uint8_t comm_buffer[]</text><line style="stroke:#A80036;stroke-width:1.0;" x1="802.5" x2="866.5" y1="88.918" y2="88.918"/><text fill="#000000" font-family="sans-serif" font-size="11" lengthAdjust="spacing" textLength="33" x="866.5" y="92.9189">Private</text><line style="stroke:#A80036;stroke-width:1.0;" x1="899.5" x2="963.5" y1="88.918" y2="88.918"/><line style="stroke:#A80036;stroke-width:1.5;" x1="802.5" x2="963.5" y1="141.3438" y2="141.3438"/><rect fill="#F24D5C" height="6" style="stroke:#C82930;stroke-width:1.0;" width="6" x="809.5" y="167.1797"/><text fill="#000000" font-family="sans-serif" font-size="11" lengthAdjust="spacing" textLength="112" x="821.5" y="174.5986">int encode_and_send()</text><rect fill="#F24D5C" height="6" style="stroke:#C82930;stroke-width:1.0;" width="6" x="809.5" y="181.0156"/><text fill="#000000" font-family="sans-serif" font-size="11" lengthAdjust="spacing" textLength="113" x="821.5" y="188.4346">int react_on_incoming()</text><line style="stroke:#A80036;stroke-width:1.0;" x1="802.5" x2="866.5" y1="156.2617" y2="156.2617"/><text fill="#000000" font-family="sans-serif" font-size="11" lengthAdjust="spacing" textLength="33" x="866.5" y="160.2627">Private</text><line style="stroke:#A80036;stroke-width:1.0;" x1="899.5" x2="963.5" y1="156.2617" y2="156.2617"/><ellipse cx="812.5" cy="215.6875" fill="#84BE84" rx="3" ry="3" style="stroke:#038048;stroke-width:1.0;"/><text fill="#000000" font-family="sans-serif" font-size="11" lengthAdjust="spacing" textLength="137" x="821.5" y="220.1064">SZP_slave(char* fifo_name)</text><ellipse cx="812.5" cy="229.5234" fill="#84BE84" rx="3" ry="3" style="stroke:#038048;stroke-width:1.0;"/><text fill="#000000" font-family="sans-serif" font-size="11" lengthAdjust="spacing" textLength="66" x="821.5" y="233.9424">~SZP_slave()</text><ellipse cx="812.5" cy="243.3594" fill="#84BE84" rx="3" ry="3" style="stroke:#038048;stroke-width:1.0;"/><text fill="#000000" font-family="sans-serif" font-size="11" lengthAdjust="spacing" textLength="68" x="821.5" y="247.7783">int open_fifo()</text><ellipse cx="812.5" cy="257.1953" fill="#84BE84" rx="3" ry="3" style="stroke:#038048;stroke-width:1.0;"/><text fill="#000000" font-family="sans-serif" font-size="11" lengthAdjust="spacing" textLength="58" x="821.5" y="261.6143">int recieve()</text><line style="stroke:#A80036;stroke-width:1.0;" x1="802.5" x2="869" y1="201.7695" y2="201.7695"/><text fill="#000000" font-family="sans-serif" font-size="11" lengthAdjust="spacing" textLength="28" x="869" y="205.7705">Public</text><line style="stroke:#A80036;stroke-width:1.0;" x1="897" x2="963.5" y1="201.7695" y2="201.7695"/><!--MD5=[1abc3e6dc9fe2c8063ed4793c1552605]
class sound_zone_protocol--><rect codeLine="171" fill="#FEFECE" filter="url(#fnhnbloimdwvl)" height="299.2109" id="sound_zone_protocol" style="stroke:#A80036;stroke-width:1.5;" width="345" x="433.5" y="367"/><ellipse cx="542.25" cy="383" fill="#ADD1B2" rx="11" ry="11" style="stroke:#A80036;stroke-width:1.0;"/><path d="M545.0156,378.875 Q545.1719,378.6563 545.3594,378.5469 Q545.5469,378.4375 545.7656,378.4375 Q546.1406,378.4375 546.375,378.6953 Q546.6094,378.9531 546.6094,379.5625 L546.6094,381.0156 Q546.6094,381.625 546.375,381.8906 Q546.1406,382.1563 545.7656,382.1563 Q545.4219,382.1563 545.2188,381.9531 Q545.0156,381.7656 544.9063,381.25 Q544.8594,380.8906 544.6719,380.7031 Q544.3438,380.3281 543.7344,380.1094 Q543.125,379.8906 542.5,379.8906 Q541.7344,379.8906 541.1016,380.2188 Q540.4688,380.5469 539.9766,381.2969 Q539.4844,382.0469 539.4844,383.0781 L539.4844,384.1719 Q539.4844,385.4063 540.375,386.2266 Q541.2656,387.0469 542.8594,387.0469 Q543.7969,387.0469 544.4531,386.7969 Q544.8438,386.6406 545.2656,386.2031 Q545.5313,385.9375 545.6797,385.8594 Q545.8281,385.7813 546.0313,385.7813 Q546.3594,385.7813 546.6172,386.0391 Q546.875,386.2969 546.875,386.6406 Q546.875,386.9844 546.5313,387.3906 Q546.0313,387.9688 545.2344,388.2969 Q544.1563,388.75 542.8594,388.75 Q541.3438,388.75 540.1406,388.125 Q539.1563,387.625 538.4688,386.5547 Q537.7813,385.4844 537.7813,384.2031 L537.7813,383.0469 Q537.7813,381.7188 538.3984,380.5703 Q539.0156,379.4219 540.1094,378.8047 Q541.2031,378.1875 542.4375,378.1875 Q543.1719,378.1875 543.8203,378.3516 Q544.4688,378.5156 545.0156,378.875 Z " fill="#000000"/><text fill="#000000" font-family="sans-serif" font-size="12" lengthAdjust="spacing" textLength="119" x="562.75" y="387.9102">sound_zone_protocol</text><line style="stroke:#A80036;stroke-width:1.5;" x1="434.5" x2="777.5" y1="399" y2="399"/><polygon fill="none" points="444.5,422.8359,448.5,426.8359,444.5,430.8359,440.5,426.8359" style="stroke:#B38D22;stroke-width:1.0;"/><text fill="#000000" font-family="sans-serif" font-size="11" lengthAdjust="spacing" textLength="88" x="453.5" y="432.2549">buffer_t* p_buffer</text><polygon fill="none" points="444.5,436.6719,448.5,440.6719,444.5,444.6719,440.5,440.6719" style="stroke:#B38D22;stroke-width:1.0;"/><text fill="#000000" font-family="sans-serif" font-size="11" lengthAdjust="spacing" textLength="95" x="453.5" y="446.0908">supported_cid_t cid</text><polygon fill="none" points="444.5,450.5078,448.5,454.5078,444.5,458.5078,440.5,454.5078" style="stroke:#B38D22;stroke-width:1.0;"/><text fill="#000000" font-family="sans-serif" font-size="11" lengthAdjust="spacing" textLength="207" x="453.5" y="459.9268">xF1_check_connection* check_connection</text><polygon fill="none" points="444.5,464.3438,448.5,468.3438,444.5,472.3438,440.5,468.3438" style="stroke:#B38D22;stroke-width:1.0;"/><text fill="#000000" font-family="sans-serif" font-size="11" lengthAdjust="spacing" textLength="227" x="453.5" y="473.7627">x01_send_sound_packet* send_sound_packet</text><line style="stroke:#A80036;stroke-width:1.0;" x1="434.5" x2="583" y1="413.918" y2="413.918"/><text fill="#000000" font-family="sans-serif" font-size="11" lengthAdjust="spacing" textLength="46" x="583" y="417.9189">Protected</text><line style="stroke:#A80036;stroke-width:1.0;" x1="629" x2="777.5" y1="413.918" y2="413.918"/><line style="stroke:#A80036;stroke-width:1.5;" x1="434.5" x2="777.5" y1="480.1797" y2="480.1797"/><rect fill="#F24D5C" height="6" style="stroke:#C82930;stroke-width:1.0;" width="6" x="441.5" y="506.0156"/><text fill="#000000" font-family="sans-serif" font-size="11" lengthAdjust="spacing" textLength="232" x="453.5" y="513.4346">static supported_cid_t initial_decode(uint8_t cid)</text><line style="stroke:#A80036;stroke-width:1.0;" x1="434.5" x2="589.5" y1="495.0977" y2="495.0977"/><text fill="#000000" font-family="sans-serif" font-size="11" lengthAdjust="spacing" textLength="33" x="589.5" y="499.0986">Private</text><line style="stroke:#A80036;stroke-width:1.0;" x1="622.5" x2="777.5" y1="495.0977" y2="495.0977"/><polygon fill="#FFFF44" points="444.5,535.6875,448.5,539.6875,444.5,543.6875,440.5,539.6875" style="stroke:#B38D22;stroke-width:1.0;"/><text fill="#000000" font-family="sans-serif" font-size="11" lengthAdjust="spacing" textLength="139" x="453.5" y="545.1064">uint16_t encode_and_send()</text><line style="stroke:#A80036;stroke-width:1.0;" x1="434.5" x2="583" y1="526.7695" y2="526.7695"/><text fill="#000000" font-family="sans-serif" font-size="11" lengthAdjust="spacing" textLength="46" x="583" y="530.7705">Protected</text><line style="stroke:#A80036;stroke-width:1.0;" x1="629" x2="777.5" y1="526.7695" y2="526.7695"/><ellipse cx="444.5" cy="572.3594" fill="#84BE84" rx="3" ry="3" style="stroke:#038048;stroke-width:1.0;"/><text fill="#000000" font-family="sans-serif" font-size="11" lengthAdjust="spacing" textLength="113" x="453.5" y="576.7783">sound_zone_protocol()</text><ellipse cx="444.5" cy="586.1953" fill="#84BE84" rx="3" ry="3" style="stroke:#038048;stroke-width:1.0;"/><text fill="#000000" font-family="sans-serif" font-size="11" lengthAdjust="spacing" textLength="319" x="453.5" y="590.6143">sound_zone_protocol(uint8_t* comm_buffer, uint16_t buffer_size)</text><ellipse cx="444.5" cy="600.0313" fill="#84BE84" rx="3" ry="3" style="stroke:#038048;stroke-width:1.0;"/><text fill="#000000" font-family="sans-serif" font-size="11" lengthAdjust="spacing" textLength="109" x="453.5" y="604.4502">int set_fifo(int* fifo_fd)</text><ellipse cx="444.5" cy="613.8672" fill="#84BE84" rx="3" ry="3" style="stroke:#038048;stroke-width:1.0;"/><text fill="#000000" font-family="sans-serif" font-size="11" lengthAdjust="spacing" textLength="136" x="453.5" y="618.2861">int set_values(uint8_t value)</text><ellipse cx="444.5" cy="627.7031" fill="#84BE84" rx="3" ry="3" style="stroke:#038048;stroke-width:1.0;"/><text fill="#000000" font-family="sans-serif" font-size="11" lengthAdjust="spacing" textLength="213" x="453.5" y="632.1221">int set_values(uint8_t *values, uint16_t size)</text><ellipse cx="444.5" cy="641.5391" fill="#84BE84" rx="3" ry="3" style="stroke:#038048;stroke-width:1.0;"/><text fill="#000000" font-family="sans-serif" font-size="11" lengthAdjust="spacing" textLength="204" x="453.5" y="645.958">buffer_t* encode(buffer_t* encoded_msg)</text><ellipse cx="444.5" cy="655.375" fill="#84BE84" rx="3" ry="3" style="stroke:#038048;stroke-width:1.0;"/><text fill="#000000" font-family="sans-serif" font-size="11" lengthAdjust="spacing" textLength="181" x="453.5" y="659.7939">int decode(buffer_t* msg_to_decode)</text><line style="stroke:#A80036;stroke-width:1.0;" x1="434.5" x2="592" y1="558.4414" y2="558.4414"/><text fill="#000000" font-family="sans-serif" font-size="11" lengthAdjust="spacing" textLength="28" x="592" y="562.4424">Public</text><line style="stroke:#A80036;stroke-width:1.0;" x1="620" x2="777.5" y1="558.4414" y2="558.4414"/><!--MD5=[5b296fcb86e66f3b2b94a895ed44520a]
class x01_send_sound_packet--><rect codeLine="192" fill="#FEFECE" filter="url(#fnhnbloimdwvl)" height="208.1953" id="x01_send_sound_packet" style="stroke:#A80036;stroke-width:1.5;" width="239" x="80.5" y="727"/><ellipse cx="126.25" cy="743" fill="#ADD1B2" rx="11" ry="11" style="stroke:#A80036;stroke-width:1.0;"/><path d="M129.0156,738.875 Q129.1719,738.6563 129.3594,738.5469 Q129.5469,738.4375 129.7656,738.4375 Q130.1406,738.4375 130.375,738.6953 Q130.6094,738.9531 130.6094,739.5625 L130.6094,741.0156 Q130.6094,741.625 130.375,741.8906 Q130.1406,742.1563 129.7656,742.1563 Q129.4219,742.1563 129.2188,741.9531 Q129.0156,741.7656 128.9063,741.25 Q128.8594,740.8906 128.6719,740.7031 Q128.3438,740.3281 127.7344,740.1094 Q127.125,739.8906 126.5,739.8906 Q125.7344,739.8906 125.1016,740.2188 Q124.4688,740.5469 123.9766,741.2969 Q123.4844,742.0469 123.4844,743.0781 L123.4844,744.1719 Q123.4844,745.4063 124.375,746.2266 Q125.2656,747.0469 126.8594,747.0469 Q127.7969,747.0469 128.4531,746.7969 Q128.8438,746.6406 129.2656,746.2031 Q129.5313,745.9375 129.6797,745.8594 Q129.8281,745.7813 130.0313,745.7813 Q130.3594,745.7813 130.6172,746.0391 Q130.875,746.2969 130.875,746.6406 Q130.875,746.9844 130.5313,747.3906 Q130.0313,747.9688 129.2344,748.2969 Q128.1563,748.75 126.8594,748.75 Q125.3438,748.75 124.1406,748.125 Q123.1563,747.625 122.4688,746.5547 Q121.7813,745.4844 121.7813,744.2031 L121.7813,743.0469 Q121.7813,741.7188 122.3984,740.5703 Q123.0156,739.4219 124.1094,738.8047 Q125.2031,738.1875 126.4375,738.1875 Q127.1719,738.1875 127.8203,738.3516 Q128.4688,738.5156 129.0156,738.875 Z " fill="#000000"/><text fill="#000000" font-family="sans-serif" font-size="12" lengthAdjust="spacing" textLength="139" x="146.75" y="747.9102">x01_send_sound_packet</text><line style="stroke:#A80036;stroke-width:1.5;" x1="81.5" x2="318.5" y1="759" y2="759"/><rect fill="none" height="6" style="stroke:#C82930;stroke-width:1.0;" width="6" x="88.5" y="784.8359"/><text fill="#000000" font-family="sans-serif" font-size="11" lengthAdjust="spacing" textLength="89" x="100.5" y="792.2549">uint8_t* p_payload</text><rect fill="none" height="6" style="stroke:#C82930;stroke-width:1.0;" width="6" x="88.5" y="798.6719"/><text fill="#000000" font-family="sans-serif" font-size="11" lengthAdjust="spacing" textLength="105" x="100.5" y="806.0908">uint16_t payload_size</text><rect fill="none" height="6" style="stroke:#C82930;stroke-width:1.0;" width="6" x="88.5" y="812.5078"/><text fill="#000000" font-family="sans-serif" font-size="11" lengthAdjust="spacing" textLength="46" x="100.5" y="819.9268">int fifo_fd</text><line style="stroke:#A80036;stroke-width:1.0;" x1="81.5" x2="183.5" y1="773.918" y2="773.918"/><text fill="#000000" font-family="sans-serif" font-size="11" lengthAdjust="spacing" textLength="33" x="183.5" y="777.9189">Private</text><line style="stroke:#A80036;stroke-width:1.0;" x1="216.5" x2="318.5" y1="773.918" y2="773.918"/><line style="stroke:#A80036;stroke-width:1.5;" x1="81.5" x2="318.5" y1="826.3438" y2="826.3438"/><ellipse cx="91.5" cy="855.1797" fill="#84BE84" rx="3" ry="3" style="stroke:#038048;stroke-width:1.0;"/><text fill="#000000" font-family="sans-serif" font-size="11" lengthAdjust="spacing" textLength="130" x="100.5" y="859.5986">x01_send_sound_packet()</text><ellipse cx="91.5" cy="869.0156" fill="#84BE84" rx="3" ry="3" style="stroke:#038048;stroke-width:1.0;"/><text fill="#000000" font-family="sans-serif" font-size="11" lengthAdjust="spacing" textLength="139" x="100.5" y="873.4346">int set_fifo(const int* fifo_fd)</text><ellipse cx="91.5" cy="882.8516" fill="#84BE84" rx="3" ry="3" style="stroke:#038048;stroke-width:1.0;"/><text fill="#000000" font-family="sans-serif" font-size="11" lengthAdjust="spacing" textLength="213" x="100.5" y="887.2705">int set_values(uint8_t *values, uint16_t size)</text><ellipse cx="91.5" cy="896.6875" fill="#84BE84" rx="3" ry="3" style="stroke:#038048;stroke-width:1.0;"/><text fill="#000000" font-family="sans-serif" font-size="11" lengthAdjust="spacing" textLength="204" x="100.5" y="901.1064">buffer_t* encode(buffer_t* encoded_msg)</text><ellipse cx="91.5" cy="910.5234" fill="#84BE84" rx="3" ry="3" style="stroke:#038048;stroke-width:1.0;"/><text fill="#000000" font-family="sans-serif" font-size="11" lengthAdjust="spacing" textLength="190" x="100.5" y="914.9424">void decode(buffer_t* msg_to_decode)</text><ellipse cx="91.5" cy="924.3594" fill="#84BE84" rx="3" ry="3" style="stroke:#038048;stroke-width:1.0;"/><text fill="#000000" font-family="sans-serif" font-size="11" lengthAdjust="spacing" textLength="47" x="100.5" y="928.7783">int reset()</text><line style="stroke:#A80036;stroke-width:1.0;" x1="81.5" x2="186" y1="841.2617" y2="841.2617"/><text fill="#000000" font-family="sans-serif" font-size="11" lengthAdjust="spacing" textLength="28" x="186" y="845.2627">Public</text><line style="stroke:#A80036;stroke-width:1.0;" x1="214" x2="318.5" y1="841.2617" y2="841.2617"/><!--MD5=[6f3119a484ac264f38140fcf4dd4869c]
class xF1_check_connection--><rect codeLine="207" fill="#FEFECE" filter="url(#fnhnbloimdwvl)" height="166.6875" id="xF1_check_connection" style="stroke:#A80036;stroke-width:1.5;" width="230" x="355" y="747.5"/><ellipse cx="403.25" cy="763.5" fill="#ADD1B2" rx="11" ry="11" style="stroke:#A80036;stroke-width:1.0;"/><path d="M406.0156,759.375 Q406.1719,759.1563 406.3594,759.0469 Q406.5469,758.9375 406.7656,758.9375 Q407.1406,758.9375 407.375,759.1953 Q407.6094,759.4531 407.6094,760.0625 L407.6094,761.5156 Q407.6094,762.125 407.375,762.3906 Q407.1406,762.6563 406.7656,762.6563 Q406.4219,762.6563 406.2188,762.4531 Q406.0156,762.2656 405.9063,761.75 Q405.8594,761.3906 405.6719,761.2031 Q405.3438,760.8281 404.7344,760.6094 Q404.125,760.3906 403.5,760.3906 Q402.7344,760.3906 402.1016,760.7188 Q401.4688,761.0469 400.9766,761.7969 Q400.4844,762.5469 400.4844,763.5781 L400.4844,764.6719 Q400.4844,765.9063 401.375,766.7266 Q402.2656,767.5469 403.8594,767.5469 Q404.7969,767.5469 405.4531,767.2969 Q405.8438,767.1406 406.2656,766.7031 Q406.5313,766.4375 406.6797,766.3594 Q406.8281,766.2813 407.0313,766.2813 Q407.3594,766.2813 407.6172,766.5391 Q407.875,766.7969 407.875,767.1406 Q407.875,767.4844 407.5313,767.8906 Q407.0313,768.4688 406.2344,768.7969 Q405.1563,769.25 403.8594,769.25 Q402.3438,769.25 401.1406,768.625 Q400.1563,768.125 399.4688,767.0547 Q398.7813,765.9844 398.7813,764.7031 L398.7813,763.5469 Q398.7813,762.2188 399.3984,761.0703 Q400.0156,759.9219 401.1094,759.3047 Q402.2031,758.6875 403.4375,758.6875 Q404.1719,758.6875 404.8203,758.8516 Q405.4688,759.0156 406.0156,759.375 Z " fill="#000000"/><text fill="#000000" font-family="sans-serif" font-size="12" lengthAdjust="spacing" textLength="125" x="423.75" y="768.4102">xF1_check_connection</text><line style="stroke:#A80036;stroke-width:1.5;" x1="356" x2="584" y1="779.5" y2="779.5"/><rect fill="none" height="6" style="stroke:#C82930;stroke-width:1.0;" width="6" x="363" y="805.3359"/><text fill="#000000" font-family="sans-serif" font-size="11" lengthAdjust="spacing" textLength="117" x="375" y="812.7549">uint8_t acknowledgment</text><line style="stroke:#A80036;stroke-width:1.0;" x1="356" x2="453.5" y1="794.418" y2="794.418"/><text fill="#000000" font-family="sans-serif" font-size="11" lengthAdjust="spacing" textLength="33" x="453.5" y="798.4189">Private</text><line style="stroke:#A80036;stroke-width:1.0;" x1="486.5" x2="584" y1="794.418" y2="794.418"/><line style="stroke:#A80036;stroke-width:1.5;" x1="356" x2="584" y1="819.1719" y2="819.1719"/><ellipse cx="366" cy="848.0078" fill="#84BE84" rx="3" ry="3" style="stroke:#038048;stroke-width:1.0;"/><text fill="#000000" font-family="sans-serif" font-size="11" lengthAdjust="spacing" textLength="120" x="375" y="852.4268">xF1_check_connection()</text><ellipse cx="366" cy="861.8438" fill="#84BE84" rx="3" ry="3" style="stroke:#038048;stroke-width:1.0;"/><text fill="#000000" font-family="sans-serif" font-size="11" lengthAdjust="spacing" textLength="136" x="375" y="866.2627">int set_values(uint8_t value)</text><ellipse cx="366" cy="875.6797" fill="#84BE84" rx="3" ry="3" style="stroke:#038048;stroke-width:1.0;"/><text fill="#000000" font-family="sans-serif" font-size="11" lengthAdjust="spacing" textLength="47" x="375" y="880.0986">int reset()</text><ellipse cx="366" cy="889.5156" fill="#84BE84" rx="3" ry="3" style="stroke:#038048;stroke-width:1.0;"/><text fill="#000000" font-family="sans-serif" font-size="11" lengthAdjust="spacing" textLength="204" x="375" y="893.9346">buffer_t* encode(buffer_t* encoded_msg)</text><ellipse cx="366" cy="903.3516" fill="#84BE84" rx="3" ry="3" style="stroke:#038048;stroke-width:1.0;"/><text fill="#000000" font-family="sans-serif" font-size="11" lengthAdjust="spacing" textLength="134" x="375" y="907.7705">int decode(buffer_t* buffer)</text><line style="stroke:#A80036;stroke-width:1.0;" x1="356" x2="456" y1="834.0898" y2="834.0898"/><text fill="#000000" font-family="sans-serif" font-size="11" lengthAdjust="spacing" textLength="28" x="456" y="838.0908">Public</text><line style="stroke:#A80036;stroke-width:1.0;" x1="484" x2="584" y1="834.0898" y2="834.0898"/><!--MD5=[2e42295458bb0bec21c9622a623eb29e]
class Time--><rect codeLine="219" fill="#FEFECE" filter="url(#fnhnbloimdwvl)" height="144.8516" id="Time" style="stroke:#A80036;stroke-width:1.5;" width="106" x="147" y="1013"/><ellipse cx="182.7" cy="1029" fill="#ADD1B2" rx="11" ry="11" style="stroke:#A80036;stroke-width:1.0;"/><path d="M185.4656,1024.875 Q185.6219,1024.6563 185.8094,1024.5469 Q185.9969,1024.4375 186.2156,1024.4375 Q186.5906,1024.4375 186.825,1024.6953 Q187.0594,1024.9531 187.0594,1025.5625 L187.0594,1027.0156 Q187.0594,1027.625 186.825,1027.8906 Q186.5906,1028.1563 186.2156,1028.1563 Q185.8719,1028.1563 185.6688,1027.9531 Q185.4656,1027.7656 185.3563,1027.25 Q185.3094,1026.8906 185.1219,1026.7031 Q184.7938,1026.3281 184.1844,1026.1094 Q183.575,1025.8906 182.95,1025.8906 Q182.1844,1025.8906 181.5516,1026.2188 Q180.9188,1026.5469 180.4266,1027.2969 Q179.9344,1028.0469 179.9344,1029.0781 L179.9344,1030.1719 Q179.9344,1031.4063 180.825,1032.2266 Q181.7156,1033.0469 183.3094,1033.0469 Q184.2469,1033.0469 184.9031,1032.7969 Q185.2938,1032.6406 185.7156,1032.2031 Q185.9813,1031.9375 186.1297,1031.8594 Q186.2781,1031.7813 186.4813,1031.7813 Q186.8094,1031.7813 187.0672,1032.0391 Q187.325,1032.2969 187.325,1032.6406 Q187.325,1032.9844 186.9813,1033.3906 Q186.4813,1033.9688 185.6844,1034.2969 Q184.6063,1034.75 183.3094,1034.75 Q181.7938,1034.75 180.5906,1034.125 Q179.6063,1033.625 178.9188,1032.5547 Q178.2313,1031.4844 178.2313,1030.2031 L178.2313,1029.0469 Q178.2313,1027.7188 178.8484,1026.5703 Q179.4656,1025.4219 180.5594,1024.8047 Q181.6531,1024.1875 182.8875,1024.1875 Q183.6219,1024.1875 184.2703,1024.3516 Q184.9188,1024.5156 185.4656,1024.875 Z " fill="#000000"/><text fill="#000000" font-family="sans-serif" font-size="12" lengthAdjust="spacing" textLength="28" x="201.3" y="1033.9102">Time</text><line style="stroke:#A80036;stroke-width:1.5;" x1="148" x2="252" y1="1045" y2="1045"/><ellipse cx="158" cy="1056" rx="3" ry="3" style="stroke:#038048;stroke-width:1.0;fill:none;"/><text fill="#000000" font-family="sans-serif" font-size="11" lengthAdjust="spacing" textLength="22" x="167" y="1060.4189">hour</text><ellipse cx="158" cy="1069.8359" rx="3" ry="3" style="stroke:#038048;stroke-width:1.0;fill:none;"/><text fill="#000000" font-family="sans-serif" font-size="11" lengthAdjust="spacing" textLength="31" x="167" y="1074.2549">minute</text><ellipse cx="158" cy="1083.6719" rx="3" ry="3" style="stroke:#038048;stroke-width:1.0;fill:none;"/><text fill="#000000" font-family="sans-serif" font-size="11" lengthAdjust="spacing" textLength="36" x="167" y="1088.0908">second</text><ellipse cx="158" cy="1097.5078" rx="3" ry="3" style="stroke:#038048;stroke-width:1.0;fill:none;"/><text fill="#000000" font-family="sans-serif" font-size="11" lengthAdjust="spacing" textLength="56" x="167" y="1101.9268">mili_second</text><ellipse cx="158" cy="1111.3438" rx="3" ry="3" style="stroke:#038048;stroke-width:1.0;fill:none;"/><text fill="#000000" font-family="sans-serif" font-size="11" lengthAdjust="spacing" textLength="68" x="167" y="1115.7627">micro_second</text><line style="stroke:#A80036;stroke-width:1.5;" x1="148" x2="252" y1="1122.1797" y2="1122.1797"/><ellipse cx="158" cy="1133.1797" fill="#84BE84" rx="3" ry="3" style="stroke:#038048;stroke-width:1.0;"/><text fill="#000000" font-family="sans-serif" font-size="11" lengthAdjust="spacing" textLength="44" x="167" y="1137.5986">encode()</text><ellipse cx="158" cy="1147.0156" fill="#84BE84" rx="3" ry="3" style="stroke:#038048;stroke-width:1.0;"/><text fill="#000000" font-family="sans-serif" font-size="11" lengthAdjust="spacing" textLength="80" x="167" y="1151.4346">decode( buffer )</text><!--MD5=[28259ee0a324b3680af8e6871fafafa9]
class supported_cid_t--><rect codeLine="129" fill="#FEFECE" filter="url(#fnhnbloimdwvl)" height="48" id="supported_cid_t" style="stroke:#A80036;stroke-width:1.5;" width="121" x="763.5" y="807"/><ellipse cx="778.5" cy="823" fill="#EB937F" rx="11" ry="11" style="stroke:#A80036;stroke-width:1.0;"/><path d="M777.3594,823.7969 L777.3594,826.2969 L781.6875,826.2969 L781.6875,825.375 Q781.6875,824.7656 781.9297,824.5 Q782.1719,824.2344 782.5469,824.2344 Q782.9219,824.2344 783.1563,824.5 Q783.3906,824.7656 783.3906,825.375 L783.3906,828 L775.3906,828 Q774.7656,828 774.5078,827.7656 Q774.25,827.5313 774.25,827.1406 Q774.25,826.7656 774.5156,826.5313 Q774.7813,826.2969 775.3906,826.2969 L775.6563,826.2969 L775.6563,819.6406 L775.3906,819.6406 Q774.7656,819.6406 774.5078,819.4063 Q774.25,819.1719 774.25,818.7813 Q774.25,818.4063 774.5078,818.1719 Q774.7656,817.9375 775.3906,817.9375 L783.0156,817.9375 L783.0156,820.5313 Q783.0156,821.1406 782.7891,821.3984 Q782.5625,821.6563 782.1719,821.6563 Q781.7969,821.6563 781.5625,821.3984 Q781.3281,821.1406 781.3281,820.5313 L781.3281,819.6406 L777.3594,819.6406 L777.3594,822.0938 L778.8438,822.0938 Q778.8438,821.4375 778.9688,821.25 Q779.2344,820.8438 779.7031,820.8438 Q780.0781,820.8438 780.3125,821.1016 Q780.5469,821.3594 780.5469,821.9688 L780.5469,823.9375 Q780.5469,824.4844 780.4219,824.6719 Q780.1563,825.0625 779.7031,825.0625 Q779.2344,825.0625 778.9688,824.6563 Q778.8438,824.4688 778.8438,823.7969 L777.3594,823.7969 Z " fill="#000000"/><text fill="#000000" font-family="sans-serif" font-size="12" lengthAdjust="spacing" textLength="89" x="792.5" y="827.9102">supported_cid_t</text><line style="stroke:#A80036;stroke-width:1.5;" x1="764.5" x2="883.5" y1="839" y2="839"/><line style="stroke:#A80036;stroke-width:1.5;" x1="764.5" x2="883.5" y1="847" y2="847"/><!--MD5=[13f11d6ce3dd868243b5b3d4cc94b5a4]
class buffer_t--><rect codeLine="130" fill="#FEFECE" filter="url(#fnhnbloimdwvl)" height="48" id="buffer_t" style="stroke:#A80036;stroke-width:1.5;" width="73" x="655.5" y="807"/><ellipse cx="670.5" cy="823" fill="#ADD1B2" rx="11" ry="11" style="stroke:#A80036;stroke-width:1.0;"/><path d="M673.2656,818.875 Q673.4219,818.6563 673.6094,818.5469 Q673.7969,818.4375 674.0156,818.4375 Q674.3906,818.4375 674.625,818.6953 Q674.8594,818.9531 674.8594,819.5625 L674.8594,821.0156 Q674.8594,821.625 674.625,821.8906 Q674.3906,822.1563 674.0156,822.1563 Q673.6719,822.1563 673.4688,821.9531 Q673.2656,821.7656 673.1563,821.25 Q673.1094,820.8906 672.9219,820.7031 Q672.5938,820.3281 671.9844,820.1094 Q671.375,819.8906 670.75,819.8906 Q669.9844,819.8906 669.3516,820.2188 Q668.7188,820.5469 668.2266,821.2969 Q667.7344,822.0469 667.7344,823.0781 L667.7344,824.1719 Q667.7344,825.4063 668.625,826.2266 Q669.5156,827.0469 671.1094,827.0469 Q672.0469,827.0469 672.7031,826.7969 Q673.0938,826.6406 673.5156,826.2031 Q673.7813,825.9375 673.9297,825.8594 Q674.0781,825.7813 674.2813,825.7813 Q674.6094,825.7813 674.8672,826.0391 Q675.125,826.2969 675.125,826.6406 Q675.125,826.9844 674.7813,827.3906 Q674.2813,827.9688 673.4844,828.2969 Q672.4063,828.75 671.1094,828.75 Q669.5938,828.75 668.3906,828.125 Q667.4063,827.625 666.7188,826.5547 Q666.0313,825.4844 666.0313,824.2031 L666.0313,823.0469 Q666.0313,821.7188 666.6484,820.5703 Q667.2656,819.4219 668.3594,818.8047 Q669.4531,818.1875 670.6875,818.1875 Q671.4219,818.1875 672.0703,818.3516 Q672.7188,818.5156 673.2656,818.875 Z " fill="#000000"/><text fill="#000000" font-family="sans-serif" font-size="12" lengthAdjust="spacing" textLength="41" x="684.5" y="827.9102">buffer_t</text><line style="stroke:#A80036;stroke-width:1.5;" x1="656.5" x2="727.5" y1="839" y2="839"/><line style="stroke:#A80036;stroke-width:1.5;" x1="656.5" x2="727.5" y1="847" y2="847"/><!--MD5=[d1515d178fad2bf0f45f27ac1a5c0712]
class UDP_client--><rect codeLine="139" fill="#FEFECE" filter="url(#fnhnbloimdwvl)" height="48" id="UDP_client" style="stroke:#A80036;stroke-width:1.5;" width="94" x="1021" y="492.5"/><ellipse cx="1036" cy="508.5" fill="#ADD1B2" rx="11" ry="11" style="stroke:#A80036;stroke-width:1.0;"/><path d="M1038.7656,504.375 Q1038.9219,504.1563 1039.1094,504.0469 Q1039.2969,503.9375 1039.5156,503.9375 Q1039.8906,503.9375 1040.125,504.1953 Q1040.3594,504.4531 1040.3594,505.0625 L1040.3594,506.5156 Q1040.3594,507.125 1040.125,507.3906 Q1039.8906,507.6563 1039.5156,507.6563 Q1039.1719,507.6563 1038.9688,507.4531 Q1038.7656,507.2656 1038.6563,506.75 Q1038.6094,506.3906 1038.4219,506.2031 Q1038.0938,505.8281 1037.4844,505.6094 Q1036.875,505.3906 1036.25,505.3906 Q1035.4844,505.3906 1034.8516,505.7188 Q1034.2188,506.0469 1033.7266,506.7969 Q1033.2344,507.5469 1033.2344,508.5781 L1033.2344,509.6719 Q1033.2344,510.9063 1034.125,511.7266 Q1035.0156,512.5469 1036.6094,512.5469 Q1037.5469,512.5469 1038.2031,512.2969 Q1038.5938,512.1406 1039.0156,511.7031 Q1039.2813,511.4375 1039.4297,511.3594 Q1039.5781,511.2813 1039.7813,511.2813 Q1040.1094,511.2813 1040.3672,511.5391 Q1040.625,511.7969 1040.625,512.1406 Q1040.625,512.4844 1040.2813,512.8906 Q1039.7813,513.4688 1038.9844,513.7969 Q1037.9063,514.25 1036.6094,514.25 Q1035.0938,514.25 1033.8906,513.625 Q1032.9063,513.125 1032.2188,512.0547 Q1031.5313,510.9844 1031.5313,509.7031 L1031.5313,508.5469 Q1031.5313,507.2188 1032.1484,506.0703 Q1032.7656,504.9219 1033.8594,504.3047 Q1034.9531,503.6875 1036.1875,503.6875 Q1036.9219,503.6875 1037.5703,503.8516 Q1038.2188,504.0156 1038.7656,504.375 Z " fill="#000000"/><text fill="#000000" font-family="sans-serif" font-size="12" lengthAdjust="spacing" textLength="62" x="1050" y="513.4102">UDP_client</text><line style="stroke:#A80036;stroke-width:1.5;" x1="1022" x2="1114" y1="524.5" y2="524.5"/><line style="stroke:#A80036;stroke-width:1.5;" x1="1022" x2="1114" y1="532.5" y2="532.5"/><!--MD5=[33bda69caa66fb7c99eaf82bc543b74e]
class UDP_server--><rect codeLine="140" fill="#FEFECE" filter="url(#fnhnbloimdwvl)" height="48" id="UDP_server" style="stroke:#A80036;stroke-width:1.5;" width="99" x="1150.5" y="492.5"/><ellipse cx="1165.5" cy="508.5" fill="#ADD1B2" rx="11" ry="11" style="stroke:#A80036;stroke-width:1.0;"/><path d="M1168.2656,504.375 Q1168.4219,504.1563 1168.6094,504.0469 Q1168.7969,503.9375 1169.0156,503.9375 Q1169.3906,503.9375 1169.625,504.1953 Q1169.8594,504.4531 1169.8594,505.0625 L1169.8594,506.5156 Q1169.8594,507.125 1169.625,507.3906 Q1169.3906,507.6563 1169.0156,507.6563 Q1168.6719,507.6563 1168.4688,507.4531 Q1168.2656,507.2656 1168.1563,506.75 Q1168.1094,506.3906 1167.9219,506.2031 Q1167.5938,505.8281 1166.9844,505.6094 Q1166.375,505.3906 1165.75,505.3906 Q1164.9844,505.3906 1164.3516,505.7188 Q1163.7188,506.0469 1163.2266,506.7969 Q1162.7344,507.5469 1162.7344,508.5781 L1162.7344,509.6719 Q1162.7344,510.9063 1163.625,511.7266 Q1164.5156,512.5469 1166.1094,512.5469 Q1167.0469,512.5469 1167.7031,512.2969 Q1168.0938,512.1406 1168.5156,511.7031 Q1168.7813,511.4375 1168.9297,511.3594 Q1169.0781,511.2813 1169.2813,511.2813 Q1169.6094,511.2813 1169.8672,511.5391 Q1170.125,511.7969 1170.125,512.1406 Q1170.125,512.4844 1169.7813,512.8906 Q1169.2813,513.4688 1168.4844,513.7969 Q1167.4063,514.25 1166.1094,514.25 Q1164.5938,514.25 1163.3906,513.625 Q1162.4063,513.125 1161.7188,512.0547 Q1161.0313,510.9844 1161.0313,509.7031 L1161.0313,508.5469 Q1161.0313,507.2188 1161.6484,506.0703 Q1162.2656,504.9219 1163.3594,504.3047 Q1164.4531,503.6875 1165.6875,503.6875 Q1166.4219,503.6875 1167.0703,503.8516 Q1167.7188,504.0156 1168.2656,504.375 Z " fill="#000000"/><text fill="#000000" font-family="sans-serif" font-size="12" lengthAdjust="spacing" textLength="67" x="1179.5" y="513.4102">UDP_server</text><line style="stroke:#A80036;stroke-width:1.5;" x1="1151.5" x2="1248.5" y1="524.5" y2="524.5"/><line style="stroke:#A80036;stroke-width:1.5;" x1="1151.5" x2="1248.5" y1="532.5" y2="532.5"/><!--MD5=[819560a7ae37cec3121a30417fb867bb]
link SZP_master to sound_zone_protocol--><path codeLine="119" d="M606,238.93 C606,276.88 606,323.03 606,366.67 " fill="none" id="SZP_master-to-sound_zone_protocol" style="stroke:#A80036;stroke-width:1.0;"/><polygon fill="#FFFFFF" points="606,366.67,610,360.67,606,354.67,602,360.67,606,366.67" style="stroke:#A80036;stroke-width:1.0;"/><!--MD5=[8624d67ac5351fc796ea96f52dbebcea]
link SZP_slave to sound_zone_protocol--><path codeLine="120" d="M801.39,261.92 C776.09,294.75 747.74,331.55 720.63,366.72 " fill="none" id="SZP_slave-to-sound_zone_protocol" style="stroke:#A80036;stroke-width:1.0;"/><polygon fill="#FFFFFF" points="720.63,366.72,727.4611,364.4099,727.9561,357.2159,721.125,359.5259,720.63,366.72" style="stroke:#A80036;stroke-width:1.0;"/><!--MD5=[70f76a486a09aafcce574086cf8c40ea]
link sound_zone_protocol to x01_send_sound_packet--><path codeLine="123" d="M433.37,663.47 C432.24,664.32 431.12,665.16 430,666 C390.74,695.42 378.12,698.76 338,727 C335.47,728.78 332.93,730.58 330.36,732.4 " fill="none" id="sound_zone_protocol-to-x01_send_sound_packet" style="stroke:#A80036;stroke-width:1.0;"/><polygon fill="#A80036" points="319.76,739.99,326.9671,739.7483,329.5159,733.0027,322.3088,733.2444,319.76,739.99" style="stroke:#A80036;stroke-width:1.0;"/><!--MD5=[5b47c71b27b187e9f8e12adb66d980a4]
link sound_zone_protocol to xF1_check_connection--><path codeLine="124" d="M541.19,666.43 C531.02,689.8 520.75,713.38 511.3,735.09 " fill="none" id="sound_zone_protocol-to-xF1_check_connection" style="stroke:#A80036;stroke-width:1.0;"/><polygon fill="#A80036" points="505.99,747.29,512.0522,743.3849,510.7791,736.287,504.7169,740.1922,505.99,747.29" style="stroke:#A80036;stroke-width:1.0;"/><!--MD5=[d395419fccc967cdeb3695daafd26b11]
link sound_zone_protocol to szp_custom_types--><path codeLine="125" d="M613.26,666.27 C614.21,686.68 615.15,707.36 616,727 C616.48,738.085 616.9619,749.8419 617.4166,761.295 C617.4308,761.6529 617.445,762.0105 617.4591,762.3678 C617.4662,762.5465 617.4733,762.725 617.4803,762.9035 " fill="none" id="sound_zone_protocol-to-szp_custom_types" style="stroke:#A80036;stroke-width:1.0;"/><polygon fill="#A80036" points="617.4803,762.9035,621.2399,756.75,617.0058,750.9129,613.2462,757.0664,617.4803,762.9035" style="stroke:#A80036;stroke-width:1.0;"/><!--MD5=[e7b5e0386225a803588b87e31e913fd7]
link x01_send_sound_packet to Time--><path codeLine="126" d="M200,935.07 C200,956.53 200,978.93 200,999.65 " fill="none" id="x01_send_sound_packet-to-Time" style="stroke:#A80036;stroke-width:1.0;"/><polygon fill="#A80036" points="200,1012.65,204,1006.65,200,1000.65,196,1006.65,200,1012.65" style="stroke:#A80036;stroke-width:1.0;"/><text fill="#000000" font-family="sans-serif" font-size="13" lengthAdjust="spacing" textLength="120" x="201" y="979.4951">Not implemented yet</text><!--MD5=[d63e008edd9545a95f94b6841a9578f6]
link SZP_master to UDP_client--><path codeLine="136" d="M726.25,238.75 C745.07,249.59 764.68,259.78 784,268 C850.15,296.17 883.06,264.43 941,307 C1001.1,351.15 1038.58,433.11 1056.14,480.05 " fill="none" id="SZP_master-to-UDP_client" style="stroke:#A80036;stroke-width:1.0;"/><polygon fill="#A80036" points="1060.57,492.29,1062.2879,485.2865,1056.4839,481.0071,1054.766,488.0106,1060.57,492.29" style="stroke:#A80036;stroke-width:1.0;"/><!--MD5=[db18abf83db8f090ed0662d17841ad27]
link SZP_slave to UDP_server--><path codeLine="137" d="M964.53,187.15 C1019.33,211.95 1089.28,251.72 1133,307 C1173.52,358.24 1189.83,434.62 1196.18,479.31 " fill="none" id="SZP_slave-to-UDP_server" style="stroke:#A80036;stroke-width:1.0;"/><polygon fill="#A80036" points="1197.87,492.37,1201.065,485.9053,1196.3264,480.4697,1193.1314,486.9344,1197.87,492.37" style="stroke:#A80036;stroke-width:1.0;"/><!--MD5=[07710483832293abf0dd2ba664d240b4]
@startuml class_diagram

package SZP {
    SZP_master - -o sound_zone_protocol
    SZP_slave - -o sound_zone_protocol

    package sound_zone_protocol {
    sound_zone_protocol - -* x01_send_sound_packet
    sound_zone_protocol - -* xF1_check_connection
    sound_zone_protocol - -* szp_custom_types
    x01_send_sound_packet - -* Time : Not implemented yet

    package szp_custom_types{
        enum supported_cid_t{}
        class buffer_t{}
    }
    }
}

package DataTransport{
    SZP_master - -* UDP_client
    SZP_slave - -* UDP_server

    class UDP_client{}
    class UDP_server{}
}

class SZP_master{
    - -Private- -
    - UDP_client dt
    - uint8_t comm_buffer[]
    ___
    - -Public- -
    + SZP_master()
    + SZP_master(char *host, bool is_ip)
    + int check_connection()
    + int send_sound_packet(uint8_t* buffer, uint16_t packet_size)
}

class SZP_slave{
    - -Private- -
    - UDP_server dt
    - char* fifo_name
    - uint8_t comm_buffer[]
    ___
    - -Private- -
    - int encode_and_send()
    - int react_on_incoming()
    - -Public- -
    + SZP_slave(char* fifo_name)
    + ~SZP_slave()
    + int open_fifo()
    + int recieve()
}

class sound_zone_protocol {
    - -Protected- -
    # buffer_t* p_buffer
    # supported_cid_t cid
    # xF1_check_connection* check_connection
    # x01_send_sound_packet* send_sound_packet
    ___
    - -Private- -
    - static supported_cid_t initial_decode(uint8_t cid)
    - -Protected- -
    # uint16_t encode_and_send()
    - -Public- -
    + sound_zone_protocol()
    + sound_zone_protocol(uint8_t* comm_buffer, uint16_t buffer_size)
    + int set_fifo(int* fifo_fd)
    + int set_values(uint8_t value)
    + int set_values(uint8_t *values, uint16_t size)
    + buffer_t* encode(buffer_t* encoded_msg)
    + int decode(buffer_t* msg_to_decode)
}

class x01_send_sound_packet {
    - -Private- -
    - uint8_t* p_payload
    - uint16_t payload_size
    - int fifo_fd
    ___
    - -Public- -
    + x01_send_sound_packet()
    + int set_fifo(const int* fifo_fd)
    + int set_values(uint8_t *values, uint16_t size)
    + buffer_t* encode(buffer_t* encoded_msg)
    + void decode(buffer_t* msg_to_decode)
    + int reset()
}

class xF1_check_connection {
    - -Private- -
    - uint8_t acknowledgment
    ___
    - -Public- -
    + xF1_check_connection()
    + int set_values(uint8_t value)
    + int reset()
    + buffer_t* encode(buffer_t* encoded_msg)
    + int decode(buffer_t* buffer)
}

class Time {
    + hour
    + minute
    + second
    + mili_second
    + micro_second

    + encode()
    + decode( buffer )
}

@enduml

PlantUML version 1.2021.10(Mon Aug 30 15:43:48 CEST 2021)
(GPL source distribution)
Java Runtime: Java(TM) SE Runtime Environment
JVM: Java HotSpot(TM) 64-Bit Server VM
Default Encoding: Cp1252
Language: en
Country: US
--></g></svg>