<?xml version="1.0" encoding="UTF-8" standalone="no"?><svg xmlns="http://www.w3.org/2000/svg" xmlns:xlink="http://www.w3.org/1999/xlink" contentScriptType="application/ecmascript" contentStyleType="text/css" height="321px" preserveAspectRatio="none" style="width:554px;height:321px;background:#FFFFFF;" version="1.1" viewBox="0 0 554 321" width="554px" zoomAndPan="magnify"><defs><filter height="300%" id="fqz6gntgse3d7" width="300%" x="-1" y="-1"><feGaussianBlur result="blurOut" stdDeviation="2.0"/><feColorMatrix in="blurOut" result="blurOut2" type="matrix" values="0 0 0 0 0 0 0 0 0 0 0 0 0 0 0 0 0 0 .4 0"/><feOffset dx="4.0" dy="4.0" in="blurOut2" result="blurOut3"/><feBlend in="SourceGraphic" in2="blurOut3" mode="normal"/></filter></defs><g><!--MD5=[9b35566ef05d5cde0f42c237ca30e91b]
cluster szp_custom_types--><polygon fill="#FFFFFF" filter="url(#fqz6gntgse3d7)" points="16,6,151,6,158,29.6094,537,29.6094,537,314,16,314,16,6" style="stroke:#000000;stroke-width:1.5;"/><line style="stroke:#000000;stroke-width:1.5;" x1="16" x2="158" y1="29.6094" y2="29.6094"/><text fill="#000000" font-family="sans-serif" font-size="14" font-weight="bold" lengthAdjust="spacing" textLength="129" x="20" y="22.5332">szp_custom_types</text><!--MD5=[28259ee0a324b3680af8e6871fafafa9]
class supported_cid_t--><rect codeLine="245" fill="#FEFECE" filter="url(#fqz6gntgse3d7)" height="117.1797" id="supported_cid_t" style="stroke:#A80036;stroke-width:1.5;" width="150" x="371" y="111.5"/><ellipse cx="399.05" cy="127.5" fill="#EB937F" rx="11" ry="11" style="stroke:#A80036;stroke-width:1.0;"/><path d="M397.9094,128.2969 L397.9094,130.7969 L402.2375,130.7969 L402.2375,129.875 Q402.2375,129.2656 402.4797,129 Q402.7219,128.7344 403.0969,128.7344 Q403.4719,128.7344 403.7063,129 Q403.9406,129.2656 403.9406,129.875 L403.9406,132.5 L395.9406,132.5 Q395.3156,132.5 395.0578,132.2656 Q394.8,132.0313 394.8,131.6406 Q394.8,131.2656 395.0656,131.0313 Q395.3313,130.7969 395.9406,130.7969 L396.2063,130.7969 L396.2063,124.1406 L395.9406,124.1406 Q395.3156,124.1406 395.0578,123.9063 Q394.8,123.6719 394.8,123.2813 Q394.8,122.9063 395.0578,122.6719 Q395.3156,122.4375 395.9406,122.4375 L403.5656,122.4375 L403.5656,125.0313 Q403.5656,125.6406 403.3391,125.8984 Q403.1125,126.1563 402.7219,126.1563 Q402.3469,126.1563 402.1125,125.8984 Q401.8781,125.6406 401.8781,125.0313 L401.8781,124.1406 L397.9094,124.1406 L397.9094,126.5938 L399.3938,126.5938 Q399.3938,125.9375 399.5188,125.75 Q399.7844,125.3438 400.2531,125.3438 Q400.6281,125.3438 400.8625,125.6016 Q401.0969,125.8594 401.0969,126.4688 L401.0969,128.4375 Q401.0969,128.9844 400.9719,129.1719 Q400.7063,129.5625 400.2531,129.5625 Q399.7844,129.5625 399.5188,129.1563 Q399.3938,128.9688 399.3938,128.2969 L397.9094,128.2969 Z " fill="#000000"/><text fill="#000000" font-family="sans-serif" font-size="12" lengthAdjust="spacing" textLength="89" x="415.95" y="132.4102">supported_cid_t</text><line style="stroke:#A80036;stroke-width:1.5;" x1="372" x2="520" y1="143.5" y2="143.5"/><text fill="#000000" font-family="sans-serif" font-size="11" lengthAdjust="spacing" textLength="136" x="377" y="158.9189">cid_send_sound_packet = 1</text><text fill="#000000" font-family="sans-serif" font-size="11" lengthAdjust="spacing" textLength="76" x="377" y="172.7549">cid_enroll = 161</text><text fill="#000000" font-family="sans-serif" font-size="11" lengthAdjust="spacing" textLength="138" x="377" y="186.5908">cid_set_sound_format = 179</text><text fill="#000000" font-family="sans-serif" font-size="11" lengthAdjust="spacing" textLength="138" x="377" y="200.4268">cid_check_connection = 241</text><text fill="#000000" font-family="sans-serif" font-size="11" lengthAdjust="spacing" textLength="81" x="377" y="214.2627">cid_notSet = 255</text><line style="stroke:#A80036;stroke-width:1.5;" x1="372" x2="520" y1="220.6797" y2="220.6797"/><!--MD5=[13f11d6ce3dd868243b5b3d4cc94b5a4]
class buffer_t--><rect codeLine="253" fill="#FEFECE" filter="url(#fqz6gntgse3d7)" height="255.5391" id="buffer_t" style="stroke:#A80036;stroke-width:1.5;" width="303" x="32.5" y="42"/><ellipse cx="159.25" cy="58" fill="#ADD1B2" rx="11" ry="11" style="stroke:#A80036;stroke-width:1.0;"/><path d="M162.0156,53.875 Q162.1719,53.6563 162.3594,53.5469 Q162.5469,53.4375 162.7656,53.4375 Q163.1406,53.4375 163.375,53.6953 Q163.6094,53.9531 163.6094,54.5625 L163.6094,56.0156 Q163.6094,56.625 163.375,56.8906 Q163.1406,57.1563 162.7656,57.1563 Q162.4219,57.1563 162.2188,56.9531 Q162.0156,56.7656 161.9063,56.25 Q161.8594,55.8906 161.6719,55.7031 Q161.3438,55.3281 160.7344,55.1094 Q160.125,54.8906 159.5,54.8906 Q158.7344,54.8906 158.1016,55.2188 Q157.4688,55.5469 156.9766,56.2969 Q156.4844,57.0469 156.4844,58.0781 L156.4844,59.1719 Q156.4844,60.4063 157.375,61.2266 Q158.2656,62.0469 159.8594,62.0469 Q160.7969,62.0469 161.4531,61.7969 Q161.8438,61.6406 162.2656,61.2031 Q162.5313,60.9375 162.6797,60.8594 Q162.8281,60.7813 163.0313,60.7813 Q163.3594,60.7813 163.6172,61.0391 Q163.875,61.2969 163.875,61.6406 Q163.875,61.9844 163.5313,62.3906 Q163.0313,62.9688 162.2344,63.2969 Q161.1563,63.75 159.8594,63.75 Q158.3438,63.75 157.1406,63.125 Q156.1563,62.625 155.4688,61.5547 Q154.7813,60.4844 154.7813,59.2031 L154.7813,58.0469 Q154.7813,56.7188 155.3984,55.5703 Q156.0156,54.4219 157.1094,53.8047 Q158.2031,53.1875 159.4375,53.1875 Q160.1719,53.1875 160.8203,53.3516 Q161.4688,53.5156 162.0156,53.875 Z " fill="#000000"/><text fill="#000000" font-family="sans-serif" font-size="12" lengthAdjust="spacing" textLength="41" x="179.75" y="62.9102">buffer_t</text><line style="stroke:#A80036;stroke-width:1.5;" x1="33.5" x2="334.5" y1="74" y2="74"/><rect fill="none" height="6" style="stroke:#C82930;stroke-width:1.0;" width="6" x="40.5" y="99.8359"/><text fill="#000000" font-family="sans-serif" font-size="11" lengthAdjust="spacing" textLength="81" x="52.5" y="107.2549">uint8_t* p_buffer</text><rect fill="none" height="6" style="stroke:#C82930;stroke-width:1.0;" width="6" x="40.5" y="113.6719"/><text fill="#000000" font-family="sans-serif" font-size="11" lengthAdjust="spacing" textLength="97" x="52.5" y="121.0908">uint16_t buffer_size</text><rect fill="none" height="6" style="stroke:#C82930;stroke-width:1.0;" width="6" x="40.5" y="127.5078"/><text fill="#000000" font-family="sans-serif" font-size="11" lengthAdjust="spacing" textLength="96" x="52.5" y="134.9268">uint16_t write_head</text><rect fill="none" height="6" style="stroke:#C82930;stroke-width:1.0;" width="6" x="40.5" y="141.3438"/><text fill="#000000" font-family="sans-serif" font-size="11" lengthAdjust="spacing" textLength="93" x="52.5" y="148.7627">uint16_t read_head</text><line style="stroke:#A80036;stroke-width:1.0;" x1="33.5" x2="167.5" y1="88.918" y2="88.918"/><text fill="#000000" font-family="sans-serif" font-size="11" lengthAdjust="spacing" textLength="33" x="167.5" y="92.9189">Private</text><line style="stroke:#A80036;stroke-width:1.0;" x1="200.5" x2="334.5" y1="88.918" y2="88.918"/><ellipse cx="43.5" cy="176.0156" fill="#84BE84" rx="3" ry="3" style="stroke:#038048;stroke-width:1.0;"/><text fill="#000000" font-family="sans-serif" font-size="11" lengthAdjust="spacing" textLength="183" x="52.5" y="180.4346">buffer_t(uint8_t* buffer, uint16_t size)</text><ellipse cx="43.5" cy="189.8516" fill="#84BE84" rx="3" ry="3" style="stroke:#038048;stroke-width:1.0;"/><text fill="#000000" font-family="sans-serif" font-size="11" lengthAdjust="spacing" textLength="114" x="52.5" y="194.2705">int append(uint8_t byte)</text><ellipse cx="43.5" cy="203.6875" fill="#84BE84" rx="3" ry="3" style="stroke:#038048;stroke-width:1.0;"/><text fill="#000000" font-family="sans-serif" font-size="11" lengthAdjust="spacing" textLength="277" x="52.5" y="208.1064">int append(const uint8_t* buffer, uint16_t bytes_to_write)</text><ellipse cx="43.5" cy="217.5234" fill="#84BE84" rx="3" ry="3" style="stroke:#038048;stroke-width:1.0;"/><text fill="#000000" font-family="sans-serif" font-size="11" lengthAdjust="spacing" textLength="131" x="52.5" y="221.9424">int read_byte(uint8_t* byte)</text><ellipse cx="43.5" cy="231.3594" fill="#84BE84" rx="3" ry="3" style="stroke:#038048;stroke-width:1.0;"/><text fill="#000000" font-family="sans-serif" font-size="11" lengthAdjust="spacing" textLength="242" x="52.5" y="235.7783">int get_buffer_rest(uint8_t** buffer, uint16_t* size)</text><ellipse cx="43.5" cy="245.1953" fill="#84BE84" rx="3" ry="3" style="stroke:#038048;stroke-width:1.0;"/><text fill="#000000" font-family="sans-serif" font-size="11" lengthAdjust="spacing" textLength="47" x="52.5" y="249.6143">int reset()</text><ellipse cx="43.5" cy="259.0313" fill="#84BE84" rx="3" ry="3" style="stroke:#038048;stroke-width:1.0;"/><text fill="#000000" font-family="sans-serif" font-size="11" lengthAdjust="spacing" textLength="163" x="52.5" y="263.4502">int set_write_head(uint16_t head)</text><ellipse cx="43.5" cy="272.8672" fill="#84BE84" rx="3" ry="3" style="stroke:#038048;stroke-width:1.0;"/><text fill="#000000" font-family="sans-serif" font-size="11" lengthAdjust="spacing" textLength="125" x="52.5" y="277.2861">uint16_t get_write_head()</text><ellipse cx="43.5" cy="286.7031" fill="#84BE84" rx="3" ry="3" style="stroke:#038048;stroke-width:1.0;"/><text fill="#000000" font-family="sans-serif" font-size="11" lengthAdjust="spacing" textLength="79" x="52.5" y="291.1221">int print_buffer()</text><line style="stroke:#A80036;stroke-width:1.0;" x1="33.5" x2="170" y1="162.0977" y2="162.0977"/><text fill="#000000" font-family="sans-serif" font-size="11" lengthAdjust="spacing" textLength="28" x="170" y="166.0986">Public</text><line style="stroke:#A80036;stroke-width:1.0;" x1="198" x2="334.5" y1="162.0977" y2="162.0977"/><!--MD5=[28390e690eca401206d7ee129bddec85]
@startuml class_diagram_custom_types

package szp_custom_types{
        
        enum supported_cid_t{
            cid_send_sound_packet = 1
            cid_enroll = 161
            cid_set_sound_format = 179
            cid_check_connection = 241
            cid_notSet = 255
        }

        class buffer_t{
            - -Private- -
            - uint8_t* p_buffer
            - uint16_t buffer_size
            - uint16_t write_head
            - uint16_t read_head
            - -Public- -
            + buffer_t(uint8_t* buffer, uint16_t size)
            + int append(uint8_t byte)
            + int append(const uint8_t* buffer, uint16_t bytes_to_write)
            + int read_byte(uint8_t* byte)
            + int get_buffer_rest(uint8_t** buffer, uint16_t* size)
            + int reset()
            + int set_write_head(uint16_t head)
            + uint16_t get_write_head()
            + int print_buffer()
        }
    }

@enduml

PlantUML version 1.2021.10(Mon Aug 30 15:43:48 CEST 2021)
(GPL source distribution)
Java Runtime: Java(TM) SE Runtime Environment
JVM: Java HotSpot(TM) 64-Bit Server VM
Default Encoding: Cp1252
Language: en
Country: US
--></g></svg>