<?xml version="1.0" encoding="UTF-8" standalone="no"?><svg xmlns="http://www.w3.org/2000/svg" xmlns:xlink="http://www.w3.org/1999/xlink" contentScriptType="application/ecmascript" contentStyleType="text/css" height="1012px" preserveAspectRatio="none" style="width:964px;height:1012px;background:#FFFFFF;" version="1.1" viewBox="0 0 964 1012" width="964px" zoomAndPan="magnify"><defs><filter height="300%" id="ftokqhaavbmv" width="300%" x="-1" y="-1"><feGaussianBlur result="blurOut" stdDeviation="2.0"/><feColorMatrix in="blurOut" result="blurOut2" type="matrix" values="0 0 0 0 0 0 0 0 0 0 0 0 0 0 0 0 0 0 .4 0"/><feOffset dx="4.0" dy="4.0" in="blurOut2" result="blurOut3"/><feBlend in="SourceGraphic" in2="blurOut3" mode="normal"/></filter></defs><g><!--MD5=[464d47994f1496b52e3bfc95234b1d6a]
cluster soundzone_protocol--><polygon fill="#FFFFFF" filter="url(#ftokqhaavbmv)" points="16,6,167,6,174,29.6094,662,29.6094,662,1005,16,1005,16,6" style="stroke:#000000;stroke-width:1.5;"/><line style="stroke:#000000;stroke-width:1.5;" x1="16" x2="174" y1="29.6094" y2="29.6094"/><text fill="#000000" font-family="sans-serif" font-size="14" font-weight="bold" lengthAdjust="spacing" textLength="145" x="20" y="22.5332">soundzone_protocol</text><!--MD5=[e9105e4432f515e110341594dfa4bfca]
cluster szp--><polygon fill="#FFFFFF" filter="url(#ftokqhaavbmv)" points="40,306,70,306,77,329.6094,638,329.6094,638,981,40,981,40,306" style="stroke:#000000;stroke-width:1.5;"/><line style="stroke:#000000;stroke-width:1.5;" x1="40" x2="77" y1="329.6094" y2="329.6094"/><text fill="#000000" font-family="sans-serif" font-size="14" font-weight="bold" lengthAdjust="spacing" textLength="24" x="44" y="322.5332">szp</text><!--MD5=[79a26e4ac8bd5100d7277bc5c79d8e58]
cluster DataTransport--><polygon fill="#FFFFFF" filter="url(#ftokqhaavbmv)" points="686,438.5,791,438.5,798,462.1094,947,462.1094,947,538.5,686,538.5,686,438.5" style="stroke:#000000;stroke-width:1.5;"/><line style="stroke:#000000;stroke-width:1.5;" x1="686" x2="798" y1="462.1094" y2="462.1094"/><text fill="#000000" font-family="sans-serif" font-size="14" font-weight="bold" lengthAdjust="spacing" textLength="99" x="690" y="455.0332">DataTransport</text><!--MD5=[358141ac238f2a25e6d946b89ad047f2]
class SZP_master--><rect codeLine="116" fill="#FEFECE" filter="url(#ftokqhaavbmv)" height="166.6875" id="SZP_master" style="stroke:#A80036;stroke-width:1.5;" width="292" x="354" y="78.5"/><ellipse cx="461.25" cy="94.5" fill="#ADD1B2" rx="11" ry="11" style="stroke:#A80036;stroke-width:1.0;"/><path d="M464.0156,90.375 Q464.1719,90.1563 464.3594,90.0469 Q464.5469,89.9375 464.7656,89.9375 Q465.1406,89.9375 465.375,90.1953 Q465.6094,90.4531 465.6094,91.0625 L465.6094,92.5156 Q465.6094,93.125 465.375,93.3906 Q465.1406,93.6563 464.7656,93.6563 Q464.4219,93.6563 464.2188,93.4531 Q464.0156,93.2656 463.9063,92.75 Q463.8594,92.3906 463.6719,92.2031 Q463.3438,91.8281 462.7344,91.6094 Q462.125,91.3906 461.5,91.3906 Q460.7344,91.3906 460.1016,91.7188 Q459.4688,92.0469 458.9766,92.7969 Q458.4844,93.5469 458.4844,94.5781 L458.4844,95.6719 Q458.4844,96.9063 459.375,97.7266 Q460.2656,98.5469 461.8594,98.5469 Q462.7969,98.5469 463.4531,98.2969 Q463.8438,98.1406 464.2656,97.7031 Q464.5313,97.4375 464.6797,97.3594 Q464.8281,97.2813 465.0313,97.2813 Q465.3594,97.2813 465.6172,97.5391 Q465.875,97.7969 465.875,98.1406 Q465.875,98.4844 465.5313,98.8906 Q465.0313,99.4688 464.2344,99.7969 Q463.1563,100.25 461.8594,100.25 Q460.3438,100.25 459.1406,99.625 Q458.1563,99.125 457.4688,98.0547 Q456.7813,96.9844 456.7813,95.7031 L456.7813,94.5469 Q456.7813,93.2188 457.3984,92.0703 Q458.0156,90.9219 459.1094,90.3047 Q460.2031,89.6875 461.4375,89.6875 Q462.1719,89.6875 462.8203,89.8516 Q463.4688,90.0156 464.0156,90.375 Z " fill="#000000"/><text fill="#000000" font-family="sans-serif" font-size="12" lengthAdjust="spacing" textLength="69" x="481.75" y="99.4102">SZP_master</text><line style="stroke:#A80036;stroke-width:1.5;" x1="355" x2="645" y1="110.5" y2="110.5"/><rect fill="none" height="6" style="stroke:#C82930;stroke-width:1.0;" width="6" x="362" y="136.3359"/><text fill="#000000" font-family="sans-serif" font-size="11" lengthAdjust="spacing" textLength="63" x="374" y="143.7549">UDP_client dt</text><rect fill="none" height="6" style="stroke:#C82930;stroke-width:1.0;" width="6" x="362" y="150.1719"/><text fill="#000000" font-family="sans-serif" font-size="11" lengthAdjust="spacing" textLength="105" x="374" y="157.5908">uint8_t comm_buffer[]</text><line style="stroke:#A80036;stroke-width:1.0;" x1="355" x2="483.5" y1="125.418" y2="125.418"/><text fill="#000000" font-family="sans-serif" font-size="11" lengthAdjust="spacing" textLength="33" x="483.5" y="129.4189">Private</text><line style="stroke:#A80036;stroke-width:1.0;" x1="516.5" x2="645" y1="125.418" y2="125.418"/><line style="stroke:#A80036;stroke-width:1.5;" x1="355" x2="645" y1="164.0078" y2="164.0078"/><ellipse cx="365" cy="192.8438" fill="#84BE84" rx="3" ry="3" style="stroke:#038048;stroke-width:1.0;"/><text fill="#000000" font-family="sans-serif" font-size="11" lengthAdjust="spacing" textLength="67" x="374" y="197.2627">SZP_master()</text><ellipse cx="365" cy="206.6797" fill="#84BE84" rx="3" ry="3" style="stroke:#038048;stroke-width:1.0;"/><text fill="#000000" font-family="sans-serif" font-size="11" lengthAdjust="spacing" textLength="122" x="374" y="211.0986">SZP_master(char *, bool)</text><ellipse cx="365" cy="220.5156" fill="#84BE84" rx="3" ry="3" style="stroke:#038048;stroke-width:1.0;"/><text fill="#000000" font-family="sans-serif" font-size="11" lengthAdjust="spacing" textLength="110" x="374" y="224.9346">int check_connection()</text><ellipse cx="365" cy="234.3516" fill="#84BE84" rx="3" ry="3" style="stroke:#038048;stroke-width:1.0;"/><text fill="#000000" font-family="sans-serif" font-size="11" lengthAdjust="spacing" textLength="266" x="374" y="238.7705">int send_sound_packet(uint8_t *, uint16_t, long long int)</text><line style="stroke:#A80036;stroke-width:1.0;" x1="355" x2="486" y1="178.9258" y2="178.9258"/><text fill="#000000" font-family="sans-serif" font-size="11" lengthAdjust="spacing" textLength="28" x="486" y="182.9268">Public</text><line style="stroke:#A80036;stroke-width:1.0;" x1="514" x2="645" y1="178.9258" y2="178.9258"/><!--MD5=[f98b2bde8a9293bad7a4d96faca01189]
class SZP_slave--><rect codeLine="128" fill="#FEFECE" filter="url(#ftokqhaavbmv)" height="239.8672" id="SZP_slave" style="stroke:#A80036;stroke-width:1.5;" width="152" x="167" y="42"/><ellipse cx="209.45" cy="58" fill="#ADD1B2" rx="11" ry="11" style="stroke:#A80036;stroke-width:1.0;"/><path d="M212.2156,53.875 Q212.3719,53.6563 212.5594,53.5469 Q212.7469,53.4375 212.9656,53.4375 Q213.3406,53.4375 213.575,53.6953 Q213.8094,53.9531 213.8094,54.5625 L213.8094,56.0156 Q213.8094,56.625 213.575,56.8906 Q213.3406,57.1563 212.9656,57.1563 Q212.6219,57.1563 212.4188,56.9531 Q212.2156,56.7656 212.1063,56.25 Q212.0594,55.8906 211.8719,55.7031 Q211.5438,55.3281 210.9344,55.1094 Q210.325,54.8906 209.7,54.8906 Q208.9344,54.8906 208.3016,55.2188 Q207.6688,55.5469 207.1766,56.2969 Q206.6844,57.0469 206.6844,58.0781 L206.6844,59.1719 Q206.6844,60.4063 207.575,61.2266 Q208.4656,62.0469 210.0594,62.0469 Q210.9969,62.0469 211.6531,61.7969 Q212.0438,61.6406 212.4656,61.2031 Q212.7313,60.9375 212.8797,60.8594 Q213.0281,60.7813 213.2313,60.7813 Q213.5594,60.7813 213.8172,61.0391 Q214.075,61.2969 214.075,61.6406 Q214.075,61.9844 213.7313,62.3906 Q213.2313,62.9688 212.4344,63.2969 Q211.3563,63.75 210.0594,63.75 Q208.5438,63.75 207.3406,63.125 Q206.3563,62.625 205.6688,61.5547 Q204.9813,60.4844 204.9813,59.2031 L204.9813,58.0469 Q204.9813,56.7188 205.5984,55.5703 Q206.2156,54.4219 207.3094,53.8047 Q208.4031,53.1875 209.6375,53.1875 Q210.3719,53.1875 211.0203,53.3516 Q211.6688,53.5156 212.2156,53.875 Z " fill="#000000"/><text fill="#000000" font-family="sans-serif" font-size="12" lengthAdjust="spacing" textLength="59" x="229.55" y="62.9102">SZP_slave</text><line style="stroke:#A80036;stroke-width:1.5;" x1="168" x2="318" y1="74" y2="74"/><rect fill="none" height="6" style="stroke:#C82930;stroke-width:1.0;" width="6" x="175" y="99.8359"/><text fill="#000000" font-family="sans-serif" font-size="11" lengthAdjust="spacing" textLength="70" x="187" y="107.2549">UDP_server dt</text><rect fill="none" height="6" style="stroke:#C82930;stroke-width:1.0;" width="6" x="175" y="113.6719"/><text fill="#000000" font-family="sans-serif" font-size="11" lengthAdjust="spacing" textLength="77" x="187" y="121.0908">char* fifo_name</text><rect fill="none" height="6" style="stroke:#C82930;stroke-width:1.0;" width="6" x="175" y="127.5078"/><text fill="#000000" font-family="sans-serif" font-size="11" lengthAdjust="spacing" textLength="105" x="187" y="134.9268">uint8_t comm_buffer[]</text><line style="stroke:#A80036;stroke-width:1.0;" x1="168" x2="226.5" y1="88.918" y2="88.918"/><text fill="#000000" font-family="sans-serif" font-size="11" lengthAdjust="spacing" textLength="33" x="226.5" y="92.9189">Private</text><line style="stroke:#A80036;stroke-width:1.0;" x1="259.5" x2="318" y1="88.918" y2="88.918"/><line style="stroke:#A80036;stroke-width:1.5;" x1="168" x2="318" y1="141.3438" y2="141.3438"/><rect fill="#F24D5C" height="6" style="stroke:#C82930;stroke-width:1.0;" width="6" x="175" y="167.1797"/><text fill="#000000" font-family="sans-serif" font-size="11" lengthAdjust="spacing" textLength="112" x="187" y="174.5986">int encode_and_send()</text><rect fill="#F24D5C" height="6" style="stroke:#C82930;stroke-width:1.0;" width="6" x="175" y="181.0156"/><text fill="#000000" font-family="sans-serif" font-size="11" lengthAdjust="spacing" textLength="113" x="187" y="188.4346">int react_on_incoming()</text><line style="stroke:#A80036;stroke-width:1.0;" x1="168" x2="226.5" y1="156.2617" y2="156.2617"/><text fill="#000000" font-family="sans-serif" font-size="11" lengthAdjust="spacing" textLength="33" x="226.5" y="160.2627">Private</text><line style="stroke:#A80036;stroke-width:1.0;" x1="259.5" x2="318" y1="156.2617" y2="156.2617"/><ellipse cx="178" cy="215.6875" fill="#84BE84" rx="3" ry="3" style="stroke:#038048;stroke-width:1.0;"/><text fill="#000000" font-family="sans-serif" font-size="11" lengthAdjust="spacing" textLength="89" x="187" y="220.1064">SZP_slave(char *)</text><ellipse cx="178" cy="229.5234" fill="#84BE84" rx="3" ry="3" style="stroke:#038048;stroke-width:1.0;"/><text fill="#000000" font-family="sans-serif" font-size="11" lengthAdjust="spacing" textLength="66" x="187" y="233.9424">~SZP_slave()</text><ellipse cx="178" cy="243.3594" fill="#84BE84" rx="3" ry="3" style="stroke:#038048;stroke-width:1.0;"/><text fill="#000000" font-family="sans-serif" font-size="11" lengthAdjust="spacing" textLength="68" x="187" y="247.7783">int open_fifo()</text><ellipse cx="178" cy="257.1953" fill="#84BE84" rx="3" ry="3" style="stroke:#038048;stroke-width:1.0;"/><text fill="#000000" font-family="sans-serif" font-size="11" lengthAdjust="spacing" textLength="58" x="187" y="261.6143">int recieve()</text><ellipse cx="178" cy="271.0313" fill="#84BE84" rx="3" ry="3" style="stroke:#038048;stroke-width:1.0;"/><text fill="#000000" font-family="sans-serif" font-size="11" lengthAdjust="spacing" textLength="126" x="187" y="275.4502">int get_time(long long int *)</text><line style="stroke:#A80036;stroke-width:1.0;" x1="168" x2="229" y1="201.7695" y2="201.7695"/><text fill="#000000" font-family="sans-serif" font-size="11" lengthAdjust="spacing" textLength="28" x="229" y="205.7705">Public</text><line style="stroke:#A80036;stroke-width:1.0;" x1="257" x2="318" y1="201.7695" y2="201.7695"/><!--MD5=[3f5eefc5f3711a7083660a5f6892b877]
class soundzone_protocol--><rect codeLine="147" fill="#FEFECE" filter="url(#ftokqhaavbmv)" height="313.0469" id="soundzone_protocol" style="stroke:#A80036;stroke-width:1.5;" width="253" x="229.5" y="342"/><ellipse cx="295.75" cy="358" fill="#ADD1B2" rx="11" ry="11" style="stroke:#A80036;stroke-width:1.0;"/><path d="M298.5156,353.875 Q298.6719,353.6563 298.8594,353.5469 Q299.0469,353.4375 299.2656,353.4375 Q299.6406,353.4375 299.875,353.6953 Q300.1094,353.9531 300.1094,354.5625 L300.1094,356.0156 Q300.1094,356.625 299.875,356.8906 Q299.6406,357.1563 299.2656,357.1563 Q298.9219,357.1563 298.7188,356.9531 Q298.5156,356.7656 298.4063,356.25 Q298.3594,355.8906 298.1719,355.7031 Q297.8438,355.3281 297.2344,355.1094 Q296.625,354.8906 296,354.8906 Q295.2344,354.8906 294.6016,355.2188 Q293.9688,355.5469 293.4766,356.2969 Q292.9844,357.0469 292.9844,358.0781 L292.9844,359.1719 Q292.9844,360.4063 293.875,361.2266 Q294.7656,362.0469 296.3594,362.0469 Q297.2969,362.0469 297.9531,361.7969 Q298.3438,361.6406 298.7656,361.2031 Q299.0313,360.9375 299.1797,360.8594 Q299.3281,360.7813 299.5313,360.7813 Q299.8594,360.7813 300.1172,361.0391 Q300.375,361.2969 300.375,361.6406 Q300.375,361.9844 300.0313,362.3906 Q299.5313,362.9688 298.7344,363.2969 Q297.6563,363.75 296.3594,363.75 Q294.8438,363.75 293.6406,363.125 Q292.6563,362.625 291.9688,361.5547 Q291.2813,360.4844 291.2813,359.2031 L291.2813,358.0469 Q291.2813,356.7188 291.8984,355.5703 Q292.5156,354.4219 293.6094,353.8047 Q294.7031,353.1875 295.9375,353.1875 Q296.6719,353.1875 297.3203,353.3516 Q297.9688,353.5156 298.5156,353.875 Z " fill="#000000"/><text fill="#000000" font-family="sans-serif" font-size="12" lengthAdjust="spacing" textLength="112" x="316.25" y="362.9102">soundzone_protocol</text><line style="stroke:#A80036;stroke-width:1.5;" x1="230.5" x2="481.5" y1="374" y2="374"/><polygon fill="none" points="240.5,397.8359,244.5,401.8359,240.5,405.8359,236.5,401.8359" style="stroke:#B38D22;stroke-width:1.0;"/><text fill="#000000" font-family="sans-serif" font-size="11" lengthAdjust="spacing" textLength="88" x="249.5" y="407.2549">buffer_t* p_buffer</text><polygon fill="none" points="240.5,411.6719,244.5,415.6719,240.5,419.6719,236.5,415.6719" style="stroke:#B38D22;stroke-width:1.0;"/><text fill="#000000" font-family="sans-serif" font-size="11" lengthAdjust="spacing" textLength="95" x="249.5" y="421.0908">supported_cid_t cid</text><polygon fill="none" points="240.5,425.5078,244.5,429.5078,240.5,433.5078,236.5,429.5078" style="stroke:#B38D22;stroke-width:1.0;"/><text fill="#000000" font-family="sans-serif" font-size="11" lengthAdjust="spacing" textLength="207" x="249.5" y="434.9268">xF1_check_connection* check_connection</text><polygon fill="none" points="240.5,439.3438,244.5,443.3438,240.5,447.3438,236.5,443.3438" style="stroke:#B38D22;stroke-width:1.0;"/><text fill="#000000" font-family="sans-serif" font-size="11" lengthAdjust="spacing" textLength="227" x="249.5" y="448.7627">x01_send_sound_packet* send_sound_packet</text><line style="stroke:#A80036;stroke-width:1.0;" x1="230.5" x2="333" y1="388.918" y2="388.918"/><text fill="#000000" font-family="sans-serif" font-size="11" lengthAdjust="spacing" textLength="46" x="333" y="392.9189">Protected</text><line style="stroke:#A80036;stroke-width:1.0;" x1="379" x2="481.5" y1="388.918" y2="388.918"/><line style="stroke:#A80036;stroke-width:1.5;" x1="230.5" x2="481.5" y1="455.1797" y2="455.1797"/><rect fill="#F24D5C" height="6" style="stroke:#C82930;stroke-width:1.0;" width="6" x="237.5" y="481.0156"/><text fill="#000000" font-family="sans-serif" font-size="11" lengthAdjust="spacing" textLength="215" x="249.5" y="488.4346">static supported_cid_t initial_decode(uint8_t)</text><line style="stroke:#A80036;stroke-width:1.0;" x1="230.5" x2="339.5" y1="470.0977" y2="470.0977"/><text fill="#000000" font-family="sans-serif" font-size="11" lengthAdjust="spacing" textLength="33" x="339.5" y="474.0986">Private</text><line style="stroke:#A80036;stroke-width:1.0;" x1="372.5" x2="481.5" y1="470.0977" y2="470.0977"/><polygon fill="#FFFF44" points="240.5,510.6875,244.5,514.6875,240.5,518.6875,236.5,514.6875" style="stroke:#B38D22;stroke-width:1.0;"/><text fill="#000000" font-family="sans-serif" font-size="11" lengthAdjust="spacing" textLength="139" x="249.5" y="520.1064">uint16_t encode_and_send()</text><line style="stroke:#A80036;stroke-width:1.0;" x1="230.5" x2="333" y1="501.7695" y2="501.7695"/><text fill="#000000" font-family="sans-serif" font-size="11" lengthAdjust="spacing" textLength="46" x="333" y="505.7705">Protected</text><line style="stroke:#A80036;stroke-width:1.0;" x1="379" x2="481.5" y1="501.7695" y2="501.7695"/><ellipse cx="240.5" cy="547.3594" fill="#84BE84" rx="3" ry="3" style="stroke:#038048;stroke-width:1.0;"/><text fill="#000000" font-family="sans-serif" font-size="11" lengthAdjust="spacing" textLength="107" x="249.5" y="551.7783">soundzone_protocol()</text><ellipse cx="240.5" cy="561.1953" fill="#84BE84" rx="3" ry="3" style="stroke:#038048;stroke-width:1.0;"/><text fill="#000000" font-family="sans-serif" font-size="11" lengthAdjust="spacing" textLength="190" x="249.5" y="565.6143">soundzone_protocol(uint8_t *, uint16_t)</text><ellipse cx="240.5" cy="575.0313" fill="#84BE84" rx="3" ry="3" style="stroke:#038048;stroke-width:1.0;"/><text fill="#000000" font-family="sans-serif" font-size="11" lengthAdjust="spacing" textLength="77" x="249.5" y="579.4502">int set_fifo(int *)</text><ellipse cx="240.5" cy="588.8672" fill="#84BE84" rx="3" ry="3" style="stroke:#038048;stroke-width:1.0;"/><text fill="#000000" font-family="sans-serif" font-size="11" lengthAdjust="spacing" textLength="107" x="249.5" y="593.2861">int set_values(uint8_t)</text><ellipse cx="240.5" cy="602.7031" fill="#84BE84" rx="3" ry="3" style="stroke:#038048;stroke-width:1.0;"/><text fill="#000000" font-family="sans-serif" font-size="11" lengthAdjust="spacing" textLength="158" x="249.5" y="607.1221">int set_values(uint8_t *, uint16_t)</text><ellipse cx="240.5" cy="616.5391" fill="#84BE84" rx="3" ry="3" style="stroke:#038048;stroke-width:1.0;"/><text fill="#000000" font-family="sans-serif" font-size="11" lengthAdjust="spacing" textLength="139" x="249.5" y="620.958">int get_values(long long int *)</text><ellipse cx="240.5" cy="630.375" fill="#84BE84" rx="3" ry="3" style="stroke:#038048;stroke-width:1.0;"/><text fill="#000000" font-family="sans-serif" font-size="11" lengthAdjust="spacing" textLength="136" x="249.5" y="634.7939">buffer_t* encode(buffer_t *)</text><ellipse cx="240.5" cy="644.2109" fill="#84BE84" rx="3" ry="3" style="stroke:#038048;stroke-width:1.0;"/><text fill="#000000" font-family="sans-serif" font-size="11" lengthAdjust="spacing" textLength="104" x="249.5" y="648.6299">int decode(buffer_t *)</text><line style="stroke:#A80036;stroke-width:1.0;" x1="230.5" x2="342" y1="533.4414" y2="533.4414"/><text fill="#000000" font-family="sans-serif" font-size="11" lengthAdjust="spacing" textLength="28" x="342" y="537.4424">Public</text><line style="stroke:#A80036;stroke-width:1.0;" x1="370" x2="481.5" y1="533.4414" y2="533.4414"/><!--MD5=[5b296fcb86e66f3b2b94a895ed44520a]
class x01_send_sound_packet--><rect codeLine="169" fill="#FEFECE" filter="url(#ftokqhaavbmv)" height="249.7031" id="x01_send_sound_packet" style="stroke:#A80036;stroke-width:1.5;" width="184" x="56" y="715"/><ellipse cx="76.85" cy="731" fill="#ADD1B2" rx="11" ry="11" style="stroke:#A80036;stroke-width:1.0;"/><path d="M79.6156,726.875 Q79.7719,726.6563 79.9594,726.5469 Q80.1469,726.4375 80.3656,726.4375 Q80.7406,726.4375 80.975,726.6953 Q81.2094,726.9531 81.2094,727.5625 L81.2094,729.0156 Q81.2094,729.625 80.975,729.8906 Q80.7406,730.1563 80.3656,730.1563 Q80.0219,730.1563 79.8188,729.9531 Q79.6156,729.7656 79.5063,729.25 Q79.4594,728.8906 79.2719,728.7031 Q78.9438,728.3281 78.3344,728.1094 Q77.725,727.8906 77.1,727.8906 Q76.3344,727.8906 75.7016,728.2188 Q75.0688,728.5469 74.5766,729.2969 Q74.0844,730.0469 74.0844,731.0781 L74.0844,732.1719 Q74.0844,733.4063 74.975,734.2266 Q75.8656,735.0469 77.4594,735.0469 Q78.3969,735.0469 79.0531,734.7969 Q79.4438,734.6406 79.8656,734.2031 Q80.1313,733.9375 80.2797,733.8594 Q80.4281,733.7813 80.6313,733.7813 Q80.9594,733.7813 81.2172,734.0391 Q81.475,734.2969 81.475,734.6406 Q81.475,734.9844 81.1313,735.3906 Q80.6313,735.9688 79.8344,736.2969 Q78.7563,736.75 77.4594,736.75 Q75.9438,736.75 74.7406,736.125 Q73.7563,735.625 73.0688,734.5547 Q72.3813,733.4844 72.3813,732.2031 L72.3813,731.0469 Q72.3813,729.7188 72.9984,728.5703 Q73.6156,727.4219 74.7094,726.8047 Q75.8031,726.1875 77.0375,726.1875 Q77.7719,726.1875 78.4203,726.3516 Q79.0688,726.5156 79.6156,726.875 Z " fill="#000000"/><text fill="#000000" font-family="sans-serif" font-size="12" lengthAdjust="spacing" textLength="139" x="92.15" y="735.9102">x01_send_sound_packet</text><line style="stroke:#A80036;stroke-width:1.5;" x1="57" x2="239" y1="747" y2="747"/><rect fill="none" height="6" style="stroke:#C82930;stroke-width:1.0;" width="6" x="64" y="772.8359"/><text fill="#000000" font-family="sans-serif" font-size="11" lengthAdjust="spacing" textLength="89" x="76" y="780.2549">uint8_t* p_payload</text><rect fill="none" height="6" style="stroke:#C82930;stroke-width:1.0;" width="6" x="64" y="786.6719"/><text fill="#000000" font-family="sans-serif" font-size="11" lengthAdjust="spacing" textLength="105" x="76" y="794.0908">uint16_t payload_size</text><rect fill="none" height="6" style="stroke:#C82930;stroke-width:1.0;" width="6" x="64" y="800.5078"/><text fill="#000000" font-family="sans-serif" font-size="11" lengthAdjust="spacing" textLength="46" x="76" y="807.9268">int fifo_fd</text><rect fill="none" height="6" style="stroke:#C82930;stroke-width:1.0;" width="6" x="64" y="814.3438"/><text fill="#000000" font-family="sans-serif" font-size="11" lengthAdjust="spacing" textLength="79" x="76" y="821.7627">long long int time</text><line style="stroke:#A80036;stroke-width:1.0;" x1="57" x2="131.5" y1="761.918" y2="761.918"/><text fill="#000000" font-family="sans-serif" font-size="11" lengthAdjust="spacing" textLength="33" x="131.5" y="765.9189">Private</text><line style="stroke:#A80036;stroke-width:1.0;" x1="164.5" x2="239" y1="761.918" y2="761.918"/><line style="stroke:#A80036;stroke-width:1.5;" x1="57" x2="239" y1="828.1797" y2="828.1797"/><ellipse cx="67" cy="857.0156" fill="#84BE84" rx="3" ry="3" style="stroke:#038048;stroke-width:1.0;"/><text fill="#000000" font-family="sans-serif" font-size="11" lengthAdjust="spacing" textLength="130" x="76" y="861.4346">x01_send_sound_packet()</text><ellipse cx="67" cy="870.8516" fill="#84BE84" rx="3" ry="3" style="stroke:#038048;stroke-width:1.0;"/><text fill="#000000" font-family="sans-serif" font-size="11" lengthAdjust="spacing" textLength="107" x="76" y="875.2705">int set_fifo(const int *)</text><ellipse cx="67" cy="884.6875" fill="#84BE84" rx="3" ry="3" style="stroke:#038048;stroke-width:1.0;"/><text fill="#000000" font-family="sans-serif" font-size="11" lengthAdjust="spacing" textLength="132" x="76" y="889.1064">int set_values(long long int)</text><ellipse cx="67" cy="898.5234" fill="#84BE84" rx="3" ry="3" style="stroke:#038048;stroke-width:1.0;"/><text fill="#000000" font-family="sans-serif" font-size="11" lengthAdjust="spacing" textLength="158" x="76" y="902.9424">int set_values(uint8_t *, uint16_t)</text><ellipse cx="67" cy="912.3594" fill="#84BE84" rx="3" ry="3" style="stroke:#038048;stroke-width:1.0;"/><text fill="#000000" font-family="sans-serif" font-size="11" lengthAdjust="spacing" textLength="139" x="76" y="916.7783">int get_values(long long int *)</text><ellipse cx="67" cy="926.1953" fill="#84BE84" rx="3" ry="3" style="stroke:#038048;stroke-width:1.0;"/><text fill="#000000" font-family="sans-serif" font-size="11" lengthAdjust="spacing" textLength="136" x="76" y="930.6143">buffer_t* encode(buffer_t *)</text><ellipse cx="67" cy="940.0313" fill="#84BE84" rx="3" ry="3" style="stroke:#038048;stroke-width:1.0;"/><text fill="#000000" font-family="sans-serif" font-size="11" lengthAdjust="spacing" textLength="113" x="76" y="944.4502">void decode(buffer_t *)</text><ellipse cx="67" cy="953.8672" fill="#84BE84" rx="3" ry="3" style="stroke:#038048;stroke-width:1.0;"/><text fill="#000000" font-family="sans-serif" font-size="11" lengthAdjust="spacing" textLength="47" x="76" y="958.2861">int reset()</text><line style="stroke:#A80036;stroke-width:1.0;" x1="57" x2="134" y1="843.0977" y2="843.0977"/><text fill="#000000" font-family="sans-serif" font-size="11" lengthAdjust="spacing" textLength="28" x="134" y="847.0986">Public</text><line style="stroke:#A80036;stroke-width:1.0;" x1="162" x2="239" y1="843.0977" y2="843.0977"/><!--MD5=[6f3119a484ac264f38140fcf4dd4869c]
class xF1_check_connection--><rect codeLine="187" fill="#FEFECE" filter="url(#ftokqhaavbmv)" height="166.6875" id="xF1_check_connection" style="stroke:#A80036;stroke-width:1.5;" width="162" x="275" y="756.5"/><ellipse cx="292.25" cy="772.5" fill="#ADD1B2" rx="11" ry="11" style="stroke:#A80036;stroke-width:1.0;"/><path d="M295.0156,768.375 Q295.1719,768.1563 295.3594,768.0469 Q295.5469,767.9375 295.7656,767.9375 Q296.1406,767.9375 296.375,768.1953 Q296.6094,768.4531 296.6094,769.0625 L296.6094,770.5156 Q296.6094,771.125 296.375,771.3906 Q296.1406,771.6563 295.7656,771.6563 Q295.4219,771.6563 295.2188,771.4531 Q295.0156,771.2656 294.9063,770.75 Q294.8594,770.3906 294.6719,770.2031 Q294.3438,769.8281 293.7344,769.6094 Q293.125,769.3906 292.5,769.3906 Q291.7344,769.3906 291.1016,769.7188 Q290.4688,770.0469 289.9766,770.7969 Q289.4844,771.5469 289.4844,772.5781 L289.4844,773.6719 Q289.4844,774.9063 290.375,775.7266 Q291.2656,776.5469 292.8594,776.5469 Q293.7969,776.5469 294.4531,776.2969 Q294.8438,776.1406 295.2656,775.7031 Q295.5313,775.4375 295.6797,775.3594 Q295.8281,775.2813 296.0313,775.2813 Q296.3594,775.2813 296.6172,775.5391 Q296.875,775.7969 296.875,776.1406 Q296.875,776.4844 296.5313,776.8906 Q296.0313,777.4688 295.2344,777.7969 Q294.1563,778.25 292.8594,778.25 Q291.3438,778.25 290.1406,777.625 Q289.1563,777.125 288.4688,776.0547 Q287.7813,774.9844 287.7813,773.7031 L287.7813,772.5469 Q287.7813,771.2188 288.3984,770.0703 Q289.0156,768.9219 290.1094,768.3047 Q291.2031,767.6875 292.4375,767.6875 Q293.1719,767.6875 293.8203,767.8516 Q294.4688,768.0156 295.0156,768.375 Z " fill="#000000"/><text fill="#000000" font-family="sans-serif" font-size="12" lengthAdjust="spacing" textLength="125" x="306.75" y="777.4102">xF1_check_connection</text><line style="stroke:#A80036;stroke-width:1.5;" x1="276" x2="436" y1="788.5" y2="788.5"/><rect fill="none" height="6" style="stroke:#C82930;stroke-width:1.0;" width="6" x="283" y="814.3359"/><text fill="#000000" font-family="sans-serif" font-size="11" lengthAdjust="spacing" textLength="117" x="295" y="821.7549">uint8_t acknowledgment</text><line style="stroke:#A80036;stroke-width:1.0;" x1="276" x2="339.5" y1="803.418" y2="803.418"/><text fill="#000000" font-family="sans-serif" font-size="11" lengthAdjust="spacing" textLength="33" x="339.5" y="807.4189">Private</text><line style="stroke:#A80036;stroke-width:1.0;" x1="372.5" x2="436" y1="803.418" y2="803.418"/><line style="stroke:#A80036;stroke-width:1.5;" x1="276" x2="436" y1="828.1719" y2="828.1719"/><ellipse cx="286" cy="857.0078" fill="#84BE84" rx="3" ry="3" style="stroke:#038048;stroke-width:1.0;"/><text fill="#000000" font-family="sans-serif" font-size="11" lengthAdjust="spacing" textLength="120" x="295" y="861.4268">xF1_check_connection()</text><ellipse cx="286" cy="870.8438" fill="#84BE84" rx="3" ry="3" style="stroke:#038048;stroke-width:1.0;"/><text fill="#000000" font-family="sans-serif" font-size="11" lengthAdjust="spacing" textLength="107" x="295" y="875.2627">int set_values(uint8_t)</text><ellipse cx="286" cy="884.6797" fill="#84BE84" rx="3" ry="3" style="stroke:#038048;stroke-width:1.0;"/><text fill="#000000" font-family="sans-serif" font-size="11" lengthAdjust="spacing" textLength="47" x="295" y="889.0986">int reset()</text><ellipse cx="286" cy="898.5156" fill="#84BE84" rx="3" ry="3" style="stroke:#038048;stroke-width:1.0;"/><text fill="#000000" font-family="sans-serif" font-size="11" lengthAdjust="spacing" textLength="136" x="295" y="902.9346">buffer_t* encode(buffer_t *)</text><ellipse cx="286" cy="912.3516" fill="#84BE84" rx="3" ry="3" style="stroke:#038048;stroke-width:1.0;"/><text fill="#000000" font-family="sans-serif" font-size="11" lengthAdjust="spacing" textLength="104" x="295" y="916.7705">int decode(buffer_t *)</text><line style="stroke:#A80036;stroke-width:1.0;" x1="276" x2="342" y1="843.0898" y2="843.0898"/><text fill="#000000" font-family="sans-serif" font-size="11" lengthAdjust="spacing" textLength="28" x="342" y="847.0908">Public</text><line style="stroke:#A80036;stroke-width:1.0;" x1="370" x2="436" y1="843.0898" y2="843.0898"/><polygon fill="#FFFFFF" filter="url(#ftokqhaavbmv)" points="472.5,812.5,607.5,812.5,614.5,836.1094,621.5,836.1094,621.5,867.7188,472.5,867.7188,472.5,812.5" style="stroke:#000000;stroke-width:1.5;"/><line style="stroke:#000000;stroke-width:1.5;" x1="472.5" x2="614.5" y1="836.1094" y2="836.1094"/><text fill="#000000" font-family="sans-serif" font-size="14" font-weight="bold" lengthAdjust="spacing" textLength="129" x="476.5" y="829.0332">szp_custom_types</text><!--MD5=[d1515d178fad2bf0f45f27ac1a5c0712]
class UDP_client--><rect codeLine="216" fill="#FEFECE" filter="url(#ftokqhaavbmv)" height="48" id="UDP_client" style="stroke:#A80036;stroke-width:1.5;" width="94" x="837" y="474.5"/><ellipse cx="852" cy="490.5" fill="#ADD1B2" rx="11" ry="11" style="stroke:#A80036;stroke-width:1.0;"/><path d="M854.7656,486.375 Q854.9219,486.1563 855.1094,486.0469 Q855.2969,485.9375 855.5156,485.9375 Q855.8906,485.9375 856.125,486.1953 Q856.3594,486.4531 856.3594,487.0625 L856.3594,488.5156 Q856.3594,489.125 856.125,489.3906 Q855.8906,489.6563 855.5156,489.6563 Q855.1719,489.6563 854.9688,489.4531 Q854.7656,489.2656 854.6563,488.75 Q854.6094,488.3906 854.4219,488.2031 Q854.0938,487.8281 853.4844,487.6094 Q852.875,487.3906 852.25,487.3906 Q851.4844,487.3906 850.8516,487.7188 Q850.2188,488.0469 849.7266,488.7969 Q849.2344,489.5469 849.2344,490.5781 L849.2344,491.6719 Q849.2344,492.9063 850.125,493.7266 Q851.0156,494.5469 852.6094,494.5469 Q853.5469,494.5469 854.2031,494.2969 Q854.5938,494.1406 855.0156,493.7031 Q855.2813,493.4375 855.4297,493.3594 Q855.5781,493.2813 855.7813,493.2813 Q856.1094,493.2813 856.3672,493.5391 Q856.625,493.7969 856.625,494.1406 Q856.625,494.4844 856.2813,494.8906 Q855.7813,495.4688 854.9844,495.7969 Q853.9063,496.25 852.6094,496.25 Q851.0938,496.25 849.8906,495.625 Q848.9063,495.125 848.2188,494.0547 Q847.5313,492.9844 847.5313,491.7031 L847.5313,490.5469 Q847.5313,489.2188 848.1484,488.0703 Q848.7656,486.9219 849.8594,486.3047 Q850.9531,485.6875 852.1875,485.6875 Q852.9219,485.6875 853.5703,485.8516 Q854.2188,486.0156 854.7656,486.375 Z " fill="#000000"/><text fill="#000000" font-family="sans-serif" font-size="12" lengthAdjust="spacing" textLength="62" x="866" y="495.4102">UDP_client</text><line style="stroke:#A80036;stroke-width:1.5;" x1="838" x2="930" y1="506.5" y2="506.5"/><line style="stroke:#A80036;stroke-width:1.5;" x1="838" x2="930" y1="514.5" y2="514.5"/><!--MD5=[33bda69caa66fb7c99eaf82bc543b74e]
class UDP_server--><rect codeLine="217" fill="#FEFECE" filter="url(#ftokqhaavbmv)" height="48" id="UDP_server" style="stroke:#A80036;stroke-width:1.5;" width="99" x="702.5" y="474.5"/><ellipse cx="717.5" cy="490.5" fill="#ADD1B2" rx="11" ry="11" style="stroke:#A80036;stroke-width:1.0;"/><path d="M720.2656,486.375 Q720.4219,486.1563 720.6094,486.0469 Q720.7969,485.9375 721.0156,485.9375 Q721.3906,485.9375 721.625,486.1953 Q721.8594,486.4531 721.8594,487.0625 L721.8594,488.5156 Q721.8594,489.125 721.625,489.3906 Q721.3906,489.6563 721.0156,489.6563 Q720.6719,489.6563 720.4688,489.4531 Q720.2656,489.2656 720.1563,488.75 Q720.1094,488.3906 719.9219,488.2031 Q719.5938,487.8281 718.9844,487.6094 Q718.375,487.3906 717.75,487.3906 Q716.9844,487.3906 716.3516,487.7188 Q715.7188,488.0469 715.2266,488.7969 Q714.7344,489.5469 714.7344,490.5781 L714.7344,491.6719 Q714.7344,492.9063 715.625,493.7266 Q716.5156,494.5469 718.1094,494.5469 Q719.0469,494.5469 719.7031,494.2969 Q720.0938,494.1406 720.5156,493.7031 Q720.7813,493.4375 720.9297,493.3594 Q721.0781,493.2813 721.2813,493.2813 Q721.6094,493.2813 721.8672,493.5391 Q722.125,493.7969 722.125,494.1406 Q722.125,494.4844 721.7813,494.8906 Q721.2813,495.4688 720.4844,495.7969 Q719.4063,496.25 718.1094,496.25 Q716.5938,496.25 715.3906,495.625 Q714.4063,495.125 713.7188,494.0547 Q713.0313,492.9844 713.0313,491.7031 L713.0313,490.5469 Q713.0313,489.2188 713.6484,488.0703 Q714.2656,486.9219 715.3594,486.3047 Q716.4531,485.6875 717.6875,485.6875 Q718.4219,485.6875 719.0703,485.8516 Q719.7188,486.0156 720.2656,486.375 Z " fill="#000000"/><text fill="#000000" font-family="sans-serif" font-size="12" lengthAdjust="spacing" textLength="67" x="731.5" y="495.4102">UDP_server</text><line style="stroke:#A80036;stroke-width:1.5;" x1="703.5" x2="800.5" y1="506.5" y2="506.5"/><line style="stroke:#A80036;stroke-width:1.5;" x1="703.5" x2="800.5" y1="514.5" y2="514.5"/><!--MD5=[be91c8877b06d2ae14ef8b0fbeedefde]
link SZP_master to soundzone_protocol--><path codeLine="205" d="M464.4,245.69 C453.39,271.28 440.83,300.45 428.26,329.65 " fill="none" id="SZP_master-to-soundzone_protocol" style="stroke:#A80036;stroke-width:1.0;"/><polygon fill="#FFFFFF" points="423.07,341.71,429.1186,337.7839,427.8209,330.6905,421.7723,334.6166,423.07,341.71" style="stroke:#A80036;stroke-width:1.0;"/><!--MD5=[e61e2c8a7afb49e66e713e33669b9d06]
link SZP_slave to soundzone_protocol--><path codeLine="206" d="M283.32,282.35 C288.47,297.59 293.82,313.42 299.17,329.26 " fill="none" id="SZP_slave-to-soundzone_protocol" style="stroke:#A80036;stroke-width:1.0;"/><polygon fill="#FFFFFF" points="303.46,341.96,305.3332,334.9964,299.6258,330.589,297.7526,337.5526,303.46,341.96" style="stroke:#A80036;stroke-width:1.0;"/><!--MD5=[30b46965b0b6872539524600c7bc2f7f]
link soundzone_protocol to x01_send_sound_packet--><path codeLine="208" d="M260.52,655.34 C250.68,671.4 240.74,687.63 231.05,703.44 " fill="none" id="soundzone_protocol-to-x01_send_sound_packet" style="stroke:#A80036;stroke-width:1.0;"/><polygon fill="#A80036" points="224.05,714.88,230.5969,711.857,230.3245,704.6511,223.7776,707.674,224.05,714.88" style="stroke:#A80036;stroke-width:1.0;"/><!--MD5=[dc36de6be3c7213b2132b20e96802c3d]
link soundzone_protocol to xF1_check_connection--><path codeLine="209" d="M356,655.34 C356,685.3 356,715.84 356,743.2 " fill="none" id="soundzone_protocol-to-xF1_check_connection" style="stroke:#A80036;stroke-width:1.0;"/><polygon fill="#A80036" points="356,756.36,360,750.36,356,744.36,352,750.36,356,756.36" style="stroke:#A80036;stroke-width:1.0;"/><!--MD5=[f431ffa0757bd522ff2e8d03ed6a3eda]
link soundzone_protocol to szp_custom_types--><path codeLine="210" d="M443.67,655.34 C473.94,709.13 505.26,764.81 525.37,800.55 " fill="none" id="soundzone_protocol-to-szp_custom_types" style="stroke:#A80036;stroke-width:1.0;"/><polygon fill="#A80036" points="531.99,812.32,532.5352,805.1295,526.1075,801.8607,525.5623,809.0512,531.99,812.32" style="stroke:#A80036;stroke-width:1.0;"/><!--MD5=[d63e008edd9545a95f94b6841a9578f6]
link SZP_master to UDP_client--><path codeLine="213" d="M646.01,195.99 C706.7,216.34 773.45,248.38 819,298 C861.13,343.88 875.98,417.48 881.19,461.3 " fill="none" id="SZP_master-to-UDP_client" style="stroke:#A80036;stroke-width:1.0;"/><polygon fill="#A80036" points="882.57,474.4,885.9217,468.0152,881.3172,462.4656,877.9655,468.8504,882.57,474.4" style="stroke:#A80036;stroke-width:1.0;"/><!--MD5=[db18abf83db8f090ed0662d17841ad27]
link SZP_slave to UDP_server--><path codeLine="214" d="M319.25,270.71 C324.88,274.97 330.8,278.79 337,282 C396.49,312.79 580.98,262.85 638,298 C697.63,334.75 729.09,414.94 742.97,461.69 " fill="none" id="SZP_slave-to-UDP_server" style="stroke:#A80036;stroke-width:1.0;"/><polygon fill="#A80036" points="746.5,474.2,748.7216,467.3396,743.2434,462.6503,741.0218,469.5107,746.5,474.2" style="stroke:#A80036;stroke-width:1.0;"/><!--MD5=[ea071103c2f4d6a36fba4295a4368b99]
@startuml class_diagram

package soundzone_protocol {
    
    class SZP_master{
        - -Private- -
        - UDP_client dt
        - uint8_t comm_buffer[]
        ___
        - -Public- -
        + SZP_master()
        + SZP_master(char *, bool)
        + int check_connection()
        + int send_sound_packet(uint8_t *, uint16_t, long long int)
    }

    class SZP_slave{
        - -Private- -
        - UDP_server dt
        - char* fifo_name
        - uint8_t comm_buffer[]
        ___
        - -Private- -
        - int encode_and_send()
        - int react_on_incoming()
        - -Public- -
        + SZP_slave(char *)
        + ~SZP_slave()
        + int open_fifo()
        + int recieve()
        + int get_time(long long int *)
        }

    package szp {
        
        class soundzone_protocol {
            - -Protected- -
            # buffer_t* p_buffer
            # supported_cid_t cid
            # xF1_check_connection* check_connection
            # x01_send_sound_packet* send_sound_packet
            ___
            - -Private- -
            - static supported_cid_t initial_decode(uint8_t)
            - -Protected- -
            # uint16_t encode_and_send()
            - -Public- -
            + soundzone_protocol()
            + soundzone_protocol(uint8_t *, uint16_t)
            + int set_fifo(int *)
            + int set_values(uint8_t)
            + int set_values(uint8_t *, uint16_t)
            + int get_values(long long int *)
            + buffer_t* encode(buffer_t *)
            + int decode(buffer_t *)
        }

        class x01_send_sound_packet {
            - -Private- -
            - uint8_t* p_payload
            - uint16_t payload_size
            - int fifo_fd
            - long long int time
            ___
            - -Public- -
            + x01_send_sound_packet()
            + int set_fifo(const int *)
            + int set_values(long long int)
            + int set_values(uint8_t *, uint16_t)
            + int get_values(long long int *)
            + buffer_t* encode(buffer_t *)
            + void decode(buffer_t *)
            + int reset()
        }

        class xF1_check_connection {
            - -Private- -
            - uint8_t acknowledgment
            ___
            - -Public- -
            + xF1_check_connection()
            + int set_values(uint8_t)
            + int reset()
            + buffer_t* encode(buffer_t *)
            + int decode(buffer_t *)
        }
    

        package szp_custom_types{
        }
    }
}

SZP_master - -o soundzone_protocol
SZP_slave - -o soundzone_protocol

soundzone_protocol - -* x01_send_sound_packet
soundzone_protocol - -* xF1_check_connection
soundzone_protocol - -* szp_custom_types

package DataTransport{
    SZP_master - -* UDP_client
    SZP_slave - -* UDP_server

    class UDP_client{}
    class UDP_server{}
}


@enduml

PlantUML version 1.2021.10(Mon Aug 30 15:43:48 CEST 2021)
(GPL source distribution)
Java Runtime: Java(TM) SE Runtime Environment
JVM: Java HotSpot(TM) 64-Bit Server VM
Default Encoding: Cp1252
Language: en
Country: US
--></g></svg>