<?xml version="1.0" encoding="UTF-8" standalone="no"?><svg xmlns="http://www.w3.org/2000/svg" xmlns:xlink="http://www.w3.org/1999/xlink" contentScriptType="application/ecmascript" contentStyleType="text/css" height="994px" preserveAspectRatio="none" style="width:1283px;height:994px;background:#FFFFFF;" version="1.1" viewBox="0 0 1283 994" width="1283px" zoomAndPan="magnify"><defs><filter height="300%" id="f1esprl24f1iu" width="300%" x="-1" y="-1"><feGaussianBlur result="blurOut" stdDeviation="2.0"/><feColorMatrix in="blurOut" result="blurOut2" type="matrix" values="0 0 0 0 0 0 0 0 0 0 0 0 0 0 0 0 0 0 .4 0"/><feOffset dx="4.0" dy="4.0" in="blurOut2" result="blurOut3"/><feBlend in="SourceGraphic" in2="blurOut3" mode="normal"/></filter></defs><g><!--MD5=[6bcd4e2e4339cb18f29cde61031d3191]
cluster SZP--><polygon fill="#FFFFFF" filter="url(#f1esprl24f1iu)" points="16,6,48,6,55,29.6094,981,29.6094,981,987,16,987,16,6" style="stroke:#000000;stroke-width:1.5;"/><line style="stroke:#000000;stroke-width:1.5;" x1="16" x2="55" y1="29.6094" y2="29.6094"/><text fill="#000000" font-family="sans-serif" font-size="14" font-weight="bold" lengthAdjust="spacing" textLength="26" x="20" y="22.5332">SZP</text><!--MD5=[3515607e15a279e3594e3ca07429e5dc]
cluster sound_zone_protocol--><polygon fill="#FFFFFF" filter="url(#f1esprl24f1iu)" points="48,292,207,292,214,315.6094,949,315.6094,949,955,48,955,48,292" style="stroke:#000000;stroke-width:1.5;"/><line style="stroke:#000000;stroke-width:1.5;" x1="48" x2="214" y1="315.6094" y2="315.6094"/><text fill="#000000" font-family="sans-serif" font-size="14" font-weight="bold" lengthAdjust="spacing" textLength="153" x="52" y="308.5332">sound_zone_protocol</text><!--MD5=[9b35566ef05d5cde0f42c237ca30e91b]
cluster szp_custom_types--><polygon fill="#FFFFFF" filter="url(#f1esprl24f1iu)" points="612,745,747,745,754,768.6094,909,768.6094,909,861,612,861,612,745" style="stroke:#000000;stroke-width:1.5;"/><line style="stroke:#000000;stroke-width:1.5;" x1="612" x2="754" y1="768.6094" y2="768.6094"/><text fill="#000000" font-family="sans-serif" font-size="14" font-weight="bold" lengthAdjust="spacing" textLength="129" x="616" y="761.5332">szp_custom_types</text><!--MD5=[79a26e4ac8bd5100d7277bc5c79d8e58]
cluster DataTransport--><polygon fill="#FFFFFF" filter="url(#f1esprl24f1iu)" points="1005,425.5,1110,425.5,1117,449.1094,1266,449.1094,1266,525.5,1005,525.5,1005,425.5" style="stroke:#000000;stroke-width:1.5;"/><line style="stroke:#000000;stroke-width:1.5;" x1="1005" x2="1117" y1="449.1094" y2="449.1094"/><text fill="#000000" font-family="sans-serif" font-size="14" font-weight="bold" lengthAdjust="spacing" textLength="99" x="1009" y="442.0332">DataTransport</text><!--MD5=[358141ac238f2a25e6d946b89ad047f2]
class SZP_master--><rect codeLine="138" fill="#FEFECE" filter="url(#f1esprl24f1iu)" height="166.6875" id="SZP_master" style="stroke:#A80036;stroke-width:1.5;" width="320" x="645" y="71.5"/><ellipse cx="766.25" cy="87.5" fill="#ADD1B2" rx="11" ry="11" style="stroke:#A80036;stroke-width:1.0;"/><path d="M769.0156,83.375 Q769.1719,83.1563 769.3594,83.0469 Q769.5469,82.9375 769.7656,82.9375 Q770.1406,82.9375 770.375,83.1953 Q770.6094,83.4531 770.6094,84.0625 L770.6094,85.5156 Q770.6094,86.125 770.375,86.3906 Q770.1406,86.6563 769.7656,86.6563 Q769.4219,86.6563 769.2188,86.4531 Q769.0156,86.2656 768.9063,85.75 Q768.8594,85.3906 768.6719,85.2031 Q768.3438,84.8281 767.7344,84.6094 Q767.125,84.3906 766.5,84.3906 Q765.7344,84.3906 765.1016,84.7188 Q764.4688,85.0469 763.9766,85.7969 Q763.4844,86.5469 763.4844,87.5781 L763.4844,88.6719 Q763.4844,89.9063 764.375,90.7266 Q765.2656,91.5469 766.8594,91.5469 Q767.7969,91.5469 768.4531,91.2969 Q768.8438,91.1406 769.2656,90.7031 Q769.5313,90.4375 769.6797,90.3594 Q769.8281,90.2813 770.0313,90.2813 Q770.3594,90.2813 770.6172,90.5391 Q770.875,90.7969 770.875,91.1406 Q770.875,91.4844 770.5313,91.8906 Q770.0313,92.4688 769.2344,92.7969 Q768.1563,93.25 766.8594,93.25 Q765.3438,93.25 764.1406,92.625 Q763.1563,92.125 762.4688,91.0547 Q761.7813,89.9844 761.7813,88.7031 L761.7813,87.5469 Q761.7813,86.2188 762.3984,85.0703 Q763.0156,83.9219 764.1094,83.3047 Q765.2031,82.6875 766.4375,82.6875 Q767.1719,82.6875 767.8203,82.8516 Q768.4688,83.0156 769.0156,83.375 Z " fill="#000000"/><text fill="#000000" font-family="sans-serif" font-size="12" lengthAdjust="spacing" textLength="69" x="786.75" y="92.4102">SZP_master</text><line style="stroke:#A80036;stroke-width:1.5;" x1="646" x2="964" y1="103.5" y2="103.5"/><rect fill="none" height="6" style="stroke:#C82930;stroke-width:1.0;" width="6" x="653" y="129.3359"/><text fill="#000000" font-family="sans-serif" font-size="11" lengthAdjust="spacing" textLength="63" x="665" y="136.7549">UDP_client dt</text><rect fill="none" height="6" style="stroke:#C82930;stroke-width:1.0;" width="6" x="653" y="143.1719"/><text fill="#000000" font-family="sans-serif" font-size="11" lengthAdjust="spacing" textLength="105" x="665" y="150.5908">uint8_t comm_buffer[]</text><line style="stroke:#A80036;stroke-width:1.0;" x1="646" x2="788.5" y1="118.418" y2="118.418"/><text fill="#000000" font-family="sans-serif" font-size="11" lengthAdjust="spacing" textLength="33" x="788.5" y="122.4189">Private</text><line style="stroke:#A80036;stroke-width:1.0;" x1="821.5" x2="964" y1="118.418" y2="118.418"/><line style="stroke:#A80036;stroke-width:1.5;" x1="646" x2="964" y1="157.0078" y2="157.0078"/><ellipse cx="656" cy="185.8438" fill="#84BE84" rx="3" ry="3" style="stroke:#038048;stroke-width:1.0;"/><text fill="#000000" font-family="sans-serif" font-size="11" lengthAdjust="spacing" textLength="67" x="665" y="190.2627">SZP_master()</text><ellipse cx="656" cy="199.6797" fill="#84BE84" rx="3" ry="3" style="stroke:#038048;stroke-width:1.0;"/><text fill="#000000" font-family="sans-serif" font-size="11" lengthAdjust="spacing" textLength="168" x="665" y="204.0986">SZP_master(char *host, bool is_ip)</text><ellipse cx="656" cy="213.5156" fill="#84BE84" rx="3" ry="3" style="stroke:#038048;stroke-width:1.0;"/><text fill="#000000" font-family="sans-serif" font-size="11" lengthAdjust="spacing" textLength="110" x="665" y="217.9346">int check_connection()</text><ellipse cx="656" cy="227.3516" fill="#84BE84" rx="3" ry="3" style="stroke:#038048;stroke-width:1.0;"/><text fill="#000000" font-family="sans-serif" font-size="11" lengthAdjust="spacing" textLength="294" x="665" y="231.7705">int send_sound_packet(uint8_t* buffer, uint16_t packet_size)</text><line style="stroke:#A80036;stroke-width:1.0;" x1="646" x2="791" y1="171.9258" y2="171.9258"/><text fill="#000000" font-family="sans-serif" font-size="11" lengthAdjust="spacing" textLength="28" x="791" y="175.9268">Public</text><line style="stroke:#A80036;stroke-width:1.0;" x1="819" x2="964" y1="171.9258" y2="171.9258"/><!--MD5=[f98b2bde8a9293bad7a4d96faca01189]
class SZP_slave--><rect codeLine="150" fill="#FEFECE" filter="url(#f1esprl24f1iu)" height="226.0313" id="SZP_slave" style="stroke:#A80036;stroke-width:1.5;" width="163" x="446.5" y="42"/><ellipse cx="494.25" cy="58" fill="#ADD1B2" rx="11" ry="11" style="stroke:#A80036;stroke-width:1.0;"/><path d="M497.0156,53.875 Q497.1719,53.6563 497.3594,53.5469 Q497.5469,53.4375 497.7656,53.4375 Q498.1406,53.4375 498.375,53.6953 Q498.6094,53.9531 498.6094,54.5625 L498.6094,56.0156 Q498.6094,56.625 498.375,56.8906 Q498.1406,57.1563 497.7656,57.1563 Q497.4219,57.1563 497.2188,56.9531 Q497.0156,56.7656 496.9063,56.25 Q496.8594,55.8906 496.6719,55.7031 Q496.3438,55.3281 495.7344,55.1094 Q495.125,54.8906 494.5,54.8906 Q493.7344,54.8906 493.1016,55.2188 Q492.4688,55.5469 491.9766,56.2969 Q491.4844,57.0469 491.4844,58.0781 L491.4844,59.1719 Q491.4844,60.4063 492.375,61.2266 Q493.2656,62.0469 494.8594,62.0469 Q495.7969,62.0469 496.4531,61.7969 Q496.8438,61.6406 497.2656,61.2031 Q497.5313,60.9375 497.6797,60.8594 Q497.8281,60.7813 498.0313,60.7813 Q498.3594,60.7813 498.6172,61.0391 Q498.875,61.2969 498.875,61.6406 Q498.875,61.9844 498.5313,62.3906 Q498.0313,62.9688 497.2344,63.2969 Q496.1563,63.75 494.8594,63.75 Q493.3438,63.75 492.1406,63.125 Q491.1563,62.625 490.4688,61.5547 Q489.7813,60.4844 489.7813,59.2031 L489.7813,58.0469 Q489.7813,56.7188 490.3984,55.5703 Q491.0156,54.4219 492.1094,53.8047 Q493.2031,53.1875 494.4375,53.1875 Q495.1719,53.1875 495.8203,53.3516 Q496.4688,53.5156 497.0156,53.875 Z " fill="#000000"/><text fill="#000000" font-family="sans-serif" font-size="12" lengthAdjust="spacing" textLength="59" x="514.75" y="62.9102">SZP_slave</text><line style="stroke:#A80036;stroke-width:1.5;" x1="447.5" x2="608.5" y1="74" y2="74"/><rect fill="none" height="6" style="stroke:#C82930;stroke-width:1.0;" width="6" x="454.5" y="99.8359"/><text fill="#000000" font-family="sans-serif" font-size="11" lengthAdjust="spacing" textLength="70" x="466.5" y="107.2549">UDP_server dt</text><rect fill="none" height="6" style="stroke:#C82930;stroke-width:1.0;" width="6" x="454.5" y="113.6719"/><text fill="#000000" font-family="sans-serif" font-size="11" lengthAdjust="spacing" textLength="77" x="466.5" y="121.0908">char* fifo_name</text><rect fill="none" height="6" style="stroke:#C82930;stroke-width:1.0;" width="6" x="454.5" y="127.5078"/><text fill="#000000" font-family="sans-serif" font-size="11" lengthAdjust="spacing" textLength="105" x="466.5" y="134.9268">uint8_t comm_buffer[]</text><line style="stroke:#A80036;stroke-width:1.0;" x1="447.5" x2="511.5" y1="88.918" y2="88.918"/><text fill="#000000" font-family="sans-serif" font-size="11" lengthAdjust="spacing" textLength="33" x="511.5" y="92.9189">Private</text><line style="stroke:#A80036;stroke-width:1.0;" x1="544.5" x2="608.5" y1="88.918" y2="88.918"/><line style="stroke:#A80036;stroke-width:1.5;" x1="447.5" x2="608.5" y1="141.3438" y2="141.3438"/><rect fill="#F24D5C" height="6" style="stroke:#C82930;stroke-width:1.0;" width="6" x="454.5" y="167.1797"/><text fill="#000000" font-family="sans-serif" font-size="11" lengthAdjust="spacing" textLength="112" x="466.5" y="174.5986">int encode_and_send()</text><rect fill="#F24D5C" height="6" style="stroke:#C82930;stroke-width:1.0;" width="6" x="454.5" y="181.0156"/><text fill="#000000" font-family="sans-serif" font-size="11" lengthAdjust="spacing" textLength="113" x="466.5" y="188.4346">int react_on_incoming()</text><line style="stroke:#A80036;stroke-width:1.0;" x1="447.5" x2="511.5" y1="156.2617" y2="156.2617"/><text fill="#000000" font-family="sans-serif" font-size="11" lengthAdjust="spacing" textLength="33" x="511.5" y="160.2627">Private</text><line style="stroke:#A80036;stroke-width:1.0;" x1="544.5" x2="608.5" y1="156.2617" y2="156.2617"/><ellipse cx="457.5" cy="215.6875" fill="#84BE84" rx="3" ry="3" style="stroke:#038048;stroke-width:1.0;"/><text fill="#000000" font-family="sans-serif" font-size="11" lengthAdjust="spacing" textLength="137" x="466.5" y="220.1064">SZP_slave(char* fifo_name)</text><ellipse cx="457.5" cy="229.5234" fill="#84BE84" rx="3" ry="3" style="stroke:#038048;stroke-width:1.0;"/><text fill="#000000" font-family="sans-serif" font-size="11" lengthAdjust="spacing" textLength="66" x="466.5" y="233.9424">~SZP_slave()</text><ellipse cx="457.5" cy="243.3594" fill="#84BE84" rx="3" ry="3" style="stroke:#038048;stroke-width:1.0;"/><text fill="#000000" font-family="sans-serif" font-size="11" lengthAdjust="spacing" textLength="68" x="466.5" y="247.7783">int open_fifo()</text><ellipse cx="457.5" cy="257.1953" fill="#84BE84" rx="3" ry="3" style="stroke:#038048;stroke-width:1.0;"/><text fill="#000000" font-family="sans-serif" font-size="11" lengthAdjust="spacing" textLength="58" x="466.5" y="261.6143">int recieve()</text><line style="stroke:#A80036;stroke-width:1.0;" x1="447.5" x2="514" y1="201.7695" y2="201.7695"/><text fill="#000000" font-family="sans-serif" font-size="11" lengthAdjust="spacing" textLength="28" x="514" y="205.7705">Public</text><line style="stroke:#A80036;stroke-width:1.0;" x1="542" x2="608.5" y1="201.7695" y2="201.7695"/><!--MD5=[1abc3e6dc9fe2c8063ed4793c1552605]
class sound_zone_protocol--><rect codeLine="166" fill="#FEFECE" filter="url(#f1esprl24f1iu)" height="299.2109" id="sound_zone_protocol" style="stroke:#A80036;stroke-width:1.5;" width="345" x="355.5" y="336"/><ellipse cx="464.25" cy="352" fill="#ADD1B2" rx="11" ry="11" style="stroke:#A80036;stroke-width:1.0;"/><path d="M467.0156,347.875 Q467.1719,347.6563 467.3594,347.5469 Q467.5469,347.4375 467.7656,347.4375 Q468.1406,347.4375 468.375,347.6953 Q468.6094,347.9531 468.6094,348.5625 L468.6094,350.0156 Q468.6094,350.625 468.375,350.8906 Q468.1406,351.1563 467.7656,351.1563 Q467.4219,351.1563 467.2188,350.9531 Q467.0156,350.7656 466.9063,350.25 Q466.8594,349.8906 466.6719,349.7031 Q466.3438,349.3281 465.7344,349.1094 Q465.125,348.8906 464.5,348.8906 Q463.7344,348.8906 463.1016,349.2188 Q462.4688,349.5469 461.9766,350.2969 Q461.4844,351.0469 461.4844,352.0781 L461.4844,353.1719 Q461.4844,354.4063 462.375,355.2266 Q463.2656,356.0469 464.8594,356.0469 Q465.7969,356.0469 466.4531,355.7969 Q466.8438,355.6406 467.2656,355.2031 Q467.5313,354.9375 467.6797,354.8594 Q467.8281,354.7813 468.0313,354.7813 Q468.3594,354.7813 468.6172,355.0391 Q468.875,355.2969 468.875,355.6406 Q468.875,355.9844 468.5313,356.3906 Q468.0313,356.9688 467.2344,357.2969 Q466.1563,357.75 464.8594,357.75 Q463.3438,357.75 462.1406,357.125 Q461.1563,356.625 460.4688,355.5547 Q459.7813,354.4844 459.7813,353.2031 L459.7813,352.0469 Q459.7813,350.7188 460.3984,349.5703 Q461.0156,348.4219 462.1094,347.8047 Q463.2031,347.1875 464.4375,347.1875 Q465.1719,347.1875 465.8203,347.3516 Q466.4688,347.5156 467.0156,347.875 Z " fill="#000000"/><text fill="#000000" font-family="sans-serif" font-size="12" lengthAdjust="spacing" textLength="119" x="484.75" y="356.9102">sound_zone_protocol</text><line style="stroke:#A80036;stroke-width:1.5;" x1="356.5" x2="699.5" y1="368" y2="368"/><polygon fill="none" points="366.5,391.8359,370.5,395.8359,366.5,399.8359,362.5,395.8359" style="stroke:#B38D22;stroke-width:1.0;"/><text fill="#000000" font-family="sans-serif" font-size="11" lengthAdjust="spacing" textLength="88" x="375.5" y="401.2549">buffer_t* p_buffer</text><polygon fill="none" points="366.5,405.6719,370.5,409.6719,366.5,413.6719,362.5,409.6719" style="stroke:#B38D22;stroke-width:1.0;"/><text fill="#000000" font-family="sans-serif" font-size="11" lengthAdjust="spacing" textLength="95" x="375.5" y="415.0908">supported_cid_t cid</text><polygon fill="none" points="366.5,419.5078,370.5,423.5078,366.5,427.5078,362.5,423.5078" style="stroke:#B38D22;stroke-width:1.0;"/><text fill="#000000" font-family="sans-serif" font-size="11" lengthAdjust="spacing" textLength="207" x="375.5" y="428.9268">xF1_check_connection* check_connection</text><polygon fill="none" points="366.5,433.3438,370.5,437.3438,366.5,441.3438,362.5,437.3438" style="stroke:#B38D22;stroke-width:1.0;"/><text fill="#000000" font-family="sans-serif" font-size="11" lengthAdjust="spacing" textLength="227" x="375.5" y="442.7627">x01_send_sound_packet* send_sound_packet</text><line style="stroke:#A80036;stroke-width:1.0;" x1="356.5" x2="505" y1="382.918" y2="382.918"/><text fill="#000000" font-family="sans-serif" font-size="11" lengthAdjust="spacing" textLength="46" x="505" y="386.9189">Protected</text><line style="stroke:#A80036;stroke-width:1.0;" x1="551" x2="699.5" y1="382.918" y2="382.918"/><line style="stroke:#A80036;stroke-width:1.5;" x1="356.5" x2="699.5" y1="449.1797" y2="449.1797"/><rect fill="#F24D5C" height="6" style="stroke:#C82930;stroke-width:1.0;" width="6" x="363.5" y="475.0156"/><text fill="#000000" font-family="sans-serif" font-size="11" lengthAdjust="spacing" textLength="232" x="375.5" y="482.4346">static supported_cid_t initial_decode(uint8_t cid)</text><line style="stroke:#A80036;stroke-width:1.0;" x1="356.5" x2="511.5" y1="464.0977" y2="464.0977"/><text fill="#000000" font-family="sans-serif" font-size="11" lengthAdjust="spacing" textLength="33" x="511.5" y="468.0986">Private</text><line style="stroke:#A80036;stroke-width:1.0;" x1="544.5" x2="699.5" y1="464.0977" y2="464.0977"/><polygon fill="#FFFF44" points="366.5,504.6875,370.5,508.6875,366.5,512.6875,362.5,508.6875" style="stroke:#B38D22;stroke-width:1.0;"/><text fill="#000000" font-family="sans-serif" font-size="11" lengthAdjust="spacing" textLength="139" x="375.5" y="514.1064">uint16_t encode_and_send()</text><line style="stroke:#A80036;stroke-width:1.0;" x1="356.5" x2="505" y1="495.7695" y2="495.7695"/><text fill="#000000" font-family="sans-serif" font-size="11" lengthAdjust="spacing" textLength="46" x="505" y="499.7705">Protected</text><line style="stroke:#A80036;stroke-width:1.0;" x1="551" x2="699.5" y1="495.7695" y2="495.7695"/><ellipse cx="366.5" cy="541.3594" fill="#84BE84" rx="3" ry="3" style="stroke:#038048;stroke-width:1.0;"/><text fill="#000000" font-family="sans-serif" font-size="11" lengthAdjust="spacing" textLength="113" x="375.5" y="545.7783">sound_zone_protocol()</text><ellipse cx="366.5" cy="555.1953" fill="#84BE84" rx="3" ry="3" style="stroke:#038048;stroke-width:1.0;"/><text fill="#000000" font-family="sans-serif" font-size="11" lengthAdjust="spacing" textLength="319" x="375.5" y="559.6143">sound_zone_protocol(uint8_t* comm_buffer, uint16_t buffer_size)</text><ellipse cx="366.5" cy="569.0313" fill="#84BE84" rx="3" ry="3" style="stroke:#038048;stroke-width:1.0;"/><text fill="#000000" font-family="sans-serif" font-size="11" lengthAdjust="spacing" textLength="109" x="375.5" y="573.4502">int set_fifo(int* fifo_fd)</text><ellipse cx="366.5" cy="582.8672" fill="#84BE84" rx="3" ry="3" style="stroke:#038048;stroke-width:1.0;"/><text fill="#000000" font-family="sans-serif" font-size="11" lengthAdjust="spacing" textLength="136" x="375.5" y="587.2861">int set_values(uint8_t value)</text><ellipse cx="366.5" cy="596.7031" fill="#84BE84" rx="3" ry="3" style="stroke:#038048;stroke-width:1.0;"/><text fill="#000000" font-family="sans-serif" font-size="11" lengthAdjust="spacing" textLength="213" x="375.5" y="601.1221">int set_values(uint8_t *values, uint16_t size)</text><ellipse cx="366.5" cy="610.5391" fill="#84BE84" rx="3" ry="3" style="stroke:#038048;stroke-width:1.0;"/><text fill="#000000" font-family="sans-serif" font-size="11" lengthAdjust="spacing" textLength="204" x="375.5" y="614.958">buffer_t* encode(buffer_t* encoded_msg)</text><ellipse cx="366.5" cy="624.375" fill="#84BE84" rx="3" ry="3" style="stroke:#038048;stroke-width:1.0;"/><text fill="#000000" font-family="sans-serif" font-size="11" lengthAdjust="spacing" textLength="181" x="375.5" y="628.7939">int decode(buffer_t* msg_to_decode)</text><line style="stroke:#A80036;stroke-width:1.0;" x1="356.5" x2="514" y1="527.4414" y2="527.4414"/><text fill="#000000" font-family="sans-serif" font-size="11" lengthAdjust="spacing" textLength="28" x="514" y="531.4424">Public</text><line style="stroke:#A80036;stroke-width:1.0;" x1="542" x2="699.5" y1="527.4414" y2="527.4414"/><!--MD5=[5b296fcb86e66f3b2b94a895ed44520a]
class x01_send_sound_packet--><rect codeLine="187" fill="#FEFECE" filter="url(#f1esprl24f1iu)" height="235.8672" id="x01_send_sound_packet" style="stroke:#A80036;stroke-width:1.5;" width="239" x="80.5" y="695"/><ellipse cx="126.25" cy="711" fill="#ADD1B2" rx="11" ry="11" style="stroke:#A80036;stroke-width:1.0;"/><path d="M129.0156,706.875 Q129.1719,706.6563 129.3594,706.5469 Q129.5469,706.4375 129.7656,706.4375 Q130.1406,706.4375 130.375,706.6953 Q130.6094,706.9531 130.6094,707.5625 L130.6094,709.0156 Q130.6094,709.625 130.375,709.8906 Q130.1406,710.1563 129.7656,710.1563 Q129.4219,710.1563 129.2188,709.9531 Q129.0156,709.7656 128.9063,709.25 Q128.8594,708.8906 128.6719,708.7031 Q128.3438,708.3281 127.7344,708.1094 Q127.125,707.8906 126.5,707.8906 Q125.7344,707.8906 125.1016,708.2188 Q124.4688,708.5469 123.9766,709.2969 Q123.4844,710.0469 123.4844,711.0781 L123.4844,712.1719 Q123.4844,713.4063 124.375,714.2266 Q125.2656,715.0469 126.8594,715.0469 Q127.7969,715.0469 128.4531,714.7969 Q128.8438,714.6406 129.2656,714.2031 Q129.5313,713.9375 129.6797,713.8594 Q129.8281,713.7813 130.0313,713.7813 Q130.3594,713.7813 130.6172,714.0391 Q130.875,714.2969 130.875,714.6406 Q130.875,714.9844 130.5313,715.3906 Q130.0313,715.9688 129.2344,716.2969 Q128.1563,716.75 126.8594,716.75 Q125.3438,716.75 124.1406,716.125 Q123.1563,715.625 122.4688,714.5547 Q121.7813,713.4844 121.7813,712.2031 L121.7813,711.0469 Q121.7813,709.7188 122.3984,708.5703 Q123.0156,707.4219 124.1094,706.8047 Q125.2031,706.1875 126.4375,706.1875 Q127.1719,706.1875 127.8203,706.3516 Q128.4688,706.5156 129.0156,706.875 Z " fill="#000000"/><text fill="#000000" font-family="sans-serif" font-size="12" lengthAdjust="spacing" textLength="139" x="146.75" y="715.9102">x01_send_sound_packet</text><line style="stroke:#A80036;stroke-width:1.5;" x1="81.5" x2="318.5" y1="727" y2="727"/><rect fill="none" height="6" style="stroke:#C82930;stroke-width:1.0;" width="6" x="88.5" y="752.8359"/><text fill="#000000" font-family="sans-serif" font-size="11" lengthAdjust="spacing" textLength="89" x="100.5" y="760.2549">uint8_t* p_payload</text><rect fill="none" height="6" style="stroke:#C82930;stroke-width:1.0;" width="6" x="88.5" y="766.6719"/><text fill="#000000" font-family="sans-serif" font-size="11" lengthAdjust="spacing" textLength="105" x="100.5" y="774.0908">uint16_t payload_size</text><rect fill="none" height="6" style="stroke:#C82930;stroke-width:1.0;" width="6" x="88.5" y="780.5078"/><text fill="#000000" font-family="sans-serif" font-size="11" lengthAdjust="spacing" textLength="46" x="100.5" y="787.9268">int fifo_fd</text><rect fill="none" height="6" style="stroke:#C82930;stroke-width:1.0;" width="6" x="88.5" y="794.3438"/><text fill="#000000" font-family="sans-serif" font-size="11" lengthAdjust="spacing" textLength="79" x="100.5" y="801.7627">long long int time</text><line style="stroke:#A80036;stroke-width:1.0;" x1="81.5" x2="183.5" y1="741.918" y2="741.918"/><text fill="#000000" font-family="sans-serif" font-size="11" lengthAdjust="spacing" textLength="33" x="183.5" y="745.9189">Private</text><line style="stroke:#A80036;stroke-width:1.0;" x1="216.5" x2="318.5" y1="741.918" y2="741.918"/><line style="stroke:#A80036;stroke-width:1.5;" x1="81.5" x2="318.5" y1="808.1797" y2="808.1797"/><ellipse cx="91.5" cy="837.0156" fill="#84BE84" rx="3" ry="3" style="stroke:#038048;stroke-width:1.0;"/><text fill="#000000" font-family="sans-serif" font-size="11" lengthAdjust="spacing" textLength="130" x="100.5" y="841.4346">x01_send_sound_packet()</text><ellipse cx="91.5" cy="850.8516" fill="#84BE84" rx="3" ry="3" style="stroke:#038048;stroke-width:1.0;"/><text fill="#000000" font-family="sans-serif" font-size="11" lengthAdjust="spacing" textLength="139" x="100.5" y="855.2705">int set_fifo(const int* fifo_fd)</text><ellipse cx="91.5" cy="864.6875" fill="#84BE84" rx="3" ry="3" style="stroke:#038048;stroke-width:1.0;"/><text fill="#000000" font-family="sans-serif" font-size="11" lengthAdjust="spacing" textLength="161" x="100.5" y="869.1064">int set_values(long long int value)</text><ellipse cx="91.5" cy="878.5234" fill="#84BE84" rx="3" ry="3" style="stroke:#038048;stroke-width:1.0;"/><text fill="#000000" font-family="sans-serif" font-size="11" lengthAdjust="spacing" textLength="213" x="100.5" y="882.9424">int set_values(uint8_t *values, uint16_t size)</text><ellipse cx="91.5" cy="892.3594" fill="#84BE84" rx="3" ry="3" style="stroke:#038048;stroke-width:1.0;"/><text fill="#000000" font-family="sans-serif" font-size="11" lengthAdjust="spacing" textLength="204" x="100.5" y="896.7783">buffer_t* encode(buffer_t* encoded_msg)</text><ellipse cx="91.5" cy="906.1953" fill="#84BE84" rx="3" ry="3" style="stroke:#038048;stroke-width:1.0;"/><text fill="#000000" font-family="sans-serif" font-size="11" lengthAdjust="spacing" textLength="190" x="100.5" y="910.6143">void decode(buffer_t* msg_to_decode)</text><ellipse cx="91.5" cy="920.0313" fill="#84BE84" rx="3" ry="3" style="stroke:#038048;stroke-width:1.0;"/><text fill="#000000" font-family="sans-serif" font-size="11" lengthAdjust="spacing" textLength="47" x="100.5" y="924.4502">int reset()</text><line style="stroke:#A80036;stroke-width:1.0;" x1="81.5" x2="186" y1="823.0977" y2="823.0977"/><text fill="#000000" font-family="sans-serif" font-size="11" lengthAdjust="spacing" textLength="28" x="186" y="827.0986">Public</text><line style="stroke:#A80036;stroke-width:1.0;" x1="214" x2="318.5" y1="823.0977" y2="823.0977"/><!--MD5=[6f3119a484ac264f38140fcf4dd4869c]
class xF1_check_connection--><rect codeLine="204" fill="#FEFECE" filter="url(#f1esprl24f1iu)" height="166.6875" id="xF1_check_connection" style="stroke:#A80036;stroke-width:1.5;" width="230" x="355" y="729.5"/><ellipse cx="403.25" cy="745.5" fill="#ADD1B2" rx="11" ry="11" style="stroke:#A80036;stroke-width:1.0;"/><path d="M406.0156,741.375 Q406.1719,741.1563 406.3594,741.0469 Q406.5469,740.9375 406.7656,740.9375 Q407.1406,740.9375 407.375,741.1953 Q407.6094,741.4531 407.6094,742.0625 L407.6094,743.5156 Q407.6094,744.125 407.375,744.3906 Q407.1406,744.6563 406.7656,744.6563 Q406.4219,744.6563 406.2188,744.4531 Q406.0156,744.2656 405.9063,743.75 Q405.8594,743.3906 405.6719,743.2031 Q405.3438,742.8281 404.7344,742.6094 Q404.125,742.3906 403.5,742.3906 Q402.7344,742.3906 402.1016,742.7188 Q401.4688,743.0469 400.9766,743.7969 Q400.4844,744.5469 400.4844,745.5781 L400.4844,746.6719 Q400.4844,747.9063 401.375,748.7266 Q402.2656,749.5469 403.8594,749.5469 Q404.7969,749.5469 405.4531,749.2969 Q405.8438,749.1406 406.2656,748.7031 Q406.5313,748.4375 406.6797,748.3594 Q406.8281,748.2813 407.0313,748.2813 Q407.3594,748.2813 407.6172,748.5391 Q407.875,748.7969 407.875,749.1406 Q407.875,749.4844 407.5313,749.8906 Q407.0313,750.4688 406.2344,750.7969 Q405.1563,751.25 403.8594,751.25 Q402.3438,751.25 401.1406,750.625 Q400.1563,750.125 399.4688,749.0547 Q398.7813,747.9844 398.7813,746.7031 L398.7813,745.5469 Q398.7813,744.2188 399.3984,743.0703 Q400.0156,741.9219 401.1094,741.3047 Q402.2031,740.6875 403.4375,740.6875 Q404.1719,740.6875 404.8203,740.8516 Q405.4688,741.0156 406.0156,741.375 Z " fill="#000000"/><text fill="#000000" font-family="sans-serif" font-size="12" lengthAdjust="spacing" textLength="125" x="423.75" y="750.4102">xF1_check_connection</text><line style="stroke:#A80036;stroke-width:1.5;" x1="356" x2="584" y1="761.5" y2="761.5"/><rect fill="none" height="6" style="stroke:#C82930;stroke-width:1.0;" width="6" x="363" y="787.3359"/><text fill="#000000" font-family="sans-serif" font-size="11" lengthAdjust="spacing" textLength="117" x="375" y="794.7549">uint8_t acknowledgment</text><line style="stroke:#A80036;stroke-width:1.0;" x1="356" x2="453.5" y1="776.418" y2="776.418"/><text fill="#000000" font-family="sans-serif" font-size="11" lengthAdjust="spacing" textLength="33" x="453.5" y="780.4189">Private</text><line style="stroke:#A80036;stroke-width:1.0;" x1="486.5" x2="584" y1="776.418" y2="776.418"/><line style="stroke:#A80036;stroke-width:1.5;" x1="356" x2="584" y1="801.1719" y2="801.1719"/><ellipse cx="366" cy="830.0078" fill="#84BE84" rx="3" ry="3" style="stroke:#038048;stroke-width:1.0;"/><text fill="#000000" font-family="sans-serif" font-size="11" lengthAdjust="spacing" textLength="120" x="375" y="834.4268">xF1_check_connection()</text><ellipse cx="366" cy="843.8438" fill="#84BE84" rx="3" ry="3" style="stroke:#038048;stroke-width:1.0;"/><text fill="#000000" font-family="sans-serif" font-size="11" lengthAdjust="spacing" textLength="136" x="375" y="848.2627">int set_values(uint8_t value)</text><ellipse cx="366" cy="857.6797" fill="#84BE84" rx="3" ry="3" style="stroke:#038048;stroke-width:1.0;"/><text fill="#000000" font-family="sans-serif" font-size="11" lengthAdjust="spacing" textLength="47" x="375" y="862.0986">int reset()</text><ellipse cx="366" cy="871.5156" fill="#84BE84" rx="3" ry="3" style="stroke:#038048;stroke-width:1.0;"/><text fill="#000000" font-family="sans-serif" font-size="11" lengthAdjust="spacing" textLength="204" x="375" y="875.9346">buffer_t* encode(buffer_t* encoded_msg)</text><ellipse cx="366" cy="885.3516" fill="#84BE84" rx="3" ry="3" style="stroke:#038048;stroke-width:1.0;"/><text fill="#000000" font-family="sans-serif" font-size="11" lengthAdjust="spacing" textLength="134" x="375" y="889.7705">int decode(buffer_t* buffer)</text><line style="stroke:#A80036;stroke-width:1.0;" x1="356" x2="456" y1="816.0898" y2="816.0898"/><text fill="#000000" font-family="sans-serif" font-size="11" lengthAdjust="spacing" textLength="28" x="456" y="820.0908">Public</text><line style="stroke:#A80036;stroke-width:1.0;" x1="484" x2="584" y1="816.0898" y2="816.0898"/><!--MD5=[28259ee0a324b3680af8e6871fafafa9]
class supported_cid_t--><rect codeLine="124" fill="#FEFECE" filter="url(#f1esprl24f1iu)" height="48" id="supported_cid_t" style="stroke:#A80036;stroke-width:1.5;" width="121" x="763.5" y="789"/><ellipse cx="778.5" cy="805" fill="#EB937F" rx="11" ry="11" style="stroke:#A80036;stroke-width:1.0;"/><path d="M777.3594,805.7969 L777.3594,808.2969 L781.6875,808.2969 L781.6875,807.375 Q781.6875,806.7656 781.9297,806.5 Q782.1719,806.2344 782.5469,806.2344 Q782.9219,806.2344 783.1563,806.5 Q783.3906,806.7656 783.3906,807.375 L783.3906,810 L775.3906,810 Q774.7656,810 774.5078,809.7656 Q774.25,809.5313 774.25,809.1406 Q774.25,808.7656 774.5156,808.5313 Q774.7813,808.2969 775.3906,808.2969 L775.6563,808.2969 L775.6563,801.6406 L775.3906,801.6406 Q774.7656,801.6406 774.5078,801.4063 Q774.25,801.1719 774.25,800.7813 Q774.25,800.4063 774.5078,800.1719 Q774.7656,799.9375 775.3906,799.9375 L783.0156,799.9375 L783.0156,802.5313 Q783.0156,803.1406 782.7891,803.3984 Q782.5625,803.6563 782.1719,803.6563 Q781.7969,803.6563 781.5625,803.3984 Q781.3281,803.1406 781.3281,802.5313 L781.3281,801.6406 L777.3594,801.6406 L777.3594,804.0938 L778.8438,804.0938 Q778.8438,803.4375 778.9688,803.25 Q779.2344,802.8438 779.7031,802.8438 Q780.0781,802.8438 780.3125,803.1016 Q780.5469,803.3594 780.5469,803.9688 L780.5469,805.9375 Q780.5469,806.4844 780.4219,806.6719 Q780.1563,807.0625 779.7031,807.0625 Q779.2344,807.0625 778.9688,806.6563 Q778.8438,806.4688 778.8438,805.7969 L777.3594,805.7969 Z " fill="#000000"/><text fill="#000000" font-family="sans-serif" font-size="12" lengthAdjust="spacing" textLength="89" x="792.5" y="809.9102">supported_cid_t</text><line style="stroke:#A80036;stroke-width:1.5;" x1="764.5" x2="883.5" y1="821" y2="821"/><line style="stroke:#A80036;stroke-width:1.5;" x1="764.5" x2="883.5" y1="829" y2="829"/><!--MD5=[13f11d6ce3dd868243b5b3d4cc94b5a4]
class buffer_t--><rect codeLine="125" fill="#FEFECE" filter="url(#f1esprl24f1iu)" height="48" id="buffer_t" style="stroke:#A80036;stroke-width:1.5;" width="73" x="655.5" y="789"/><ellipse cx="670.5" cy="805" fill="#ADD1B2" rx="11" ry="11" style="stroke:#A80036;stroke-width:1.0;"/><path d="M673.2656,800.875 Q673.4219,800.6563 673.6094,800.5469 Q673.7969,800.4375 674.0156,800.4375 Q674.3906,800.4375 674.625,800.6953 Q674.8594,800.9531 674.8594,801.5625 L674.8594,803.0156 Q674.8594,803.625 674.625,803.8906 Q674.3906,804.1563 674.0156,804.1563 Q673.6719,804.1563 673.4688,803.9531 Q673.2656,803.7656 673.1563,803.25 Q673.1094,802.8906 672.9219,802.7031 Q672.5938,802.3281 671.9844,802.1094 Q671.375,801.8906 670.75,801.8906 Q669.9844,801.8906 669.3516,802.2188 Q668.7188,802.5469 668.2266,803.2969 Q667.7344,804.0469 667.7344,805.0781 L667.7344,806.1719 Q667.7344,807.4063 668.625,808.2266 Q669.5156,809.0469 671.1094,809.0469 Q672.0469,809.0469 672.7031,808.7969 Q673.0938,808.6406 673.5156,808.2031 Q673.7813,807.9375 673.9297,807.8594 Q674.0781,807.7813 674.2813,807.7813 Q674.6094,807.7813 674.8672,808.0391 Q675.125,808.2969 675.125,808.6406 Q675.125,808.9844 674.7813,809.3906 Q674.2813,809.9688 673.4844,810.2969 Q672.4063,810.75 671.1094,810.75 Q669.5938,810.75 668.3906,810.125 Q667.4063,809.625 666.7188,808.5547 Q666.0313,807.4844 666.0313,806.2031 L666.0313,805.0469 Q666.0313,803.7188 666.6484,802.5703 Q667.2656,801.4219 668.3594,800.8047 Q669.4531,800.1875 670.6875,800.1875 Q671.4219,800.1875 672.0703,800.3516 Q672.7188,800.5156 673.2656,800.875 Z " fill="#000000"/><text fill="#000000" font-family="sans-serif" font-size="12" lengthAdjust="spacing" textLength="41" x="684.5" y="809.9102">buffer_t</text><line style="stroke:#A80036;stroke-width:1.5;" x1="656.5" x2="727.5" y1="821" y2="821"/><line style="stroke:#A80036;stroke-width:1.5;" x1="656.5" x2="727.5" y1="829" y2="829"/><!--MD5=[d1515d178fad2bf0f45f27ac1a5c0712]
class UDP_client--><rect codeLine="134" fill="#FEFECE" filter="url(#f1esprl24f1iu)" height="48" id="UDP_client" style="stroke:#A80036;stroke-width:1.5;" width="94" x="1156" y="461.5"/><ellipse cx="1171" cy="477.5" fill="#ADD1B2" rx="11" ry="11" style="stroke:#A80036;stroke-width:1.0;"/><path d="M1173.7656,473.375 Q1173.9219,473.1563 1174.1094,473.0469 Q1174.2969,472.9375 1174.5156,472.9375 Q1174.8906,472.9375 1175.125,473.1953 Q1175.3594,473.4531 1175.3594,474.0625 L1175.3594,475.5156 Q1175.3594,476.125 1175.125,476.3906 Q1174.8906,476.6563 1174.5156,476.6563 Q1174.1719,476.6563 1173.9688,476.4531 Q1173.7656,476.2656 1173.6563,475.75 Q1173.6094,475.3906 1173.4219,475.2031 Q1173.0938,474.8281 1172.4844,474.6094 Q1171.875,474.3906 1171.25,474.3906 Q1170.4844,474.3906 1169.8516,474.7188 Q1169.2188,475.0469 1168.7266,475.7969 Q1168.2344,476.5469 1168.2344,477.5781 L1168.2344,478.6719 Q1168.2344,479.9063 1169.125,480.7266 Q1170.0156,481.5469 1171.6094,481.5469 Q1172.5469,481.5469 1173.2031,481.2969 Q1173.5938,481.1406 1174.0156,480.7031 Q1174.2813,480.4375 1174.4297,480.3594 Q1174.5781,480.2813 1174.7813,480.2813 Q1175.1094,480.2813 1175.3672,480.5391 Q1175.625,480.7969 1175.625,481.1406 Q1175.625,481.4844 1175.2813,481.8906 Q1174.7813,482.4688 1173.9844,482.7969 Q1172.9063,483.25 1171.6094,483.25 Q1170.0938,483.25 1168.8906,482.625 Q1167.9063,482.125 1167.2188,481.0547 Q1166.5313,479.9844 1166.5313,478.7031 L1166.5313,477.5469 Q1166.5313,476.2188 1167.1484,475.0703 Q1167.7656,473.9219 1168.8594,473.3047 Q1169.9531,472.6875 1171.1875,472.6875 Q1171.9219,472.6875 1172.5703,472.8516 Q1173.2188,473.0156 1173.7656,473.375 Z " fill="#000000"/><text fill="#000000" font-family="sans-serif" font-size="12" lengthAdjust="spacing" textLength="62" x="1185" y="482.4102">UDP_client</text><line style="stroke:#A80036;stroke-width:1.5;" x1="1157" x2="1249" y1="493.5" y2="493.5"/><line style="stroke:#A80036;stroke-width:1.5;" x1="1157" x2="1249" y1="501.5" y2="501.5"/><!--MD5=[33bda69caa66fb7c99eaf82bc543b74e]
class UDP_server--><rect codeLine="135" fill="#FEFECE" filter="url(#f1esprl24f1iu)" height="48" id="UDP_server" style="stroke:#A80036;stroke-width:1.5;" width="99" x="1021.5" y="461.5"/><ellipse cx="1036.5" cy="477.5" fill="#ADD1B2" rx="11" ry="11" style="stroke:#A80036;stroke-width:1.0;"/><path d="M1039.2656,473.375 Q1039.4219,473.1563 1039.6094,473.0469 Q1039.7969,472.9375 1040.0156,472.9375 Q1040.3906,472.9375 1040.625,473.1953 Q1040.8594,473.4531 1040.8594,474.0625 L1040.8594,475.5156 Q1040.8594,476.125 1040.625,476.3906 Q1040.3906,476.6563 1040.0156,476.6563 Q1039.6719,476.6563 1039.4688,476.4531 Q1039.2656,476.2656 1039.1563,475.75 Q1039.1094,475.3906 1038.9219,475.2031 Q1038.5938,474.8281 1037.9844,474.6094 Q1037.375,474.3906 1036.75,474.3906 Q1035.9844,474.3906 1035.3516,474.7188 Q1034.7188,475.0469 1034.2266,475.7969 Q1033.7344,476.5469 1033.7344,477.5781 L1033.7344,478.6719 Q1033.7344,479.9063 1034.625,480.7266 Q1035.5156,481.5469 1037.1094,481.5469 Q1038.0469,481.5469 1038.7031,481.2969 Q1039.0938,481.1406 1039.5156,480.7031 Q1039.7813,480.4375 1039.9297,480.3594 Q1040.0781,480.2813 1040.2813,480.2813 Q1040.6094,480.2813 1040.8672,480.5391 Q1041.125,480.7969 1041.125,481.1406 Q1041.125,481.4844 1040.7813,481.8906 Q1040.2813,482.4688 1039.4844,482.7969 Q1038.4063,483.25 1037.1094,483.25 Q1035.5938,483.25 1034.3906,482.625 Q1033.4063,482.125 1032.7188,481.0547 Q1032.0313,479.9844 1032.0313,478.7031 L1032.0313,477.5469 Q1032.0313,476.2188 1032.6484,475.0703 Q1033.2656,473.9219 1034.3594,473.3047 Q1035.4531,472.6875 1036.6875,472.6875 Q1037.4219,472.6875 1038.0703,472.8516 Q1038.7188,473.0156 1039.2656,473.375 Z " fill="#000000"/><text fill="#000000" font-family="sans-serif" font-size="12" lengthAdjust="spacing" textLength="67" x="1050.5" y="482.4102">UDP_server</text><line style="stroke:#A80036;stroke-width:1.5;" x1="1022.5" x2="1119.5" y1="493.5" y2="493.5"/><line style="stroke:#A80036;stroke-width:1.5;" x1="1022.5" x2="1119.5" y1="501.5" y2="501.5"/><!--MD5=[819560a7ae37cec3121a30417fb867bb]
link SZP_master to sound_zone_protocol--><path codeLine="115" d="M735.1,238.89 C710.26,268.36 681.48,302.49 653.42,335.76 " fill="none" id="SZP_master-to-sound_zone_protocol" style="stroke:#A80036;stroke-width:1.0;"/><polygon fill="#FFFFFF" points="653.42,335.76,660.346,333.7523,661.1566,326.5869,654.2306,328.5946,653.42,335.76" style="stroke:#A80036;stroke-width:1.0;"/><!--MD5=[8624d67ac5351fc796ea96f52dbebcea]
link SZP_slave to sound_zone_protocol--><path codeLine="116" d="M528,268.13 C528,289.97 528,313.18 528,335.99 " fill="none" id="SZP_slave-to-sound_zone_protocol" style="stroke:#A80036;stroke-width:1.0;"/><polygon fill="#FFFFFF" points="528,335.99,532,329.99,528,323.99,524,329.99,528,335.99" style="stroke:#A80036;stroke-width:1.0;"/><!--MD5=[70f76a486a09aafcce574086cf8c40ea]
link sound_zone_protocol to x01_send_sound_packet--><path codeLine="119" d="M377.92,635.44 C361.14,652.09 344.16,668.94 327.7,685.27 " fill="none" id="sound_zone_protocol-to-x01_send_sound_packet" style="stroke:#A80036;stroke-width:1.0;"/><polygon fill="#A80036" points="318.07,694.83,325.1465,693.4433,326.5882,686.3777,319.5117,687.7645,318.07,694.83" style="stroke:#A80036;stroke-width:1.0;"/><!--MD5=[5b47c71b27b187e9f8e12adb66d980a4]
link sound_zone_protocol to xF1_check_connection--><path codeLine="120" d="M501.46,635.44 C496.56,662.95 491.56,690.99 487.04,716.39 " fill="none" id="sound_zone_protocol-to-xF1_check_connection" style="stroke:#A80036;stroke-width:1.0;"/><polygon fill="#A80036" points="484.72,729.41,489.7068,724.2012,486.8167,717.5946,481.8299,722.8034,484.72,729.41" style="stroke:#A80036;stroke-width:1.0;"/><!--MD5=[d395419fccc967cdeb3695daafd26b11]
link sound_zone_protocol to szp_custom_types--><path codeLine="121" d="M598.42,635.25 C605.49,654.99 611.65,675.24 616,695 C618.755,707.505 620.3963,720.9413 621.3052,734.093 C621.5324,737.3809 621.7138,740.651 621.8555,743.8844 C621.8643,744.0865 621.873,744.2884 621.8816,744.4902 " fill="none" id="sound_zone_protocol-to-szp_custom_types" style="stroke:#A80036;stroke-width:1.0;"/><polygon fill="#A80036" points="621.8816,744.4902,625.6242,738.3264,621.374,732.501,617.6314,738.6648,621.8816,744.4902" style="stroke:#A80036;stroke-width:1.0;"/><!--MD5=[d63e008edd9545a95f94b6841a9578f6]
link SZP_master to UDP_client--><path codeLine="131" d="M965.04,182.12 C1026.28,199.48 1092.32,228.28 1138,276 C1183.5,323.53 1197.18,402.44 1201.28,448.34 " fill="none" id="SZP_master-to-UDP_client" style="stroke:#A80036;stroke-width:1.0;"/><polygon fill="#A80036" points="1202.26,461.45,1205.8002,455.1677,1201.3628,449.4836,1197.8226,455.7658,1202.26,461.45" style="stroke:#A80036;stroke-width:1.0;"/><!--MD5=[db18abf83db8f090ed0662d17841ad27]
link SZP_slave to UDP_server--><path codeLine="132" d="M609.57,257.42 C615.46,261.46 621.61,265.04 628,268 C659.57,282.62 910.8,258.73 941,276 C1006.98,313.72 1044.09,399.93 1060.55,448.86 " fill="none" id="SZP_slave-to-UDP_server" style="stroke:#A80036;stroke-width:1.0;"/><polygon fill="#A80036" points="1064.57,461.31,1066.5301,454.3704,1060.8783,449.892,1058.9181,456.8316,1064.57,461.31" style="stroke:#A80036;stroke-width:1.0;"/><!--MD5=[b573e51cbb82afe5c55c95b966358ace]
@startuml class_diagram

package SZP {
    SZP_master - -o sound_zone_protocol
    SZP_slave - -o sound_zone_protocol

    package sound_zone_protocol {
    sound_zone_protocol - -* x01_send_sound_packet
    sound_zone_protocol - -* xF1_check_connection
    sound_zone_protocol - -* szp_custom_types

    package szp_custom_types{
        enum supported_cid_t{}
        class buffer_t{}
    }
    }
}

package DataTransport{
    SZP_master - -* UDP_client
    SZP_slave - -* UDP_server

    class UDP_client{}
    class UDP_server{}
}

class SZP_master{
    - -Private- -
    - UDP_client dt
    - uint8_t comm_buffer[]
    ___
    - -Public- -
    + SZP_master()
    + SZP_master(char *host, bool is_ip)
    + int check_connection()
    + int send_sound_packet(uint8_t* buffer, uint16_t packet_size)
}

class SZP_slave{
    - -Private- -
    - UDP_server dt
    - char* fifo_name
    - uint8_t comm_buffer[]
    ___
    - -Private- -
    - int encode_and_send()
    - int react_on_incoming()
    - -Public- -
    + SZP_slave(char* fifo_name)
    + ~SZP_slave()
    + int open_fifo()
    + int recieve()
}

class sound_zone_protocol {
    - -Protected- -
    # buffer_t* p_buffer
    # supported_cid_t cid
    # xF1_check_connection* check_connection
    # x01_send_sound_packet* send_sound_packet
    ___
    - -Private- -
    - static supported_cid_t initial_decode(uint8_t cid)
    - -Protected- -
    # uint16_t encode_and_send()
    - -Public- -
    + sound_zone_protocol()
    + sound_zone_protocol(uint8_t* comm_buffer, uint16_t buffer_size)
    + int set_fifo(int* fifo_fd)
    + int set_values(uint8_t value)
    + int set_values(uint8_t *values, uint16_t size)
    + buffer_t* encode(buffer_t* encoded_msg)
    + int decode(buffer_t* msg_to_decode)
}

class x01_send_sound_packet {
    - -Private- -
    - uint8_t* p_payload
    - uint16_t payload_size
    - int fifo_fd
    - long long int time
    ___
    - -Public- -
    + x01_send_sound_packet()
    + int set_fifo(const int* fifo_fd)
    + int set_values(long long int value)
    + int set_values(uint8_t *values, uint16_t size)
    + buffer_t* encode(buffer_t* encoded_msg)
    + void decode(buffer_t* msg_to_decode)
    + int reset()
}

class xF1_check_connection {
    - -Private- -
    - uint8_t acknowledgment
    ___
    - -Public- -
    + xF1_check_connection()
    + int set_values(uint8_t value)
    + int reset()
    + buffer_t* encode(buffer_t* encoded_msg)
    + int decode(buffer_t* buffer)
}

@enduml

PlantUML version 1.2021.10(Mon Aug 30 15:43:48 CEST 2021)
(GPL source distribution)
Java Runtime: Java(TM) SE Runtime Environment
JVM: Java HotSpot(TM) 64-Bit Server VM
Default Encoding: Cp1252
Language: en
Country: US
--></g></svg>