<?xml version="1.0" encoding="UTF-8" standalone="no"?><svg xmlns="http://www.w3.org/2000/svg" xmlns:xlink="http://www.w3.org/1999/xlink" contentScriptType="application/ecmascript" contentStyleType="text/css" height="417px" preserveAspectRatio="none" style="width:298px;height:417px;background:#FFFFFF;" version="1.1" viewBox="0 0 298 417" width="298px" zoomAndPan="magnify"><defs><filter height="300%" id="f1syzbzdet4597" width="300%" x="-1" y="-1"><feGaussianBlur result="blurOut" stdDeviation="2.0"/><feColorMatrix in="blurOut" result="blurOut2" type="matrix" values="0 0 0 0 0 0 0 0 0 0 0 0 0 0 0 0 0 0 .4 0"/><feOffset dx="4.0" dy="4.0" in="blurOut2" result="blurOut3"/><feBlend in="SourceGraphic" in2="blurOut3" mode="normal"/></filter></defs><g><ellipse cx="136.5" cy="20" fill="#000000" filter="url(#f1syzbzdet4597)" rx="10" ry="10" style="stroke:none;stroke-width:1.0;"/><rect fill="#FEFECE" filter="url(#f1syzbzdet4597)" height="35.0938" rx="12.5" ry="12.5" style="stroke:#A80036;stroke-width:1.5;" width="191" x="41" y="98.918"/><text fill="#000000" font-family="sans-serif" font-size="12" lengthAdjust="spacing" textLength="171" x="51" y="121.375">tmp_msg_size = dt.get_buffer()</text><rect fill="#FEFECE" filter="url(#f1syzbzdet4597)" height="35.0938" rx="12.5" ry="12.5" style="stroke:#A80036;stroke-width:1.5;" width="251" x="11" y="154.0117"/><text fill="#000000" font-family="sans-serif" font-size="12" lengthAdjust="spacing" textLength="231" x="21" y="176.4688">p_buffer-&gt;set_write_head(tmp_msg_size)</text><rect fill="#FEFECE" filter="url(#f1syzbzdet4597)" height="35.0938" rx="12.5" ry="12.5" style="stroke:#A80036;stroke-width:1.5;" width="95" x="89" y="224.1055"/><text fill="#000000" font-family="sans-serif" font-size="12" lengthAdjust="spacing" textLength="75" x="99" y="246.5625">decode buffer</text><rect fill="#FEFECE" filter="url(#f1syzbzdet4597)" height="35.0938" rx="12.5" ry="12.5" style="stroke:#A80036;stroke-width:1.5;" width="166" x="53.5" y="279.1992"/><text fill="#000000" font-family="sans-serif" font-size="12" lengthAdjust="spacing" textLength="146" x="63.5" y="301.6563">get_values(&amp;time_to_play)</text><polygon fill="#FEFECE" filter="url(#f1syzbzdet4597)" points="87.5,50,185.5,50,197.5,62,185.5,74,87.5,74,75.5,62,87.5,50" style="stroke:#A80036;stroke-width:1.5;"/><text fill="#000000" font-family="sans-serif" font-size="11" lengthAdjust="spacing" textLength="19" x="140.5" y="85.4189">true</text><text fill="#000000" font-family="sans-serif" font-size="11" lengthAdjust="spacing" textLength="98" x="87.5" y="66.501">dt.receive(false) &gt; 0</text><polygon fill="#FEFECE" filter="url(#f1syzbzdet4597)" points="136.5,334.293,148.5,346.293,136.5,358.293,124.5,346.293,136.5,334.293" style="stroke:#A80036;stroke-width:1.5;"/><ellipse cx="136.5" cy="389.293" fill="#FFFFFF" filter="url(#f1syzbzdet4597)" rx="11" ry="11" style="stroke:#000000;stroke-width:1.0;"/><ellipse cx="136.5" cy="389.293" fill="#000000" rx="6" ry="6" style="stroke:#7F7F7F;stroke-width:1.0;"/><line style="stroke:#A80036;stroke-width:1.5;" x1="136.5" x2="136.5" y1="134.0117" y2="154.0117"/><polygon fill="#A80036" points="132.5,144.0117,136.5,154.0117,140.5,144.0117,136.5,148.0117" style="stroke:#A80036;stroke-width:1.0;"/><line style="stroke:#A80036;stroke-width:1.5;" x1="136.5" x2="136.5" y1="189.1055" y2="224.1055"/><polygon fill="#A80036" points="132.5,214.1055,136.5,224.1055,140.5,214.1055,136.5,218.1055" style="stroke:#A80036;stroke-width:1.0;"/><line style="stroke:#A80036;stroke-width:1.5;" x1="136.5" x2="136.5" y1="259.1992" y2="279.1992"/><polygon fill="#A80036" points="132.5,269.1992,136.5,279.1992,140.5,269.1992,136.5,273.1992" style="stroke:#A80036;stroke-width:1.0;"/><line style="stroke:#A80036;stroke-width:1.5;" x1="136.5" x2="136.5" y1="74" y2="98.918"/><polygon fill="#A80036" points="132.5,88.918,136.5,98.918,140.5,88.918,136.5,92.918" style="stroke:#A80036;stroke-width:1.0;"/><line style="stroke:#A80036;stroke-width:1.5;" x1="197.5" x2="272" y1="62" y2="62"/><polygon fill="#A80036" points="268,196.6055,272,206.6055,276,196.6055,272,200.6055" style="stroke:#A80036;stroke-width:1.5;"/><line style="stroke:#A80036;stroke-width:1.5;" x1="272" x2="272" y1="62" y2="346.293"/><line style="stroke:#A80036;stroke-width:1.5;" x1="272" x2="148.5" y1="346.293" y2="346.293"/><polygon fill="#A80036" points="158.5,342.293,148.5,346.293,158.5,350.293,154.5,346.293" style="stroke:#A80036;stroke-width:1.0;"/><line style="stroke:#A80036;stroke-width:1.5;" x1="136.5" x2="136.5" y1="314.293" y2="334.293"/><polygon fill="#A80036" points="132.5,324.293,136.5,334.293,140.5,324.293,136.5,328.293" style="stroke:#A80036;stroke-width:1.0;"/><line style="stroke:#A80036;stroke-width:1.5;" x1="136.5" x2="136.5" y1="30" y2="50"/><polygon fill="#A80036" points="132.5,40,136.5,50,140.5,40,136.5,44" style="stroke:#A80036;stroke-width:1.0;"/><line style="stroke:#A80036;stroke-width:1.5;" x1="136.5" x2="136.5" y1="358.293" y2="378.293"/><polygon fill="#A80036" points="132.5,368.293,136.5,378.293,140.5,368.293,136.5,372.293" style="stroke:#A80036;stroke-width:1.0;"/><!--MD5=[8f136e27ba2bb14a6853d4137bdc74a2]
@startuml flow_szp_slave

start
if (dt.receive(false) > 0) then (true)
    :tmp_msg_size = dt.get_buffer();
    :p_buffer->set_write_head(tmp_msg_size);
    :decode buffer;
    :get_values(&time_to_play);
endif

stop

@enduml

PlantUML version 1.2021.10(Mon Aug 30 15:43:48 CEST 2021)
(GPL source distribution)
Java Runtime: Java(TM) SE Runtime Environment
JVM: Java HotSpot(TM) 64-Bit Server VM
Default Encoding: Cp1252
Language: en
Country: US
--></g></svg>