<?xml version="1.0" encoding="UTF-8" standalone="no"?><svg xmlns="http://www.w3.org/2000/svg" xmlns:xlink="http://www.w3.org/1999/xlink" contentScriptType="application/ecmascript" contentStyleType="text/css" height="321px" preserveAspectRatio="none" style="width:468px;height:321px;background:#FFFFFF;" version="1.1" viewBox="0 0 468 321" width="468px" zoomAndPan="magnify"><defs><filter height="300%" id="fgrkahrk93s38" width="300%" x="-1" y="-1"><feGaussianBlur result="blurOut" stdDeviation="2.0"/><feColorMatrix in="blurOut" result="blurOut2" type="matrix" values="0 0 0 0 0 0 0 0 0 0 0 0 0 0 0 0 0 0 .4 0"/><feOffset dx="4.0" dy="4.0" in="blurOut2" result="blurOut3"/><feBlend in="SourceGraphic" in2="blurOut3" mode="normal"/></filter></defs><g><!--MD5=[9b35566ef05d5cde0f42c237ca30e91b]
cluster szp_custom_types--><polygon fill="#FFFFFF" filter="url(#fgrkahrk93s38)" points="16,6,151,6,158,29.6094,451,29.6094,451,314,16,314,16,6" style="stroke:#000000;stroke-width:1.5;"/><line style="stroke:#000000;stroke-width:1.5;" x1="16" x2="158" y1="29.6094" y2="29.6094"/><text fill="#000000" font-family="sans-serif" font-size="14" font-weight="bold" lengthAdjust="spacing" textLength="129" x="20" y="22.5332">szp_custom_types</text><!--MD5=[28259ee0a324b3680af8e6871fafafa9]
class supported_cid_t--><rect codeLine="233" fill="#FEFECE" filter="url(#fgrkahrk93s38)" height="117.1797" id="supported_cid_t" style="stroke:#A80036;stroke-width:1.5;" width="150" x="285" y="111.5"/><ellipse cx="313.05" cy="127.5" fill="#EB937F" rx="11" ry="11" style="stroke:#A80036;stroke-width:1.0;"/><path d="M311.9094,128.2969 L311.9094,130.7969 L316.2375,130.7969 L316.2375,129.875 Q316.2375,129.2656 316.4797,129 Q316.7219,128.7344 317.0969,128.7344 Q317.4719,128.7344 317.7063,129 Q317.9406,129.2656 317.9406,129.875 L317.9406,132.5 L309.9406,132.5 Q309.3156,132.5 309.0578,132.2656 Q308.8,132.0313 308.8,131.6406 Q308.8,131.2656 309.0656,131.0313 Q309.3313,130.7969 309.9406,130.7969 L310.2063,130.7969 L310.2063,124.1406 L309.9406,124.1406 Q309.3156,124.1406 309.0578,123.9063 Q308.8,123.6719 308.8,123.2813 Q308.8,122.9063 309.0578,122.6719 Q309.3156,122.4375 309.9406,122.4375 L317.5656,122.4375 L317.5656,125.0313 Q317.5656,125.6406 317.3391,125.8984 Q317.1125,126.1563 316.7219,126.1563 Q316.3469,126.1563 316.1125,125.8984 Q315.8781,125.6406 315.8781,125.0313 L315.8781,124.1406 L311.9094,124.1406 L311.9094,126.5938 L313.3938,126.5938 Q313.3938,125.9375 313.5188,125.75 Q313.7844,125.3438 314.2531,125.3438 Q314.6281,125.3438 314.8625,125.6016 Q315.0969,125.8594 315.0969,126.4688 L315.0969,128.4375 Q315.0969,128.9844 314.9719,129.1719 Q314.7063,129.5625 314.2531,129.5625 Q313.7844,129.5625 313.5188,129.1563 Q313.3938,128.9688 313.3938,128.2969 L311.9094,128.2969 Z " fill="#000000"/><text fill="#000000" font-family="sans-serif" font-size="12" lengthAdjust="spacing" textLength="89" x="329.95" y="132.4102">supported_cid_t</text><line style="stroke:#A80036;stroke-width:1.5;" x1="286" x2="434" y1="143.5" y2="143.5"/><text fill="#000000" font-family="sans-serif" font-size="11" lengthAdjust="spacing" textLength="136" x="291" y="158.9189">cid_send_sound_packet = 1</text><text fill="#000000" font-family="sans-serif" font-size="11" lengthAdjust="spacing" textLength="76" x="291" y="172.7549">cid_enroll = 161</text><text fill="#000000" font-family="sans-serif" font-size="11" lengthAdjust="spacing" textLength="138" x="291" y="186.5908">cid_set_sound_format = 179</text><text fill="#000000" font-family="sans-serif" font-size="11" lengthAdjust="spacing" textLength="138" x="291" y="200.4268">cid_check_connection = 241</text><text fill="#000000" font-family="sans-serif" font-size="11" lengthAdjust="spacing" textLength="81" x="291" y="214.2627">cid_notSet = 255</text><line style="stroke:#A80036;stroke-width:1.5;" x1="286" x2="434" y1="220.6797" y2="220.6797"/><!--MD5=[13f11d6ce3dd868243b5b3d4cc94b5a4]
class buffer_t--><rect codeLine="241" fill="#FEFECE" filter="url(#fgrkahrk93s38)" height="255.5391" id="buffer_t" style="stroke:#A80036;stroke-width:1.5;" width="218" x="32" y="42"/><ellipse cx="116.25" cy="58" fill="#ADD1B2" rx="11" ry="11" style="stroke:#A80036;stroke-width:1.0;"/><path d="M119.0156,53.875 Q119.1719,53.6563 119.3594,53.5469 Q119.5469,53.4375 119.7656,53.4375 Q120.1406,53.4375 120.375,53.6953 Q120.6094,53.9531 120.6094,54.5625 L120.6094,56.0156 Q120.6094,56.625 120.375,56.8906 Q120.1406,57.1563 119.7656,57.1563 Q119.4219,57.1563 119.2188,56.9531 Q119.0156,56.7656 118.9063,56.25 Q118.8594,55.8906 118.6719,55.7031 Q118.3438,55.3281 117.7344,55.1094 Q117.125,54.8906 116.5,54.8906 Q115.7344,54.8906 115.1016,55.2188 Q114.4688,55.5469 113.9766,56.2969 Q113.4844,57.0469 113.4844,58.0781 L113.4844,59.1719 Q113.4844,60.4063 114.375,61.2266 Q115.2656,62.0469 116.8594,62.0469 Q117.7969,62.0469 118.4531,61.7969 Q118.8438,61.6406 119.2656,61.2031 Q119.5313,60.9375 119.6797,60.8594 Q119.8281,60.7813 120.0313,60.7813 Q120.3594,60.7813 120.6172,61.0391 Q120.875,61.2969 120.875,61.6406 Q120.875,61.9844 120.5313,62.3906 Q120.0313,62.9688 119.2344,63.2969 Q118.1563,63.75 116.8594,63.75 Q115.3438,63.75 114.1406,63.125 Q113.1563,62.625 112.4688,61.5547 Q111.7813,60.4844 111.7813,59.2031 L111.7813,58.0469 Q111.7813,56.7188 112.3984,55.5703 Q113.0156,54.4219 114.1094,53.8047 Q115.2031,53.1875 116.4375,53.1875 Q117.1719,53.1875 117.8203,53.3516 Q118.4688,53.5156 119.0156,53.875 Z " fill="#000000"/><text fill="#000000" font-family="sans-serif" font-size="12" lengthAdjust="spacing" textLength="41" x="136.75" y="62.9102">buffer_t</text><line style="stroke:#A80036;stroke-width:1.5;" x1="33" x2="249" y1="74" y2="74"/><rect fill="none" height="6" style="stroke:#C82930;stroke-width:1.0;" width="6" x="40" y="99.8359"/><text fill="#000000" font-family="sans-serif" font-size="11" lengthAdjust="spacing" textLength="81" x="52" y="107.2549">uint8_t* p_buffer</text><rect fill="none" height="6" style="stroke:#C82930;stroke-width:1.0;" width="6" x="40" y="113.6719"/><text fill="#000000" font-family="sans-serif" font-size="11" lengthAdjust="spacing" textLength="97" x="52" y="121.0908">uint16_t buffer_size</text><rect fill="none" height="6" style="stroke:#C82930;stroke-width:1.0;" width="6" x="40" y="127.5078"/><text fill="#000000" font-family="sans-serif" font-size="11" lengthAdjust="spacing" textLength="96" x="52" y="134.9268">uint16_t write_head</text><rect fill="none" height="6" style="stroke:#C82930;stroke-width:1.0;" width="6" x="40" y="141.3438"/><text fill="#000000" font-family="sans-serif" font-size="11" lengthAdjust="spacing" textLength="93" x="52" y="148.7627">uint16_t read_head</text><line style="stroke:#A80036;stroke-width:1.0;" x1="33" x2="124.5" y1="88.918" y2="88.918"/><text fill="#000000" font-family="sans-serif" font-size="11" lengthAdjust="spacing" textLength="33" x="124.5" y="92.9189">Private</text><line style="stroke:#A80036;stroke-width:1.0;" x1="157.5" x2="249" y1="88.918" y2="88.918"/><ellipse cx="43" cy="176.0156" fill="#84BE84" rx="3" ry="3" style="stroke:#038048;stroke-width:1.0;"/><text fill="#000000" font-family="sans-serif" font-size="11" lengthAdjust="spacing" textLength="130" x="52" y="180.4346">buffer_t(uint8_t *, uint16_t)</text><ellipse cx="43" cy="189.8516" fill="#84BE84" rx="3" ry="3" style="stroke:#038048;stroke-width:1.0;"/><text fill="#000000" font-family="sans-serif" font-size="11" lengthAdjust="spacing" textLength="90" x="52" y="194.2705">int append(uint8_t)</text><ellipse cx="43" cy="203.6875" fill="#84BE84" rx="3" ry="3" style="stroke:#038048;stroke-width:1.0;"/><text fill="#000000" font-family="sans-serif" font-size="11" lengthAdjust="spacing" textLength="171" x="52" y="208.1064">int append(const uint8_t *, uint16_t)</text><ellipse cx="43" cy="217.5234" fill="#84BE84" rx="3" ry="3" style="stroke:#038048;stroke-width:1.0;"/><text fill="#000000" font-family="sans-serif" font-size="11" lengthAdjust="spacing" textLength="110" x="52" y="221.9424">int read_byte(uint8_t *)</text><ellipse cx="43" cy="231.3594" fill="#84BE84" rx="3" ry="3" style="stroke:#038048;stroke-width:1.0;"/><text fill="#000000" font-family="sans-serif" font-size="11" lengthAdjust="spacing" textLength="192" x="52" y="235.7783">int get_buffer_rest(uint8_t **, uint16_t *)</text><ellipse cx="43" cy="245.1953" fill="#84BE84" rx="3" ry="3" style="stroke:#038048;stroke-width:1.0;"/><text fill="#000000" font-family="sans-serif" font-size="11" lengthAdjust="spacing" textLength="47" x="52" y="249.6143">int reset()</text><ellipse cx="43" cy="259.0313" fill="#84BE84" rx="3" ry="3" style="stroke:#038048;stroke-width:1.0;"/><text fill="#000000" font-family="sans-serif" font-size="11" lengthAdjust="spacing" textLength="136" x="52" y="263.4502">int set_write_head(uint16_t)</text><ellipse cx="43" cy="272.8672" fill="#84BE84" rx="3" ry="3" style="stroke:#038048;stroke-width:1.0;"/><text fill="#000000" font-family="sans-serif" font-size="11" lengthAdjust="spacing" textLength="125" x="52" y="277.2861">uint16_t get_write_head()</text><ellipse cx="43" cy="286.7031" fill="#84BE84" rx="3" ry="3" style="stroke:#038048;stroke-width:1.0;"/><text fill="#000000" font-family="sans-serif" font-size="11" lengthAdjust="spacing" textLength="79" x="52" y="291.1221">int print_buffer()</text><line style="stroke:#A80036;stroke-width:1.0;" x1="33" x2="127" y1="162.0977" y2="162.0977"/><text fill="#000000" font-family="sans-serif" font-size="11" lengthAdjust="spacing" textLength="28" x="127" y="166.0986">Public</text><line style="stroke:#A80036;stroke-width:1.0;" x1="155" x2="249" y1="162.0977" y2="162.0977"/><!--MD5=[c028a035e7689d41e0de856ac7946170]
@startuml class_diagram_custom_types

package szp_custom_types{
        
        enum supported_cid_t{
            cid_send_sound_packet = 1
            cid_enroll = 161
            cid_set_sound_format = 179
            cid_check_connection = 241
            cid_notSet = 255
        }

        class buffer_t{
            - -Private- -
            - uint8_t* p_buffer
            - uint16_t buffer_size
            - uint16_t write_head
            - uint16_t read_head
            - -Public- -
            + buffer_t(uint8_t *, uint16_t)
            + int append(uint8_t)
            + int append(const uint8_t *, uint16_t)
            + int read_byte(uint8_t *)
            + int get_buffer_rest(uint8_t **, uint16_t *)
            + int reset()
            + int set_write_head(uint16_t)
            + uint16_t get_write_head()
            + int print_buffer()
        }
    }

@enduml

PlantUML version 1.2021.10(Mon Aug 30 15:43:48 CEST 2021)
(GPL source distribution)
Java Runtime: Java(TM) SE Runtime Environment
JVM: Java HotSpot(TM) 64-Bit Server VM
Default Encoding: Cp1252
Language: en
Country: US
--></g></svg>