<?xml version="1.0" encoding="UTF-8" standalone="no"?><svg xmlns="http://www.w3.org/2000/svg" xmlns:xlink="http://www.w3.org/1999/xlink" contentScriptType="application/ecmascript" contentStyleType="text/css" height="970px" preserveAspectRatio="none" style="width:964px;height:970px;background:#FFFFFF;" version="1.1" viewBox="0 0 964 970" width="964px" zoomAndPan="magnify"><defs><filter height="300%" id="fc4o8zurwe3bx" width="300%" x="-1" y="-1"><feGaussianBlur result="blurOut" stdDeviation="2.0"/><feColorMatrix in="blurOut" result="blurOut2" type="matrix" values="0 0 0 0 0 0 0 0 0 0 0 0 0 0 0 0 0 0 .4 0"/><feOffset dx="4.0" dy="4.0" in="blurOut2" result="blurOut3"/><feBlend in="SourceGraphic" in2="blurOut3" mode="normal"/></filter></defs><g><!--MD5=[b8802e29cba774e715959d69745a42b3]
cluster szs_sound_zone_protocol--><polygon fill="#FFFFFF" filter="url(#fc4o8zurwe3bx)" points="16,6,206,6,213,29.6094,662,29.6094,662,963,16,963,16,6" style="stroke:#000000;stroke-width:1.5;"/><line style="stroke:#000000;stroke-width:1.5;" x1="16" x2="213" y1="29.6094" y2="29.6094"/><text fill="#000000" font-family="sans-serif" font-size="14" font-weight="bold" lengthAdjust="spacing" textLength="184" x="20" y="22.5332">szs_sound_zone_protocol</text><!--MD5=[e9105e4432f515e110341594dfa4bfca]
cluster szp--><polygon fill="#FFFFFF" filter="url(#fc4o8zurwe3bx)" points="40,292,70,292,77,315.6094,638,315.6094,638,939,40,939,40,292" style="stroke:#000000;stroke-width:1.5;"/><line style="stroke:#000000;stroke-width:1.5;" x1="40" x2="77" y1="315.6094" y2="315.6094"/><text fill="#000000" font-family="sans-serif" font-size="14" font-weight="bold" lengthAdjust="spacing" textLength="24" x="44" y="308.5332">szp</text><!--MD5=[79a26e4ac8bd5100d7277bc5c79d8e58]
cluster DataTransport--><polygon fill="#FFFFFF" filter="url(#fc4o8zurwe3bx)" points="686,417.5,791,417.5,798,441.1094,947,441.1094,947,517.5,686,517.5,686,417.5" style="stroke:#000000;stroke-width:1.5;"/><line style="stroke:#000000;stroke-width:1.5;" x1="686" x2="798" y1="441.1094" y2="441.1094"/><text fill="#000000" font-family="sans-serif" font-size="14" font-weight="bold" lengthAdjust="spacing" textLength="99" x="690" y="434.0332">DataTransport</text><!--MD5=[358141ac238f2a25e6d946b89ad047f2]
class SZP_master--><rect codeLine="116" fill="#FEFECE" filter="url(#fc4o8zurwe3bx)" height="166.6875" id="SZP_master" style="stroke:#A80036;stroke-width:1.5;" width="229" x="416.5" y="71.5"/><ellipse cx="492.25" cy="87.5" fill="#ADD1B2" rx="11" ry="11" style="stroke:#A80036;stroke-width:1.0;"/><path d="M495.0156,83.375 Q495.1719,83.1563 495.3594,83.0469 Q495.5469,82.9375 495.7656,82.9375 Q496.1406,82.9375 496.375,83.1953 Q496.6094,83.4531 496.6094,84.0625 L496.6094,85.5156 Q496.6094,86.125 496.375,86.3906 Q496.1406,86.6563 495.7656,86.6563 Q495.4219,86.6563 495.2188,86.4531 Q495.0156,86.2656 494.9063,85.75 Q494.8594,85.3906 494.6719,85.2031 Q494.3438,84.8281 493.7344,84.6094 Q493.125,84.3906 492.5,84.3906 Q491.7344,84.3906 491.1016,84.7188 Q490.4688,85.0469 489.9766,85.7969 Q489.4844,86.5469 489.4844,87.5781 L489.4844,88.6719 Q489.4844,89.9063 490.375,90.7266 Q491.2656,91.5469 492.8594,91.5469 Q493.7969,91.5469 494.4531,91.2969 Q494.8438,91.1406 495.2656,90.7031 Q495.5313,90.4375 495.6797,90.3594 Q495.8281,90.2813 496.0313,90.2813 Q496.3594,90.2813 496.6172,90.5391 Q496.875,90.7969 496.875,91.1406 Q496.875,91.4844 496.5313,91.8906 Q496.0313,92.4688 495.2344,92.7969 Q494.1563,93.25 492.8594,93.25 Q491.3438,93.25 490.1406,92.625 Q489.1563,92.125 488.4688,91.0547 Q487.7813,89.9844 487.7813,88.7031 L487.7813,87.5469 Q487.7813,86.2188 488.3984,85.0703 Q489.0156,83.9219 490.1094,83.3047 Q491.2031,82.6875 492.4375,82.6875 Q493.1719,82.6875 493.8203,82.8516 Q494.4688,83.0156 495.0156,83.375 Z " fill="#000000"/><text fill="#000000" font-family="sans-serif" font-size="12" lengthAdjust="spacing" textLength="69" x="512.75" y="92.4102">SZP_master</text><line style="stroke:#A80036;stroke-width:1.5;" x1="417.5" x2="644.5" y1="103.5" y2="103.5"/><rect fill="none" height="6" style="stroke:#C82930;stroke-width:1.0;" width="6" x="424.5" y="129.3359"/><text fill="#000000" font-family="sans-serif" font-size="11" lengthAdjust="spacing" textLength="63" x="436.5" y="136.7549">UDP_client dt</text><rect fill="none" height="6" style="stroke:#C82930;stroke-width:1.0;" width="6" x="424.5" y="143.1719"/><text fill="#000000" font-family="sans-serif" font-size="11" lengthAdjust="spacing" textLength="105" x="436.5" y="150.5908">uint8_t comm_buffer[]</text><line style="stroke:#A80036;stroke-width:1.0;" x1="417.5" x2="514.5" y1="118.418" y2="118.418"/><text fill="#000000" font-family="sans-serif" font-size="11" lengthAdjust="spacing" textLength="33" x="514.5" y="122.4189">Private</text><line style="stroke:#A80036;stroke-width:1.0;" x1="547.5" x2="644.5" y1="118.418" y2="118.418"/><line style="stroke:#A80036;stroke-width:1.5;" x1="417.5" x2="644.5" y1="157.0078" y2="157.0078"/><ellipse cx="427.5" cy="185.8438" fill="#84BE84" rx="3" ry="3" style="stroke:#038048;stroke-width:1.0;"/><text fill="#000000" font-family="sans-serif" font-size="11" lengthAdjust="spacing" textLength="67" x="436.5" y="190.2627">SZP_master()</text><ellipse cx="427.5" cy="199.6797" fill="#84BE84" rx="3" ry="3" style="stroke:#038048;stroke-width:1.0;"/><text fill="#000000" font-family="sans-serif" font-size="11" lengthAdjust="spacing" textLength="122" x="436.5" y="204.0986">SZP_master(char *, bool)</text><ellipse cx="427.5" cy="213.5156" fill="#84BE84" rx="3" ry="3" style="stroke:#038048;stroke-width:1.0;"/><text fill="#000000" font-family="sans-serif" font-size="11" lengthAdjust="spacing" textLength="110" x="436.5" y="217.9346">int check_connection()</text><ellipse cx="427.5" cy="227.3516" fill="#84BE84" rx="3" ry="3" style="stroke:#038048;stroke-width:1.0;"/><text fill="#000000" font-family="sans-serif" font-size="11" lengthAdjust="spacing" textLength="203" x="436.5" y="231.7705">int send_sound_packet(uint8_t *, uint16_t)</text><line style="stroke:#A80036;stroke-width:1.0;" x1="417.5" x2="517" y1="171.9258" y2="171.9258"/><text fill="#000000" font-family="sans-serif" font-size="11" lengthAdjust="spacing" textLength="28" x="517" y="175.9268">Public</text><line style="stroke:#A80036;stroke-width:1.0;" x1="545" x2="644.5" y1="171.9258" y2="171.9258"/><!--MD5=[f98b2bde8a9293bad7a4d96faca01189]
class SZP_slave--><rect codeLine="128" fill="#FEFECE" filter="url(#fc4o8zurwe3bx)" height="226.0313" id="SZP_slave" style="stroke:#A80036;stroke-width:1.5;" width="139" x="242.5" y="42"/><ellipse cx="279.1" cy="58" fill="#ADD1B2" rx="11" ry="11" style="stroke:#A80036;stroke-width:1.0;"/><path d="M281.8656,53.875 Q282.0219,53.6563 282.2094,53.5469 Q282.3969,53.4375 282.6156,53.4375 Q282.9906,53.4375 283.225,53.6953 Q283.4594,53.9531 283.4594,54.5625 L283.4594,56.0156 Q283.4594,56.625 283.225,56.8906 Q282.9906,57.1563 282.6156,57.1563 Q282.2719,57.1563 282.0688,56.9531 Q281.8656,56.7656 281.7563,56.25 Q281.7094,55.8906 281.5219,55.7031 Q281.1938,55.3281 280.5844,55.1094 Q279.975,54.8906 279.35,54.8906 Q278.5844,54.8906 277.9516,55.2188 Q277.3188,55.5469 276.8266,56.2969 Q276.3344,57.0469 276.3344,58.0781 L276.3344,59.1719 Q276.3344,60.4063 277.225,61.2266 Q278.1156,62.0469 279.7094,62.0469 Q280.6469,62.0469 281.3031,61.7969 Q281.6938,61.6406 282.1156,61.2031 Q282.3813,60.9375 282.5297,60.8594 Q282.6781,60.7813 282.8813,60.7813 Q283.2094,60.7813 283.4672,61.0391 Q283.725,61.2969 283.725,61.6406 Q283.725,61.9844 283.3813,62.3906 Q282.8813,62.9688 282.0844,63.2969 Q281.0063,63.75 279.7094,63.75 Q278.1938,63.75 276.9906,63.125 Q276.0063,62.625 275.3188,61.5547 Q274.6313,60.4844 274.6313,59.2031 L274.6313,58.0469 Q274.6313,56.7188 275.2484,55.5703 Q275.8656,54.4219 276.9594,53.8047 Q278.0531,53.1875 279.2875,53.1875 Q280.0219,53.1875 280.6703,53.3516 Q281.3188,53.5156 281.8656,53.875 Z " fill="#000000"/><text fill="#000000" font-family="sans-serif" font-size="12" lengthAdjust="spacing" textLength="59" x="297.9" y="62.9102">SZP_slave</text><line style="stroke:#A80036;stroke-width:1.5;" x1="243.5" x2="380.5" y1="74" y2="74"/><rect fill="none" height="6" style="stroke:#C82930;stroke-width:1.0;" width="6" x="250.5" y="99.8359"/><text fill="#000000" font-family="sans-serif" font-size="11" lengthAdjust="spacing" textLength="70" x="262.5" y="107.2549">UDP_server dt</text><rect fill="none" height="6" style="stroke:#C82930;stroke-width:1.0;" width="6" x="250.5" y="113.6719"/><text fill="#000000" font-family="sans-serif" font-size="11" lengthAdjust="spacing" textLength="77" x="262.5" y="121.0908">char* fifo_name</text><rect fill="none" height="6" style="stroke:#C82930;stroke-width:1.0;" width="6" x="250.5" y="127.5078"/><text fill="#000000" font-family="sans-serif" font-size="11" lengthAdjust="spacing" textLength="105" x="262.5" y="134.9268">uint8_t comm_buffer[]</text><line style="stroke:#A80036;stroke-width:1.0;" x1="243.5" x2="295.5" y1="88.918" y2="88.918"/><text fill="#000000" font-family="sans-serif" font-size="11" lengthAdjust="spacing" textLength="33" x="295.5" y="92.9189">Private</text><line style="stroke:#A80036;stroke-width:1.0;" x1="328.5" x2="380.5" y1="88.918" y2="88.918"/><line style="stroke:#A80036;stroke-width:1.5;" x1="243.5" x2="380.5" y1="141.3438" y2="141.3438"/><rect fill="#F24D5C" height="6" style="stroke:#C82930;stroke-width:1.0;" width="6" x="250.5" y="167.1797"/><text fill="#000000" font-family="sans-serif" font-size="11" lengthAdjust="spacing" textLength="112" x="262.5" y="174.5986">int encode_and_send()</text><rect fill="#F24D5C" height="6" style="stroke:#C82930;stroke-width:1.0;" width="6" x="250.5" y="181.0156"/><text fill="#000000" font-family="sans-serif" font-size="11" lengthAdjust="spacing" textLength="113" x="262.5" y="188.4346">int react_on_incoming()</text><line style="stroke:#A80036;stroke-width:1.0;" x1="243.5" x2="295.5" y1="156.2617" y2="156.2617"/><text fill="#000000" font-family="sans-serif" font-size="11" lengthAdjust="spacing" textLength="33" x="295.5" y="160.2627">Private</text><line style="stroke:#A80036;stroke-width:1.0;" x1="328.5" x2="380.5" y1="156.2617" y2="156.2617"/><ellipse cx="253.5" cy="215.6875" fill="#84BE84" rx="3" ry="3" style="stroke:#038048;stroke-width:1.0;"/><text fill="#000000" font-family="sans-serif" font-size="11" lengthAdjust="spacing" textLength="89" x="262.5" y="220.1064">SZP_slave(char *)</text><ellipse cx="253.5" cy="229.5234" fill="#84BE84" rx="3" ry="3" style="stroke:#038048;stroke-width:1.0;"/><text fill="#000000" font-family="sans-serif" font-size="11" lengthAdjust="spacing" textLength="66" x="262.5" y="233.9424">~SZP_slave()</text><ellipse cx="253.5" cy="243.3594" fill="#84BE84" rx="3" ry="3" style="stroke:#038048;stroke-width:1.0;"/><text fill="#000000" font-family="sans-serif" font-size="11" lengthAdjust="spacing" textLength="68" x="262.5" y="247.7783">int open_fifo()</text><ellipse cx="253.5" cy="257.1953" fill="#84BE84" rx="3" ry="3" style="stroke:#038048;stroke-width:1.0;"/><text fill="#000000" font-family="sans-serif" font-size="11" lengthAdjust="spacing" textLength="58" x="262.5" y="261.6143">int recieve()</text><line style="stroke:#A80036;stroke-width:1.0;" x1="243.5" x2="298" y1="201.7695" y2="201.7695"/><text fill="#000000" font-family="sans-serif" font-size="11" lengthAdjust="spacing" textLength="28" x="298" y="205.7705">Public</text><line style="stroke:#A80036;stroke-width:1.0;" x1="326" x2="380.5" y1="201.7695" y2="201.7695"/><!--MD5=[1abc3e6dc9fe2c8063ed4793c1552605]
class sound_zone_protocol--><rect codeLine="146" fill="#FEFECE" filter="url(#fc4o8zurwe3bx)" height="299.2109" id="sound_zone_protocol" style="stroke:#A80036;stroke-width:1.5;" width="253" x="229.5" y="328"/><ellipse cx="292.25" cy="344" fill="#ADD1B2" rx="11" ry="11" style="stroke:#A80036;stroke-width:1.0;"/><path d="M295.0156,339.875 Q295.1719,339.6563 295.3594,339.5469 Q295.5469,339.4375 295.7656,339.4375 Q296.1406,339.4375 296.375,339.6953 Q296.6094,339.9531 296.6094,340.5625 L296.6094,342.0156 Q296.6094,342.625 296.375,342.8906 Q296.1406,343.1563 295.7656,343.1563 Q295.4219,343.1563 295.2188,342.9531 Q295.0156,342.7656 294.9063,342.25 Q294.8594,341.8906 294.6719,341.7031 Q294.3438,341.3281 293.7344,341.1094 Q293.125,340.8906 292.5,340.8906 Q291.7344,340.8906 291.1016,341.2188 Q290.4688,341.5469 289.9766,342.2969 Q289.4844,343.0469 289.4844,344.0781 L289.4844,345.1719 Q289.4844,346.4063 290.375,347.2266 Q291.2656,348.0469 292.8594,348.0469 Q293.7969,348.0469 294.4531,347.7969 Q294.8438,347.6406 295.2656,347.2031 Q295.5313,346.9375 295.6797,346.8594 Q295.8281,346.7813 296.0313,346.7813 Q296.3594,346.7813 296.6172,347.0391 Q296.875,347.2969 296.875,347.6406 Q296.875,347.9844 296.5313,348.3906 Q296.0313,348.9688 295.2344,349.2969 Q294.1563,349.75 292.8594,349.75 Q291.3438,349.75 290.1406,349.125 Q289.1563,348.625 288.4688,347.5547 Q287.7813,346.4844 287.7813,345.2031 L287.7813,344.0469 Q287.7813,342.7188 288.3984,341.5703 Q289.0156,340.4219 290.1094,339.8047 Q291.2031,339.1875 292.4375,339.1875 Q293.1719,339.1875 293.8203,339.3516 Q294.4688,339.5156 295.0156,339.875 Z " fill="#000000"/><text fill="#000000" font-family="sans-serif" font-size="12" lengthAdjust="spacing" textLength="119" x="312.75" y="348.9102">sound_zone_protocol</text><line style="stroke:#A80036;stroke-width:1.5;" x1="230.5" x2="481.5" y1="360" y2="360"/><polygon fill="none" points="240.5,383.8359,244.5,387.8359,240.5,391.8359,236.5,387.8359" style="stroke:#B38D22;stroke-width:1.0;"/><text fill="#000000" font-family="sans-serif" font-size="11" lengthAdjust="spacing" textLength="88" x="249.5" y="393.2549">buffer_t* p_buffer</text><polygon fill="none" points="240.5,397.6719,244.5,401.6719,240.5,405.6719,236.5,401.6719" style="stroke:#B38D22;stroke-width:1.0;"/><text fill="#000000" font-family="sans-serif" font-size="11" lengthAdjust="spacing" textLength="95" x="249.5" y="407.0908">supported_cid_t cid</text><polygon fill="none" points="240.5,411.5078,244.5,415.5078,240.5,419.5078,236.5,415.5078" style="stroke:#B38D22;stroke-width:1.0;"/><text fill="#000000" font-family="sans-serif" font-size="11" lengthAdjust="spacing" textLength="207" x="249.5" y="420.9268">xF1_check_connection* check_connection</text><polygon fill="none" points="240.5,425.3438,244.5,429.3438,240.5,433.3438,236.5,429.3438" style="stroke:#B38D22;stroke-width:1.0;"/><text fill="#000000" font-family="sans-serif" font-size="11" lengthAdjust="spacing" textLength="227" x="249.5" y="434.7627">x01_send_sound_packet* send_sound_packet</text><line style="stroke:#A80036;stroke-width:1.0;" x1="230.5" x2="333" y1="374.918" y2="374.918"/><text fill="#000000" font-family="sans-serif" font-size="11" lengthAdjust="spacing" textLength="46" x="333" y="378.9189">Protected</text><line style="stroke:#A80036;stroke-width:1.0;" x1="379" x2="481.5" y1="374.918" y2="374.918"/><line style="stroke:#A80036;stroke-width:1.5;" x1="230.5" x2="481.5" y1="441.1797" y2="441.1797"/><rect fill="#F24D5C" height="6" style="stroke:#C82930;stroke-width:1.0;" width="6" x="237.5" y="467.0156"/><text fill="#000000" font-family="sans-serif" font-size="11" lengthAdjust="spacing" textLength="215" x="249.5" y="474.4346">static supported_cid_t initial_decode(uint8_t)</text><line style="stroke:#A80036;stroke-width:1.0;" x1="230.5" x2="339.5" y1="456.0977" y2="456.0977"/><text fill="#000000" font-family="sans-serif" font-size="11" lengthAdjust="spacing" textLength="33" x="339.5" y="460.0986">Private</text><line style="stroke:#A80036;stroke-width:1.0;" x1="372.5" x2="481.5" y1="456.0977" y2="456.0977"/><polygon fill="#FFFF44" points="240.5,496.6875,244.5,500.6875,240.5,504.6875,236.5,500.6875" style="stroke:#B38D22;stroke-width:1.0;"/><text fill="#000000" font-family="sans-serif" font-size="11" lengthAdjust="spacing" textLength="139" x="249.5" y="506.1064">uint16_t encode_and_send()</text><line style="stroke:#A80036;stroke-width:1.0;" x1="230.5" x2="333" y1="487.7695" y2="487.7695"/><text fill="#000000" font-family="sans-serif" font-size="11" lengthAdjust="spacing" textLength="46" x="333" y="491.7705">Protected</text><line style="stroke:#A80036;stroke-width:1.0;" x1="379" x2="481.5" y1="487.7695" y2="487.7695"/><ellipse cx="240.5" cy="533.3594" fill="#84BE84" rx="3" ry="3" style="stroke:#038048;stroke-width:1.0;"/><text fill="#000000" font-family="sans-serif" font-size="11" lengthAdjust="spacing" textLength="113" x="249.5" y="537.7783">sound_zone_protocol()</text><ellipse cx="240.5" cy="547.1953" fill="#84BE84" rx="3" ry="3" style="stroke:#038048;stroke-width:1.0;"/><text fill="#000000" font-family="sans-serif" font-size="11" lengthAdjust="spacing" textLength="196" x="249.5" y="551.6143">sound_zone_protocol(uint8_t *, uint16_t)</text><ellipse cx="240.5" cy="561.0313" fill="#84BE84" rx="3" ry="3" style="stroke:#038048;stroke-width:1.0;"/><text fill="#000000" font-family="sans-serif" font-size="11" lengthAdjust="spacing" textLength="77" x="249.5" y="565.4502">int set_fifo(int *)</text><ellipse cx="240.5" cy="574.8672" fill="#84BE84" rx="3" ry="3" style="stroke:#038048;stroke-width:1.0;"/><text fill="#000000" font-family="sans-serif" font-size="11" lengthAdjust="spacing" textLength="107" x="249.5" y="579.2861">int set_values(uint8_t)</text><ellipse cx="240.5" cy="588.7031" fill="#84BE84" rx="3" ry="3" style="stroke:#038048;stroke-width:1.0;"/><text fill="#000000" font-family="sans-serif" font-size="11" lengthAdjust="spacing" textLength="158" x="249.5" y="593.1221">int set_values(uint8_t *, uint16_t)</text><ellipse cx="240.5" cy="602.5391" fill="#84BE84" rx="3" ry="3" style="stroke:#038048;stroke-width:1.0;"/><text fill="#000000" font-family="sans-serif" font-size="11" lengthAdjust="spacing" textLength="136" x="249.5" y="606.958">buffer_t* encode(buffer_t *)</text><ellipse cx="240.5" cy="616.375" fill="#84BE84" rx="3" ry="3" style="stroke:#038048;stroke-width:1.0;"/><text fill="#000000" font-family="sans-serif" font-size="11" lengthAdjust="spacing" textLength="104" x="249.5" y="620.7939">int decode(buffer_t *)</text><line style="stroke:#A80036;stroke-width:1.0;" x1="230.5" x2="342" y1="519.4414" y2="519.4414"/><text fill="#000000" font-family="sans-serif" font-size="11" lengthAdjust="spacing" textLength="28" x="342" y="523.4424">Public</text><line style="stroke:#A80036;stroke-width:1.0;" x1="370" x2="481.5" y1="519.4414" y2="519.4414"/><!--MD5=[5b296fcb86e66f3b2b94a895ed44520a]
class x01_send_sound_packet--><rect codeLine="167" fill="#FEFECE" filter="url(#fc4o8zurwe3bx)" height="235.8672" id="x01_send_sound_packet" style="stroke:#A80036;stroke-width:1.5;" width="184" x="56" y="687"/><ellipse cx="76.85" cy="703" fill="#ADD1B2" rx="11" ry="11" style="stroke:#A80036;stroke-width:1.0;"/><path d="M79.6156,698.875 Q79.7719,698.6563 79.9594,698.5469 Q80.1469,698.4375 80.3656,698.4375 Q80.7406,698.4375 80.975,698.6953 Q81.2094,698.9531 81.2094,699.5625 L81.2094,701.0156 Q81.2094,701.625 80.975,701.8906 Q80.7406,702.1563 80.3656,702.1563 Q80.0219,702.1563 79.8188,701.9531 Q79.6156,701.7656 79.5063,701.25 Q79.4594,700.8906 79.2719,700.7031 Q78.9438,700.3281 78.3344,700.1094 Q77.725,699.8906 77.1,699.8906 Q76.3344,699.8906 75.7016,700.2188 Q75.0688,700.5469 74.5766,701.2969 Q74.0844,702.0469 74.0844,703.0781 L74.0844,704.1719 Q74.0844,705.4063 74.975,706.2266 Q75.8656,707.0469 77.4594,707.0469 Q78.3969,707.0469 79.0531,706.7969 Q79.4438,706.6406 79.8656,706.2031 Q80.1313,705.9375 80.2797,705.8594 Q80.4281,705.7813 80.6313,705.7813 Q80.9594,705.7813 81.2172,706.0391 Q81.475,706.2969 81.475,706.6406 Q81.475,706.9844 81.1313,707.3906 Q80.6313,707.9688 79.8344,708.2969 Q78.7563,708.75 77.4594,708.75 Q75.9438,708.75 74.7406,708.125 Q73.7563,707.625 73.0688,706.5547 Q72.3813,705.4844 72.3813,704.2031 L72.3813,703.0469 Q72.3813,701.7188 72.9984,700.5703 Q73.6156,699.4219 74.7094,698.8047 Q75.8031,698.1875 77.0375,698.1875 Q77.7719,698.1875 78.4203,698.3516 Q79.0688,698.5156 79.6156,698.875 Z " fill="#000000"/><text fill="#000000" font-family="sans-serif" font-size="12" lengthAdjust="spacing" textLength="139" x="92.15" y="707.9102">x01_send_sound_packet</text><line style="stroke:#A80036;stroke-width:1.5;" x1="57" x2="239" y1="719" y2="719"/><rect fill="none" height="6" style="stroke:#C82930;stroke-width:1.0;" width="6" x="64" y="744.8359"/><text fill="#000000" font-family="sans-serif" font-size="11" lengthAdjust="spacing" textLength="89" x="76" y="752.2549">uint8_t* p_payload</text><rect fill="none" height="6" style="stroke:#C82930;stroke-width:1.0;" width="6" x="64" y="758.6719"/><text fill="#000000" font-family="sans-serif" font-size="11" lengthAdjust="spacing" textLength="105" x="76" y="766.0908">uint16_t payload_size</text><rect fill="none" height="6" style="stroke:#C82930;stroke-width:1.0;" width="6" x="64" y="772.5078"/><text fill="#000000" font-family="sans-serif" font-size="11" lengthAdjust="spacing" textLength="46" x="76" y="779.9268">int fifo_fd</text><rect fill="none" height="6" style="stroke:#C82930;stroke-width:1.0;" width="6" x="64" y="786.3438"/><text fill="#000000" font-family="sans-serif" font-size="11" lengthAdjust="spacing" textLength="79" x="76" y="793.7627">long long int time</text><line style="stroke:#A80036;stroke-width:1.0;" x1="57" x2="131.5" y1="733.918" y2="733.918"/><text fill="#000000" font-family="sans-serif" font-size="11" lengthAdjust="spacing" textLength="33" x="131.5" y="737.9189">Private</text><line style="stroke:#A80036;stroke-width:1.0;" x1="164.5" x2="239" y1="733.918" y2="733.918"/><line style="stroke:#A80036;stroke-width:1.5;" x1="57" x2="239" y1="800.1797" y2="800.1797"/><ellipse cx="67" cy="829.0156" fill="#84BE84" rx="3" ry="3" style="stroke:#038048;stroke-width:1.0;"/><text fill="#000000" font-family="sans-serif" font-size="11" lengthAdjust="spacing" textLength="130" x="76" y="833.4346">x01_send_sound_packet()</text><ellipse cx="67" cy="842.8516" fill="#84BE84" rx="3" ry="3" style="stroke:#038048;stroke-width:1.0;"/><text fill="#000000" font-family="sans-serif" font-size="11" lengthAdjust="spacing" textLength="107" x="76" y="847.2705">int set_fifo(const int *)</text><ellipse cx="67" cy="856.6875" fill="#84BE84" rx="3" ry="3" style="stroke:#038048;stroke-width:1.0;"/><text fill="#000000" font-family="sans-serif" font-size="11" lengthAdjust="spacing" textLength="132" x="76" y="861.1064">int set_values(long long int)</text><ellipse cx="67" cy="870.5234" fill="#84BE84" rx="3" ry="3" style="stroke:#038048;stroke-width:1.0;"/><text fill="#000000" font-family="sans-serif" font-size="11" lengthAdjust="spacing" textLength="158" x="76" y="874.9424">int set_values(uint8_t *, uint16_t)</text><ellipse cx="67" cy="884.3594" fill="#84BE84" rx="3" ry="3" style="stroke:#038048;stroke-width:1.0;"/><text fill="#000000" font-family="sans-serif" font-size="11" lengthAdjust="spacing" textLength="136" x="76" y="888.7783">buffer_t* encode(buffer_t *)</text><ellipse cx="67" cy="898.1953" fill="#84BE84" rx="3" ry="3" style="stroke:#038048;stroke-width:1.0;"/><text fill="#000000" font-family="sans-serif" font-size="11" lengthAdjust="spacing" textLength="113" x="76" y="902.6143">void decode(buffer_t *)</text><ellipse cx="67" cy="912.0313" fill="#84BE84" rx="3" ry="3" style="stroke:#038048;stroke-width:1.0;"/><text fill="#000000" font-family="sans-serif" font-size="11" lengthAdjust="spacing" textLength="47" x="76" y="916.4502">int reset()</text><line style="stroke:#A80036;stroke-width:1.0;" x1="57" x2="134" y1="815.0977" y2="815.0977"/><text fill="#000000" font-family="sans-serif" font-size="11" lengthAdjust="spacing" textLength="28" x="134" y="819.0986">Public</text><line style="stroke:#A80036;stroke-width:1.0;" x1="162" x2="239" y1="815.0977" y2="815.0977"/><!--MD5=[6f3119a484ac264f38140fcf4dd4869c]
class xF1_check_connection--><rect codeLine="184" fill="#FEFECE" filter="url(#fc4o8zurwe3bx)" height="166.6875" id="xF1_check_connection" style="stroke:#A80036;stroke-width:1.5;" width="162" x="275" y="721.5"/><ellipse cx="292.25" cy="737.5" fill="#ADD1B2" rx="11" ry="11" style="stroke:#A80036;stroke-width:1.0;"/><path d="M295.0156,733.375 Q295.1719,733.1563 295.3594,733.0469 Q295.5469,732.9375 295.7656,732.9375 Q296.1406,732.9375 296.375,733.1953 Q296.6094,733.4531 296.6094,734.0625 L296.6094,735.5156 Q296.6094,736.125 296.375,736.3906 Q296.1406,736.6563 295.7656,736.6563 Q295.4219,736.6563 295.2188,736.4531 Q295.0156,736.2656 294.9063,735.75 Q294.8594,735.3906 294.6719,735.2031 Q294.3438,734.8281 293.7344,734.6094 Q293.125,734.3906 292.5,734.3906 Q291.7344,734.3906 291.1016,734.7188 Q290.4688,735.0469 289.9766,735.7969 Q289.4844,736.5469 289.4844,737.5781 L289.4844,738.6719 Q289.4844,739.9063 290.375,740.7266 Q291.2656,741.5469 292.8594,741.5469 Q293.7969,741.5469 294.4531,741.2969 Q294.8438,741.1406 295.2656,740.7031 Q295.5313,740.4375 295.6797,740.3594 Q295.8281,740.2813 296.0313,740.2813 Q296.3594,740.2813 296.6172,740.5391 Q296.875,740.7969 296.875,741.1406 Q296.875,741.4844 296.5313,741.8906 Q296.0313,742.4688 295.2344,742.7969 Q294.1563,743.25 292.8594,743.25 Q291.3438,743.25 290.1406,742.625 Q289.1563,742.125 288.4688,741.0547 Q287.7813,739.9844 287.7813,738.7031 L287.7813,737.5469 Q287.7813,736.2188 288.3984,735.0703 Q289.0156,733.9219 290.1094,733.3047 Q291.2031,732.6875 292.4375,732.6875 Q293.1719,732.6875 293.8203,732.8516 Q294.4688,733.0156 295.0156,733.375 Z " fill="#000000"/><text fill="#000000" font-family="sans-serif" font-size="12" lengthAdjust="spacing" textLength="125" x="306.75" y="742.4102">xF1_check_connection</text><line style="stroke:#A80036;stroke-width:1.5;" x1="276" x2="436" y1="753.5" y2="753.5"/><rect fill="none" height="6" style="stroke:#C82930;stroke-width:1.0;" width="6" x="283" y="779.3359"/><text fill="#000000" font-family="sans-serif" font-size="11" lengthAdjust="spacing" textLength="117" x="295" y="786.7549">uint8_t acknowledgment</text><line style="stroke:#A80036;stroke-width:1.0;" x1="276" x2="339.5" y1="768.418" y2="768.418"/><text fill="#000000" font-family="sans-serif" font-size="11" lengthAdjust="spacing" textLength="33" x="339.5" y="772.4189">Private</text><line style="stroke:#A80036;stroke-width:1.0;" x1="372.5" x2="436" y1="768.418" y2="768.418"/><line style="stroke:#A80036;stroke-width:1.5;" x1="276" x2="436" y1="793.1719" y2="793.1719"/><ellipse cx="286" cy="822.0078" fill="#84BE84" rx="3" ry="3" style="stroke:#038048;stroke-width:1.0;"/><text fill="#000000" font-family="sans-serif" font-size="11" lengthAdjust="spacing" textLength="120" x="295" y="826.4268">xF1_check_connection()</text><ellipse cx="286" cy="835.8438" fill="#84BE84" rx="3" ry="3" style="stroke:#038048;stroke-width:1.0;"/><text fill="#000000" font-family="sans-serif" font-size="11" lengthAdjust="spacing" textLength="107" x="295" y="840.2627">int set_values(uint8_t)</text><ellipse cx="286" cy="849.6797" fill="#84BE84" rx="3" ry="3" style="stroke:#038048;stroke-width:1.0;"/><text fill="#000000" font-family="sans-serif" font-size="11" lengthAdjust="spacing" textLength="47" x="295" y="854.0986">int reset()</text><ellipse cx="286" cy="863.5156" fill="#84BE84" rx="3" ry="3" style="stroke:#038048;stroke-width:1.0;"/><text fill="#000000" font-family="sans-serif" font-size="11" lengthAdjust="spacing" textLength="136" x="295" y="867.9346">buffer_t* encode(buffer_t *)</text><ellipse cx="286" cy="877.3516" fill="#84BE84" rx="3" ry="3" style="stroke:#038048;stroke-width:1.0;"/><text fill="#000000" font-family="sans-serif" font-size="11" lengthAdjust="spacing" textLength="104" x="295" y="881.7705">int decode(buffer_t *)</text><line style="stroke:#A80036;stroke-width:1.0;" x1="276" x2="342" y1="808.0898" y2="808.0898"/><text fill="#000000" font-family="sans-serif" font-size="11" lengthAdjust="spacing" textLength="28" x="342" y="812.0908">Public</text><line style="stroke:#A80036;stroke-width:1.0;" x1="370" x2="436" y1="808.0898" y2="808.0898"/><polygon fill="#FFFFFF" filter="url(#fc4o8zurwe3bx)" points="472.5,777.5,607.5,777.5,614.5,801.1094,621.5,801.1094,621.5,832.7188,472.5,832.7188,472.5,777.5" style="stroke:#000000;stroke-width:1.5;"/><line style="stroke:#000000;stroke-width:1.5;" x1="472.5" x2="614.5" y1="801.1094" y2="801.1094"/><text fill="#000000" font-family="sans-serif" font-size="14" font-weight="bold" lengthAdjust="spacing" textLength="129" x="476.5" y="794.0332">szp_custom_types</text><!--MD5=[d1515d178fad2bf0f45f27ac1a5c0712]
class UDP_client--><rect codeLine="213" fill="#FEFECE" filter="url(#fc4o8zurwe3bx)" height="48" id="UDP_client" style="stroke:#A80036;stroke-width:1.5;" width="94" x="837" y="453.5"/><ellipse cx="852" cy="469.5" fill="#ADD1B2" rx="11" ry="11" style="stroke:#A80036;stroke-width:1.0;"/><path d="M854.7656,465.375 Q854.9219,465.1563 855.1094,465.0469 Q855.2969,464.9375 855.5156,464.9375 Q855.8906,464.9375 856.125,465.1953 Q856.3594,465.4531 856.3594,466.0625 L856.3594,467.5156 Q856.3594,468.125 856.125,468.3906 Q855.8906,468.6563 855.5156,468.6563 Q855.1719,468.6563 854.9688,468.4531 Q854.7656,468.2656 854.6563,467.75 Q854.6094,467.3906 854.4219,467.2031 Q854.0938,466.8281 853.4844,466.6094 Q852.875,466.3906 852.25,466.3906 Q851.4844,466.3906 850.8516,466.7188 Q850.2188,467.0469 849.7266,467.7969 Q849.2344,468.5469 849.2344,469.5781 L849.2344,470.6719 Q849.2344,471.9063 850.125,472.7266 Q851.0156,473.5469 852.6094,473.5469 Q853.5469,473.5469 854.2031,473.2969 Q854.5938,473.1406 855.0156,472.7031 Q855.2813,472.4375 855.4297,472.3594 Q855.5781,472.2813 855.7813,472.2813 Q856.1094,472.2813 856.3672,472.5391 Q856.625,472.7969 856.625,473.1406 Q856.625,473.4844 856.2813,473.8906 Q855.7813,474.4688 854.9844,474.7969 Q853.9063,475.25 852.6094,475.25 Q851.0938,475.25 849.8906,474.625 Q848.9063,474.125 848.2188,473.0547 Q847.5313,471.9844 847.5313,470.7031 L847.5313,469.5469 Q847.5313,468.2188 848.1484,467.0703 Q848.7656,465.9219 849.8594,465.3047 Q850.9531,464.6875 852.1875,464.6875 Q852.9219,464.6875 853.5703,464.8516 Q854.2188,465.0156 854.7656,465.375 Z " fill="#000000"/><text fill="#000000" font-family="sans-serif" font-size="12" lengthAdjust="spacing" textLength="62" x="866" y="474.4102">UDP_client</text><line style="stroke:#A80036;stroke-width:1.5;" x1="838" x2="930" y1="485.5" y2="485.5"/><line style="stroke:#A80036;stroke-width:1.5;" x1="838" x2="930" y1="493.5" y2="493.5"/><!--MD5=[33bda69caa66fb7c99eaf82bc543b74e]
class UDP_server--><rect codeLine="214" fill="#FEFECE" filter="url(#fc4o8zurwe3bx)" height="48" id="UDP_server" style="stroke:#A80036;stroke-width:1.5;" width="99" x="702.5" y="453.5"/><ellipse cx="717.5" cy="469.5" fill="#ADD1B2" rx="11" ry="11" style="stroke:#A80036;stroke-width:1.0;"/><path d="M720.2656,465.375 Q720.4219,465.1563 720.6094,465.0469 Q720.7969,464.9375 721.0156,464.9375 Q721.3906,464.9375 721.625,465.1953 Q721.8594,465.4531 721.8594,466.0625 L721.8594,467.5156 Q721.8594,468.125 721.625,468.3906 Q721.3906,468.6563 721.0156,468.6563 Q720.6719,468.6563 720.4688,468.4531 Q720.2656,468.2656 720.1563,467.75 Q720.1094,467.3906 719.9219,467.2031 Q719.5938,466.8281 718.9844,466.6094 Q718.375,466.3906 717.75,466.3906 Q716.9844,466.3906 716.3516,466.7188 Q715.7188,467.0469 715.2266,467.7969 Q714.7344,468.5469 714.7344,469.5781 L714.7344,470.6719 Q714.7344,471.9063 715.625,472.7266 Q716.5156,473.5469 718.1094,473.5469 Q719.0469,473.5469 719.7031,473.2969 Q720.0938,473.1406 720.5156,472.7031 Q720.7813,472.4375 720.9297,472.3594 Q721.0781,472.2813 721.2813,472.2813 Q721.6094,472.2813 721.8672,472.5391 Q722.125,472.7969 722.125,473.1406 Q722.125,473.4844 721.7813,473.8906 Q721.2813,474.4688 720.4844,474.7969 Q719.4063,475.25 718.1094,475.25 Q716.5938,475.25 715.3906,474.625 Q714.4063,474.125 713.7188,473.0547 Q713.0313,471.9844 713.0313,470.7031 L713.0313,469.5469 Q713.0313,468.2188 713.6484,467.0703 Q714.2656,465.9219 715.3594,465.3047 Q716.4531,464.6875 717.6875,464.6875 Q718.4219,464.6875 719.0703,464.8516 Q719.7188,465.0156 720.2656,465.375 Z " fill="#000000"/><text fill="#000000" font-family="sans-serif" font-size="12" lengthAdjust="spacing" textLength="67" x="731.5" y="474.4102">UDP_server</text><line style="stroke:#A80036;stroke-width:1.5;" x1="703.5" x2="800.5" y1="485.5" y2="485.5"/><line style="stroke:#A80036;stroke-width:1.5;" x1="703.5" x2="800.5" y1="493.5" y2="493.5"/><!--MD5=[819560a7ae37cec3121a30417fb867bb]
link SZP_master to sound_zone_protocol--><path codeLine="202" d="M485.93,238.54 C472.91,262.39 458.23,289.28 443.54,316.17 " fill="none" id="SZP_master-to-sound_zone_protocol" style="stroke:#A80036;stroke-width:1.0;"/><polygon fill="#FFFFFF" points="437.25,327.69,443.6353,324.3392,442.9981,317.1563,436.6128,320.5071,437.25,327.69" style="stroke:#A80036;stroke-width:1.0;"/><!--MD5=[8624d67ac5351fc796ea96f52dbebcea]
link SZP_slave to sound_zone_protocol--><path codeLine="203" d="M327.39,268.1 C329.46,283.19 331.62,298.9 333.78,314.64 " fill="none" id="SZP_slave-to-sound_zone_protocol" style="stroke:#A80036;stroke-width:1.0;"/><polygon fill="#FFFFFF" points="335.59,327.85,338.7417,321.3641,333.9669,315.9603,330.8152,322.4462,335.59,327.85" style="stroke:#A80036;stroke-width:1.0;"/><!--MD5=[70f76a486a09aafcce574086cf8c40ea]
link sound_zone_protocol to x01_send_sound_packet--><path codeLine="205" d="M260.83,627.44 C250.58,643.47 240.22,659.68 230.15,675.44 " fill="none" id="sound_zone_protocol-to-x01_send_sound_packet" style="stroke:#A80036;stroke-width:1.0;"/><polygon fill="#A80036" points="222.88,686.83,229.481,683.9272,229.3404,676.7175,222.7394,679.6203,222.88,686.83" style="stroke:#A80036;stroke-width:1.0;"/><!--MD5=[5b47c71b27b187e9f8e12adb66d980a4]
link sound_zone_protocol to xF1_check_connection--><path codeLine="206" d="M356,627.44 C356,654.95 356,682.99 356,708.39 " fill="none" id="sound_zone_protocol-to-xF1_check_connection" style="stroke:#A80036;stroke-width:1.0;"/><polygon fill="#A80036" points="356,721.41,360,715.41,356,709.41,352,715.41,356,721.41" style="stroke:#A80036;stroke-width:1.0;"/><!--MD5=[d395419fccc967cdeb3695daafd26b11]
link sound_zone_protocol to szp_custom_types--><path codeLine="207" d="M443.39,627.44 C473.45,678.65 504.57,731.7 524.76,766.11 " fill="none" id="sound_zone_protocol-to-szp_custom_types" style="stroke:#A80036;stroke-width:1.0;"/><polygon fill="#A80036" points="531.43,777.47,531.8368,770.2704,525.3475,767.1258,524.9407,774.3254,531.43,777.47" style="stroke:#A80036;stroke-width:1.0;"/><!--MD5=[d63e008edd9545a95f94b6841a9578f6]
link SZP_master to UDP_client--><path codeLine="210" d="M645.65,183.12 C704.58,202.39 773.39,233.96 819,284 C859.22,328.13 874.67,398.06 880.52,440.38 " fill="none" id="SZP_master-to-UDP_client" style="stroke:#A80036;stroke-width:1.0;"/><polygon fill="#A80036" points="882.13,453.34,885.3611,446.8933,880.6529,441.4313,877.4219,447.878,882.13,453.34" style="stroke:#A80036;stroke-width:1.0;"/><!--MD5=[db18abf83db8f090ed0662d17841ad27]
link SZP_slave to UDP_server--><path codeLine="211" d="M381.62,256.57 C387.12,260.9 392.91,264.76 399,268 C446,292.99 592.66,256.11 638,284 C695.54,319.39 727.51,395.55 742.1,440.74 " fill="none" id="SZP_slave-to-UDP_server" style="stroke:#A80036;stroke-width:1.0;"/><polygon fill="#A80036" points="746,453.42,748.0636,446.5105,742.4793,441.9481,740.4157,448.8576,746,453.42" style="stroke:#A80036;stroke-width:1.0;"/><!--MD5=[8e52287bc63bfb41837d8ed390d80229]
@startuml class_diagram

package szs_sound_zone_protocol {
    
    class SZP_master{
        - -Private- -
        - UDP_client dt
        - uint8_t comm_buffer[]
        ___
        - -Public- -
        + SZP_master()
        + SZP_master(char *, bool)
        + int check_connection()
        + int send_sound_packet(uint8_t *, uint16_t)
    }

    class SZP_slave{
        - -Private- -
        - UDP_server dt
        - char* fifo_name
        - uint8_t comm_buffer[]
        ___
        - -Private- -
        - int encode_and_send()
        - int react_on_incoming()
        - -Public- -
        + SZP_slave(char *)
        + ~SZP_slave()
        + int open_fifo()
        + int recieve()
}

    package szp {
        
        class sound_zone_protocol {
            - -Protected- -
            # buffer_t* p_buffer
            # supported_cid_t cid
            # xF1_check_connection* check_connection
            # x01_send_sound_packet* send_sound_packet
            ___
            - -Private- -
            - static supported_cid_t initial_decode(uint8_t)
            - -Protected- -
            # uint16_t encode_and_send()
            - -Public- -
            + sound_zone_protocol()
            + sound_zone_protocol(uint8_t *, uint16_t)
            + int set_fifo(int *)
            + int set_values(uint8_t)
            + int set_values(uint8_t *, uint16_t)
            + buffer_t* encode(buffer_t *)
            + int decode(buffer_t *)
        }

        class x01_send_sound_packet {
            - -Private- -
            - uint8_t* p_payload
            - uint16_t payload_size
            - int fifo_fd
            - long long int time
            ___
            - -Public- -
            + x01_send_sound_packet()
            + int set_fifo(const int *)
            + int set_values(long long int)
            + int set_values(uint8_t *, uint16_t)
            + buffer_t* encode(buffer_t *)
            + void decode(buffer_t *)
            + int reset()
        }

        class xF1_check_connection {
            - -Private- -
            - uint8_t acknowledgment
            ___
            - -Public- -
            + xF1_check_connection()
            + int set_values(uint8_t)
            + int reset()
            + buffer_t* encode(buffer_t *)
            + int decode(buffer_t *)
        }
    

        package szp_custom_types{
        }
    }
}

SZP_master - -o sound_zone_protocol
SZP_slave - -o sound_zone_protocol

sound_zone_protocol - -* x01_send_sound_packet
sound_zone_protocol - -* xF1_check_connection
sound_zone_protocol - -* szp_custom_types

package DataTransport{
    SZP_master - -* UDP_client
    SZP_slave - -* UDP_server

    class UDP_client{}
    class UDP_server{}
}


@enduml

PlantUML version 1.2021.10(Mon Aug 30 15:43:48 CEST 2021)
(GPL source distribution)
Java Runtime: Java(TM) SE Runtime Environment
JVM: Java HotSpot(TM) 64-Bit Server VM
Default Encoding: Cp1252
Language: en
Country: US
--></g></svg>